<svg width="56" height="56" viewBox="0 0 56 56" fill="none" xmlns="http://www.w3.org/2000/svg">
<circle cx="28" cy="28" r="28" fill="#BF83FF"/>
<mask id="mask0_302_1958" style="mask-type:alpha" maskUnits="userSpaceOnUse" x="0" y="0" width="56" height="56">
<circle cx="28" cy="28" r="28" fill="#C4C4C4"/>
</mask>
<g mask="url(#mask0_302_1958)">
<path fill-rule="evenodd" clip-rule="evenodd" d="M28.0001 14.4963C22.3768 14.4963 17.8182 19.0549 17.8182 24.6782V25.7145C16.7863 25.8876 16.0001 26.785 16.0001 27.8661V30.3596C16.0001 31.4626 16.8185 32.3744 17.8812 32.5209C18.2786 36.0916 20.5225 39.1049 23.6364 40.5842V43.9313C15.9352 44.3459 9.81824 50.7218 9.81824 58.5264H46.1819C46.1819 50.7218 40.0649 44.3459 32.3637 43.9313V40.5842C35.4776 39.1049 37.7216 36.0916 38.1189 32.5209C39.1816 32.3744 40.0001 31.4626 40.0001 30.3596V27.8661C40.0001 26.785 39.2138 25.8876 38.1819 25.7145V24.6782C38.1819 19.0549 33.6233 14.4963 28.0001 14.4963Z" fill="#D0C6AC"/>
<mask id="mask1_302_1958" style="mask-type:luminance" maskUnits="userSpaceOnUse" x="9" y="14" width="38" height="45">
<path fill-rule="evenodd" clip-rule="evenodd" d="M28.0001 14.4963C22.3768 14.4963 17.8182 19.0549 17.8182 24.6782V25.7145C16.7863 25.8876 16.0001 26.785 16.0001 27.8661V30.3596C16.0001 31.4626 16.8185 32.3744 17.8812 32.5209C18.2786 36.0916 20.5225 39.1049 23.6364 40.5842V43.9313C15.9352 44.3459 9.81824 50.7218 9.81824 58.5264H46.1819C46.1819 50.7218 40.0649 44.3459 32.3637 43.9313V40.5842C35.4776 39.1049 37.7216 36.0916 38.1189 32.5209C39.1816 32.3744 40.0001 31.4626 40.0001 30.3596V27.8661C40.0001 26.785 39.2138 25.8876 38.1819 25.7145V24.6782C38.1819 19.0549 33.6233 14.4963 28.0001 14.4963Z" fill="white"/>
</mask>
<g mask="url(#mask1_302_1958)">
<rect width="48" height="44.0301" transform="translate(4 14.4963)" fill="#FFCCD7"/>
<rect x="4" y="14.4963" width="48" height="44.0301" fill="#FFCCD7"/>
<path fill-rule="evenodd" clip-rule="evenodd" d="M17.8182 31.3821V32.8257C17.8182 38.449 22.3768 43.0075 28.0001 43.0075C33.6233 43.0075 38.1819 38.449 38.1819 32.8257V31.3821C38.1819 37.0054 33.6233 41.5639 28.0001 41.5639C22.3768 41.5639 17.8182 37.0053 17.8182 31.3821Z" fill="black" fill-opacity="0.1"/>
</g>
<path fill-rule="evenodd" clip-rule="evenodd" d="M28.091 50.5554C33.0615 50.5554 37.091 48.1737 37.091 45.2357C37.091 45.1544 37.0879 45.0734 37.0818 44.9929C42.4194 47.1672 46.1819 52.4074 46.1819 58.5264H9.81824C9.81824 52.3357 13.6695 47.0444 19.1068 44.9177C19.0963 45.0229 19.091 45.129 19.091 45.2357C19.091 48.1737 23.1204 50.5554 28.091 50.5554Z" fill="#6223A9"/>
<mask id="mask2_302_1958" style="mask-type:luminance" maskUnits="userSpaceOnUse" x="9" y="44" width="38" height="15">
<path fill-rule="evenodd" clip-rule="evenodd" d="M28.091 50.5554C33.0615 50.5554 37.091 48.1737 37.091 45.2357C37.091 45.1544 37.0879 45.0734 37.0818 44.9929C42.4194 47.1672 46.1819 52.4074 46.1819 58.5264H9.81824C9.81824 52.3357 13.6695 47.0444 19.1068 44.9177C19.0963 45.0229 19.091 45.129 19.091 45.2357C19.091 48.1737 23.1204 50.5554 28.091 50.5554Z" fill="white"/>
</mask>
<g mask="url(#mask2_302_1958)">
<rect x="4" y="38.6768" width="48" height="19.8496" fill="#6223A9"/>
</g>
<path fill-rule="evenodd" clip-rule="evenodd" d="M25.4546 34.8872C25.4546 36.2825 26.5942 37.4135 28 37.4135C29.4059 37.4135 30.5455 36.2825 30.5455 34.8872" fill="#0C092A"/>
<g opacity="0.3">
<path fill-rule="evenodd" clip-rule="evenodd" d="M25.8182 31.4585C25.8182 32.2558 26.7951 32.9021 28.0001 32.9021C29.205 32.9021 30.1819 32.2558 30.1819 31.4585" fill="#0C092A"/>
</g>
<ellipse cx="23.2728" cy="28.2104" rx="1.09091" ry="1.08271" fill="#0C092A"/>
<ellipse cx="32.7274" cy="28.2104" rx="1.09091" ry="1.08271" fill="#0C092A"/>
<path d="M20.6601 25.8933C21.3719 24.8992 23.3233 24.3418 25.0042 24.7515C25.1993 24.799 25.3962 24.6806 25.4441 24.4871C25.492 24.2935 25.3727 24.098 25.1777 24.0505C23.2255 23.5747 20.9659 24.2202 20.0673 25.4751C19.9509 25.6376 19.9893 25.8629 20.153 25.9784C20.3167 26.0938 20.5437 26.0557 20.6601 25.8933Z" fill="#0C092A"/>
<path d="M35.34 25.8933C34.6282 24.8992 32.6768 24.3418 30.9959 24.7515C30.8009 24.799 30.6039 24.6806 30.556 24.4871C30.5081 24.2935 30.6274 24.098 30.8225 24.0505C32.7746 23.5747 35.0343 24.2202 35.9329 25.4751C36.0492 25.6376 36.0108 25.8629 35.8471 25.9784C35.6834 26.0938 35.4564 26.0557 35.34 25.8933Z" fill="#0C092A"/>
<mask id="mask3_302_1958" style="mask-type:luminance" maskUnits="userSpaceOnUse" x="4" y="8" width="48" height="51">
<rect x="4" y="8" width="48" height="50.5263" fill="white"/>
</mask>
<g mask="url(#mask3_302_1958)">
<path fill-rule="evenodd" clip-rule="evenodd" d="M11.091 34.1654C10.9788 28.601 16.2399 16.9855 18.1819 14.6767C19.6225 12.964 23.5811 11.5279 28.0001 11.609C32.4192 11.6901 36.5204 12.6578 38.0001 14.4962C40.2408 17.2801 44.8853 27.8638 44.9092 34.1654C44.9262 38.6406 43.1751 43.1266 40.7274 43.3684C39.3454 43.5049 37.5898 43.3277 35.4804 43.1147L35.4802 43.1147L35.4801 43.1147L35.4799 43.1147L35.4797 43.1147C34.5145 43.0172 33.4752 42.9123 32.3637 42.8265V40.584C35.8036 38.9499 38.1819 35.4437 38.1819 31.3821V26.3272C36.2713 25.2825 34.6447 24.0213 33.2896 22.7398C33.8997 23.8659 34.5975 24.8884 35.3844 25.6613C29.8239 24.1128 25.98 20.942 23.6764 18.4559C22.6174 20.4551 20.7206 23.3789 17.8182 25.6061V31.382C17.8182 35.4437 20.1965 38.9499 23.6364 40.584V42.9616C22.3722 43.1334 21.1973 43.3513 20.1161 43.5519C18.1436 43.9178 16.4829 44.2258 15.1609 44.0902C12.5749 43.825 11.1812 38.6398 11.091 34.1654Z" fill="#E6E6E6"/>
<mask id="mask4_302_1958" style="mask-type:luminance" maskUnits="userSpaceOnUse" x="11" y="11" width="34" height="34">
<path fill-rule="evenodd" clip-rule="evenodd" d="M11.091 34.1654C10.9788 28.601 16.2399 16.9855 18.1819 14.6767C19.6225 12.964 23.5811 11.5279 28.0001 11.609C32.4192 11.6901 36.5204 12.6578 38.0001 14.4962C40.2408 17.2801 44.8853 27.8638 44.9092 34.1654C44.9262 38.6406 43.1751 43.1266 40.7274 43.3684C39.3454 43.5049 37.5898 43.3277 35.4804 43.1147L35.4802 43.1147L35.4801 43.1147L35.4799 43.1147L35.4797 43.1147C34.5145 43.0172 33.4752 42.9123 32.3637 42.8265V40.584C35.8036 38.9499 38.1819 35.4437 38.1819 31.3821V26.3272C36.2713 25.2825 34.6447 24.0213 33.2896 22.7398C33.8997 23.8659 34.5975 24.8884 35.3844 25.6613C29.8239 24.1128 25.98 20.942 23.6764 18.4559C22.6174 20.4551 20.7206 23.3789 17.8182 25.6061V31.382C17.8182 35.4437 20.1965 38.9499 23.6364 40.584V42.9616C22.3722 43.1334 21.1973 43.3513 20.1161 43.5519C18.1436 43.9178 16.4829 44.2258 15.1609 44.0902C12.5749 43.825 11.1812 38.6398 11.091 34.1654Z" fill="white"/>
</mask>
<g mask="url(#mask4_302_1958)">
<rect x="3.81824" y="8" width="48.3636" height="50.5263" fill="#0C092A"/>
</g>
</g>
</g>
</svg>
