<svg width="327" height="84" viewBox="0 0 327 84" fill="none" xmlns="http://www.w3.org/2000/svg">
<rect width="327" height="84" rx="20" fill="#FFCCD5"/>
<mask id="mask0_302_1956" style="mask-type:alpha" maskUnits="userSpaceOnUse" x="0" y="0" width="327" height="84">
<rect width="327" height="84" rx="20" fill="#6A5AE0"/>
</mask>
<g mask="url(#mask0_302_1956)">
<path opacity="0.2" d="M8 2C8 2 25.3765 66.9778 59.3802 80.9533C116.137 104.28 190.682 29.2663 264.304 46.8598C323.796 61.0768 382 130 382 130" stroke="white" stroke-width="2"/>
<path opacity="0.2" d="M6.5 1C6.5 1 21.0424 55.3174 49.5 67C97 86.5 159.386 23.7929 221 38.5C270.789 50.3845 319.5 108 319.5 108" stroke="white" stroke-width="2"/>
</g>
<circle cx="279" cy="40" r="24" fill="#FFB3C0"/>
<mask id="path-6-inside-1_302_1956" fill="white">
<path d="M279 16C283.106 16 287.144 17.0536 290.727 19.0601C294.31 21.0666 297.318 23.9588 299.463 27.46C301.609 30.9613 302.82 34.9545 302.981 39.0578C303.143 43.161 302.248 47.2369 300.384 50.8958C298.52 54.5546 295.748 57.6739 292.334 59.9553C288.919 62.2367 284.977 63.6038 280.883 63.926C276.789 64.2482 272.681 63.5146 268.952 61.7954C265.223 60.0763 261.997 57.429 259.584 54.1068L279 40V16Z"/>
</mask>
<path d="M279 16C283.106 16 287.144 17.0536 290.727 19.0601C294.31 21.0666 297.318 23.9588 299.463 27.46C301.609 30.9613 302.82 34.9545 302.981 39.0578C303.143 43.161 302.248 47.2369 300.384 50.8958C298.52 54.5546 295.748 57.6739 292.334 59.9553C288.919 62.2367 284.977 63.6038 280.883 63.926C276.789 64.2482 272.681 63.5146 268.952 61.7954C265.223 60.0763 261.997 57.429 259.584 54.1068L279 40V16Z" fill="#FF8FA2" stroke="#FF8FA2" stroke-width="6" mask="url(#path-6-inside-1_302_1956)"/>
<path d="M268.747 45.14C267.945 45.14 267.254 44.9907 266.675 44.692C266.097 44.384 265.649 43.9733 265.331 43.46C265.014 42.9373 264.855 42.354 264.855 41.71C264.855 41.4207 264.893 41.1407 264.967 40.87C265.042 40.5993 265.14 40.3427 265.261 40.1C265.383 39.8573 265.499 39.6427 265.611 39.456C265.733 39.26 265.84 39.106 265.933 38.994L268.495 35.48C268.533 35.4333 268.589 35.3773 268.663 35.312C268.738 35.2373 268.841 35.2 268.971 35.2H270.273C270.357 35.2 270.427 35.2327 270.483 35.298C270.539 35.354 270.567 35.424 270.567 35.508C270.567 35.5453 270.558 35.5827 270.539 35.62C270.53 35.648 270.516 35.6713 270.497 35.69L268.537 38.406C268.621 38.378 268.719 38.3593 268.831 38.35C268.943 38.3407 269.046 38.336 269.139 38.336C269.606 38.3453 270.049 38.4387 270.469 38.616C270.889 38.784 271.258 39.0173 271.575 39.316C271.893 39.6147 272.14 39.9647 272.317 40.366C272.504 40.7673 272.597 41.206 272.597 41.682C272.597 42.298 272.443 42.872 272.135 43.404C271.827 43.9267 271.384 44.3467 270.805 44.664C270.236 44.9813 269.55 45.14 268.747 45.14ZM268.733 43.53C269.069 43.53 269.377 43.46 269.657 43.32C269.947 43.18 270.18 42.9747 270.357 42.704C270.535 42.4333 270.623 42.0973 270.623 41.696C270.623 41.304 270.535 40.9727 270.357 40.702C270.18 40.4313 269.947 40.226 269.657 40.086C269.377 39.946 269.069 39.876 268.733 39.876C268.397 39.876 268.085 39.946 267.795 40.086C267.515 40.226 267.287 40.4313 267.109 40.702C266.932 40.9727 266.843 41.304 266.843 41.696C266.843 42.0973 266.932 42.4333 267.109 42.704C267.287 42.9747 267.515 43.18 267.795 43.32C268.085 43.46 268.397 43.53 268.733 43.53ZM277.343 45.154C276.54 45.154 275.863 45.0233 275.313 44.762C274.762 44.4913 274.342 44.1413 274.053 43.712C273.773 43.2827 273.623 42.8253 273.605 42.34C273.595 42.256 273.619 42.1907 273.675 42.144C273.74 42.088 273.815 42.06 273.899 42.06H275.201C275.303 42.06 275.387 42.0833 275.453 42.13C275.527 42.1673 275.583 42.2373 275.621 42.34C275.714 42.62 275.845 42.8487 276.013 43.026C276.19 43.2033 276.391 43.334 276.615 43.418C276.848 43.502 277.091 43.544 277.343 43.544C277.679 43.544 277.982 43.4787 278.253 43.348C278.533 43.208 278.757 43.0027 278.925 42.732C279.093 42.4613 279.177 42.13 279.177 41.738C279.177 41.3927 279.097 41.094 278.939 40.842C278.78 40.59 278.561 40.394 278.281 40.254C278.01 40.1047 277.697 40.03 277.343 40.03C277.081 40.03 276.867 40.0627 276.699 40.128C276.531 40.1933 276.386 40.268 276.265 40.352C276.153 40.436 276.05 40.5107 275.957 40.576C275.873 40.6413 275.775 40.674 275.663 40.674H274.375C274.291 40.674 274.216 40.646 274.151 40.59C274.095 40.5247 274.067 40.45 274.067 40.366L274.557 35.578C274.566 35.4567 274.608 35.3633 274.683 35.298C274.757 35.2327 274.846 35.2 274.949 35.2H280.213C280.306 35.2 280.385 35.2327 280.451 35.298C280.516 35.3633 280.549 35.4427 280.549 35.536V36.474C280.549 36.5673 280.516 36.6467 280.451 36.712C280.385 36.7773 280.306 36.81 280.213 36.81H276.167L275.943 39.092C276.111 38.98 276.335 38.8727 276.615 38.77C276.895 38.6673 277.282 38.616 277.777 38.616C278.225 38.616 278.649 38.6907 279.051 38.84C279.461 38.98 279.825 39.19 280.143 39.47C280.46 39.7407 280.707 40.072 280.885 40.464C281.071 40.8467 281.165 41.2853 281.165 41.78C281.165 42.4613 281.006 43.054 280.689 43.558C280.371 44.062 279.928 44.454 279.359 44.734C278.789 45.014 278.117 45.154 277.343 45.154ZM283.28 45C283.084 45 282.986 44.9067 282.986 44.72C282.986 44.664 283.005 44.6127 283.042 44.566L289.944 35.466C290.01 35.382 290.075 35.3167 290.14 35.27C290.206 35.2233 290.299 35.2 290.42 35.2H291.162C291.358 35.2 291.456 35.2933 291.456 35.48C291.456 35.536 291.438 35.5873 291.4 35.634L284.498 44.734C284.433 44.818 284.368 44.8833 284.302 44.93C284.246 44.9767 284.153 45 284.022 45H283.28ZM290.014 45.084C289.389 45.084 288.894 44.9113 288.53 44.566C288.166 44.2207 287.966 43.768 287.928 43.208C287.919 42.9653 287.914 42.7553 287.914 42.578C287.914 42.4007 287.919 42.1813 287.928 41.92C287.966 41.36 288.157 40.9073 288.502 40.562C288.857 40.2167 289.361 40.044 290.014 40.044C290.677 40.044 291.181 40.2167 291.526 40.562C291.881 40.9073 292.072 41.36 292.1 41.92C292.119 42.1813 292.128 42.4007 292.128 42.578C292.128 42.7553 292.119 42.9653 292.1 43.208C292.072 43.768 291.872 44.2207 291.498 44.566C291.134 44.9113 290.64 45.084 290.014 45.084ZM290.014 43.992C290.22 43.992 290.378 43.95 290.49 43.866C290.612 43.782 290.7 43.6747 290.756 43.544C290.812 43.4133 290.84 43.2827 290.84 43.152C290.859 42.9187 290.868 42.7227 290.868 42.564C290.868 42.396 290.859 42.2047 290.84 41.99C290.831 41.7753 290.766 41.5793 290.644 41.402C290.523 41.2153 290.313 41.122 290.014 41.122C289.725 41.122 289.52 41.2153 289.398 41.402C289.277 41.5793 289.207 41.7753 289.188 41.99C289.179 42.2047 289.174 42.396 289.174 42.564C289.174 42.7227 289.179 42.9187 289.188 43.152C289.207 43.2827 289.24 43.4133 289.286 43.544C289.342 43.6747 289.426 43.782 289.538 43.866C289.66 43.95 289.818 43.992 290.014 43.992ZM284.428 40.128C283.803 40.128 283.308 39.9647 282.944 39.638C282.58 39.3113 282.38 38.868 282.342 38.308C282.333 38.0653 282.328 37.8553 282.328 37.678C282.328 37.4913 282.333 37.2673 282.342 37.006C282.38 36.446 282.571 35.9933 282.916 35.648C283.271 35.3027 283.775 35.13 284.428 35.13C285.091 35.13 285.595 35.3027 285.94 35.648C286.295 35.9933 286.486 36.446 286.514 37.006C286.533 37.2673 286.542 37.4913 286.542 37.678C286.542 37.8553 286.533 38.0653 286.514 38.308C286.486 38.868 286.286 39.3113 285.912 39.638C285.548 39.9647 285.054 40.128 284.428 40.128ZM284.428 39.092C284.634 39.092 284.792 39.05 284.904 38.966C285.026 38.882 285.114 38.7747 285.17 38.644C285.226 38.5133 285.254 38.378 285.254 38.238C285.273 38.0047 285.282 37.8087 285.282 37.65C285.282 37.482 285.273 37.2907 285.254 37.076C285.245 36.8613 285.18 36.6653 285.058 36.488C284.937 36.3107 284.727 36.222 284.428 36.222C284.139 36.222 283.934 36.3107 283.812 36.488C283.691 36.6653 283.626 36.8613 283.616 37.076C283.607 37.2907 283.602 37.482 283.602 37.65C283.602 37.8087 283.607 38.0047 283.616 38.238C283.626 38.378 283.654 38.5133 283.7 38.644C283.756 38.7747 283.84 38.882 283.952 38.966C284.074 39.05 284.232 39.092 284.428 39.092Z" fill="white"/>
<path d="M56.63 62C56.534 62 56.444 61.964 56.36 61.892C56.288 61.82 56.252 61.73 56.252 61.622C56.252 61.574 56.264 61.52 56.288 61.46L60.626 49.85C60.662 49.73 60.728 49.628 60.824 49.544C60.932 49.448 61.076 49.4 61.256 49.4H63.218C63.398 49.4 63.536 49.448 63.632 49.544C63.728 49.628 63.8 49.73 63.848 49.85L68.186 61.46C68.198 61.52 68.204 61.574 68.204 61.622C68.204 61.73 68.168 61.82 68.096 61.892C68.024 61.964 67.94 62 67.844 62H66.278C66.11 62 65.984 61.964 65.9 61.892C65.828 61.808 65.78 61.73 65.756 61.658L64.91 59.462H59.564L58.718 61.658C58.694 61.73 58.64 61.808 58.556 61.892C58.484 61.964 58.364 62 58.196 62H56.63ZM60.194 57.392H64.28L62.228 51.83L60.194 57.392ZM73.9551 62C73.8351 62 73.7331 61.958 73.6491 61.874C73.5651 61.79 73.5231 61.688 73.5231 61.568V49.85C73.5231 49.718 73.5651 49.61 73.6491 49.526C73.7331 49.442 73.8351 49.4 73.9551 49.4H79.1751C80.1471 49.4 80.9391 49.55 81.5511 49.85C82.1631 50.138 82.6131 50.54 82.9011 51.056C83.2011 51.572 83.3511 52.172 83.3511 52.856C83.3511 53.312 83.2671 53.714 83.0991 54.062C82.9431 54.398 82.7451 54.674 82.5051 54.89C82.2771 55.106 82.0491 55.274 81.8211 55.394C82.2891 55.61 82.7031 55.97 83.0631 56.474C83.4231 56.978 83.6031 57.578 83.6031 58.274C83.6031 58.994 83.4411 59.636 83.1171 60.2C82.7931 60.764 82.3131 61.208 81.6771 61.532C81.0411 61.844 80.2551 62 79.3191 62H73.9551ZM76.0251 60.092H79.0311C79.6791 60.092 80.1711 59.918 80.5071 59.57C80.8431 59.21 81.0111 58.778 81.0111 58.274C81.0111 57.746 80.8371 57.308 80.4891 56.96C80.1531 56.612 79.6671 56.438 79.0311 56.438H76.0251V60.092ZM76.0251 54.566H78.8511C79.4871 54.566 79.9611 54.416 80.2731 54.116C80.5971 53.804 80.7591 53.402 80.7591 52.91C80.7591 52.406 80.5971 52.016 80.2731 51.74C79.9611 51.452 79.4871 51.308 78.8511 51.308H76.0251V54.566ZM88.365 62.18C87.741 62.18 87.177 62.06 86.673 61.82C86.169 61.568 85.767 61.238 85.467 60.83C85.179 60.41 85.035 59.942 85.035 59.426C85.035 58.586 85.371 57.92 86.043 57.428C86.727 56.924 87.627 56.588 88.743 56.42L91.209 56.06V55.682C91.209 55.178 91.083 54.788 90.831 54.512C90.579 54.236 90.147 54.098 89.535 54.098C89.103 54.098 88.749 54.188 88.473 54.368C88.209 54.536 88.011 54.764 87.879 55.052C87.783 55.208 87.645 55.286 87.465 55.286H86.043C85.911 55.286 85.809 55.25 85.737 55.178C85.677 55.106 85.647 55.01 85.647 54.89C85.659 54.698 85.737 54.464 85.881 54.188C86.025 53.912 86.253 53.648 86.565 53.396C86.877 53.132 87.279 52.91 87.771 52.73C88.263 52.55 88.857 52.46 89.553 52.46C90.309 52.46 90.945 52.556 91.461 52.748C91.989 52.928 92.409 53.174 92.721 53.486C93.033 53.798 93.261 54.164 93.405 54.584C93.549 55.004 93.621 55.448 93.621 55.916V61.568C93.621 61.688 93.579 61.79 93.495 61.874C93.411 61.958 93.309 62 93.189 62H91.731C91.599 62 91.491 61.958 91.407 61.874C91.335 61.79 91.299 61.688 91.299 61.568V60.866C91.143 61.094 90.933 61.31 90.669 61.514C90.405 61.706 90.081 61.868 89.697 62C89.325 62.12 88.881 62.18 88.365 62.18ZM88.977 60.47C89.397 60.47 89.775 60.38 90.111 60.2C90.459 60.02 90.729 59.744 90.921 59.372C91.125 58.988 91.227 58.508 91.227 57.932V57.554L89.427 57.842C88.719 57.95 88.191 58.124 87.843 58.364C87.495 58.604 87.321 58.898 87.321 59.246C87.321 59.51 87.399 59.738 87.555 59.93C87.723 60.11 87.933 60.248 88.185 60.344C88.437 60.428 88.701 60.47 88.977 60.47ZM99.4762 62.18C98.7562 62.18 98.1382 62.096 97.6222 61.928C97.1182 61.76 96.7042 61.55 96.3802 61.298C96.0562 61.046 95.8162 60.794 95.6602 60.542C95.5042 60.29 95.4202 60.08 95.4082 59.912C95.3962 59.78 95.4322 59.678 95.5162 59.606C95.6122 59.522 95.7142 59.48 95.8222 59.48H97.2442C97.2922 59.48 97.3342 59.486 97.3702 59.498C97.4062 59.51 97.4542 59.546 97.5142 59.606C97.6702 59.738 97.8322 59.876 98.0002 60.02C98.1802 60.164 98.3902 60.29 98.6302 60.398C98.8702 60.494 99.1702 60.542 99.5302 60.542C99.9982 60.542 100.388 60.452 100.7 60.272C101.024 60.08 101.186 59.81 101.186 59.462C101.186 59.21 101.114 59.006 100.97 58.85C100.838 58.694 100.586 58.556 100.214 58.436C99.8422 58.304 99.3142 58.166 98.6302 58.022C97.9582 57.866 97.4002 57.668 96.9562 57.428C96.5122 57.188 96.1822 56.888 95.9662 56.528C95.7502 56.168 95.6422 55.748 95.6422 55.268C95.6422 54.8 95.7802 54.356 96.0562 53.936C96.3442 53.504 96.7642 53.15 97.3162 52.874C97.8802 52.598 98.5762 52.46 99.4042 52.46C100.052 52.46 100.616 52.544 101.096 52.712C101.576 52.868 101.972 53.066 102.284 53.306C102.608 53.546 102.854 53.792 103.022 54.044C103.19 54.284 103.28 54.494 103.292 54.674C103.304 54.806 103.268 54.914 103.184 54.998C103.1 55.07 103.004 55.106 102.896 55.106H101.564C101.504 55.106 101.45 55.094 101.402 55.07C101.354 55.046 101.306 55.016 101.258 54.98C101.126 54.86 100.982 54.734 100.826 54.602C100.67 54.47 100.478 54.356 100.25 54.26C100.034 54.152 99.7462 54.098 99.3862 54.098C98.9302 54.098 98.5822 54.2 98.3422 54.404C98.1022 54.596 97.9822 54.842 97.9822 55.142C97.9822 55.346 98.0362 55.526 98.1442 55.682C98.2642 55.826 98.4982 55.964 98.8462 56.096C99.1942 56.228 99.7222 56.366 100.43 56.51C101.234 56.654 101.87 56.87 102.338 57.158C102.818 57.434 103.154 57.758 103.346 58.13C103.55 58.49 103.652 58.892 103.652 59.336C103.652 59.876 103.49 60.362 103.166 60.794C102.854 61.226 102.386 61.568 101.762 61.82C101.15 62.06 100.388 62.18 99.4762 62.18ZM105.942 62C105.822 62 105.72 61.958 105.636 61.874C105.552 61.79 105.51 61.688 105.51 61.568V53.072C105.51 52.952 105.552 52.85 105.636 52.766C105.72 52.682 105.822 52.64 105.942 52.64H107.436C107.568 52.64 107.67 52.682 107.742 52.766C107.826 52.85 107.868 52.952 107.868 53.072V61.568C107.868 61.688 107.826 61.79 107.742 61.874C107.67 61.958 107.568 62 107.436 62H105.942ZM105.87 51.092C105.738 51.092 105.63 51.056 105.546 50.984C105.474 50.9 105.438 50.792 105.438 50.66V49.364C105.438 49.244 105.474 49.142 105.546 49.058C105.63 48.974 105.738 48.932 105.87 48.932H107.508C107.64 48.932 107.748 48.974 107.832 49.058C107.916 49.142 107.958 49.244 107.958 49.364V50.66C107.958 50.792 107.916 50.9 107.832 50.984C107.748 51.056 107.64 51.092 107.508 51.092H105.87ZM114.359 62.18C113.495 62.18 112.733 62.018 112.073 61.694C111.425 61.37 110.915 60.902 110.543 60.29C110.183 59.666 109.985 58.916 109.949 58.04C109.937 57.86 109.931 57.626 109.931 57.338C109.931 57.038 109.937 56.792 109.949 56.6C109.985 55.724 110.183 54.98 110.543 54.368C110.915 53.744 111.425 53.27 112.073 52.946C112.733 52.622 113.495 52.46 114.359 52.46C115.127 52.46 115.781 52.568 116.321 52.784C116.861 53 117.305 53.27 117.653 53.594C118.001 53.918 118.259 54.26 118.427 54.62C118.607 54.968 118.703 55.286 118.715 55.574C118.727 55.706 118.685 55.814 118.589 55.898C118.505 55.97 118.403 56.006 118.283 56.006H116.699C116.579 56.006 116.483 55.976 116.411 55.916C116.351 55.856 116.291 55.766 116.231 55.646C116.051 55.166 115.811 54.83 115.511 54.638C115.223 54.434 114.851 54.332 114.395 54.332C113.795 54.332 113.315 54.524 112.955 54.908C112.607 55.28 112.421 55.874 112.397 56.69C112.373 57.146 112.373 57.566 112.397 57.95C112.421 58.778 112.607 59.378 112.955 59.75C113.315 60.122 113.795 60.308 114.395 60.308C114.863 60.308 115.241 60.212 115.529 60.02C115.817 59.816 116.051 59.474 116.231 58.994C116.291 58.874 116.351 58.784 116.411 58.724C116.483 58.664 116.579 58.634 116.699 58.634H118.283C118.403 58.634 118.505 58.676 118.589 58.76C118.685 58.832 118.727 58.934 118.715 59.066C118.703 59.282 118.643 59.528 118.535 59.804C118.439 60.068 118.277 60.344 118.049 60.632C117.833 60.908 117.557 61.166 117.221 61.406C116.885 61.634 116.477 61.82 115.997 61.964C115.529 62.108 114.983 62.18 114.359 62.18ZM125.372 62C125.24 62 125.132 61.958 125.048 61.874C124.964 61.79 124.922 61.688 124.922 61.568V49.85C124.922 49.718 124.964 49.61 125.048 49.526C125.132 49.442 125.24 49.4 125.372 49.4H126.794C126.962 49.4 127.088 49.448 127.172 49.544C127.256 49.628 127.31 49.694 127.334 49.742L130.808 56.222L134.318 49.742C134.342 49.694 134.396 49.628 134.48 49.544C134.564 49.448 134.69 49.4 134.858 49.4H136.262C136.394 49.4 136.502 49.442 136.586 49.526C136.67 49.61 136.712 49.718 136.712 49.85V61.568C136.712 61.688 136.67 61.79 136.586 61.874C136.502 61.958 136.394 62 136.262 62H134.75C134.618 62 134.51 61.958 134.426 61.874C134.354 61.79 134.318 61.688 134.318 61.568V53.774L131.798 58.58C131.738 58.688 131.66 58.784 131.564 58.868C131.468 58.94 131.342 58.976 131.186 58.976H130.448C130.28 58.976 130.148 58.94 130.052 58.868C129.968 58.784 129.896 58.688 129.836 58.58L127.316 53.774V61.568C127.316 61.688 127.274 61.79 127.19 61.874C127.106 61.958 127.004 62 126.884 62H125.372ZM142.769 62.18C142.037 62.18 141.401 62.018 140.861 61.694C140.333 61.358 139.925 60.89 139.637 60.29C139.349 59.678 139.205 58.958 139.205 58.13V53.072C139.205 52.952 139.247 52.85 139.331 52.766C139.415 52.682 139.517 52.64 139.637 52.64H141.221C141.353 52.64 141.455 52.682 141.527 52.766C141.611 52.85 141.653 52.952 141.653 53.072V58.022C141.653 59.51 142.307 60.254 143.615 60.254C144.239 60.254 144.731 60.056 145.091 59.66C145.463 59.264 145.649 58.718 145.649 58.022V53.072C145.649 52.952 145.691 52.85 145.775 52.766C145.859 52.682 145.961 52.64 146.081 52.64H147.665C147.785 52.64 147.887 52.682 147.971 52.766C148.055 52.85 148.097 52.952 148.097 53.072V61.568C148.097 61.688 148.055 61.79 147.971 61.874C147.887 61.958 147.785 62 147.665 62H146.207C146.075 62 145.967 61.958 145.883 61.874C145.811 61.79 145.775 61.688 145.775 61.568V60.83C145.451 61.25 145.049 61.58 144.569 61.82C144.089 62.06 143.489 62.18 142.769 62.18ZM154.021 62.18C153.301 62.18 152.683 62.096 152.167 61.928C151.663 61.76 151.249 61.55 150.925 61.298C150.601 61.046 150.361 60.794 150.205 60.542C150.049 60.29 149.965 60.08 149.953 59.912C149.941 59.78 149.977 59.678 150.061 59.606C150.157 59.522 150.259 59.48 150.367 59.48H151.789C151.837 59.48 151.879 59.486 151.915 59.498C151.951 59.51 151.999 59.546 152.059 59.606C152.215 59.738 152.377 59.876 152.545 60.02C152.725 60.164 152.935 60.29 153.175 60.398C153.415 60.494 153.715 60.542 154.075 60.542C154.543 60.542 154.933 60.452 155.245 60.272C155.569 60.08 155.731 59.81 155.731 59.462C155.731 59.21 155.659 59.006 155.515 58.85C155.383 58.694 155.131 58.556 154.759 58.436C154.387 58.304 153.859 58.166 153.175 58.022C152.503 57.866 151.945 57.668 151.501 57.428C151.057 57.188 150.727 56.888 150.511 56.528C150.295 56.168 150.187 55.748 150.187 55.268C150.187 54.8 150.325 54.356 150.601 53.936C150.889 53.504 151.309 53.15 151.861 52.874C152.425 52.598 153.121 52.46 153.949 52.46C154.597 52.46 155.161 52.544 155.641 52.712C156.121 52.868 156.517 53.066 156.829 53.306C157.153 53.546 157.399 53.792 157.567 54.044C157.735 54.284 157.825 54.494 157.837 54.674C157.849 54.806 157.813 54.914 157.729 54.998C157.645 55.07 157.549 55.106 157.441 55.106H156.109C156.049 55.106 155.995 55.094 155.947 55.07C155.899 55.046 155.851 55.016 155.803 54.98C155.671 54.86 155.527 54.734 155.371 54.602C155.215 54.47 155.023 54.356 154.795 54.26C154.579 54.152 154.291 54.098 153.931 54.098C153.475 54.098 153.127 54.2 152.887 54.404C152.647 54.596 152.527 54.842 152.527 55.142C152.527 55.346 152.581 55.526 152.689 55.682C152.809 55.826 153.043 55.964 153.391 56.096C153.739 56.228 154.267 56.366 154.975 56.51C155.779 56.654 156.415 56.87 156.883 57.158C157.363 57.434 157.699 57.758 157.891 58.13C158.095 58.49 158.197 58.892 158.197 59.336C158.197 59.876 158.035 60.362 157.711 60.794C157.399 61.226 156.931 61.568 156.307 61.82C155.695 62.06 154.933 62.18 154.021 62.18ZM160.487 62C160.367 62 160.265 61.958 160.181 61.874C160.097 61.79 160.055 61.688 160.055 61.568V53.072C160.055 52.952 160.097 52.85 160.181 52.766C160.265 52.682 160.367 52.64 160.487 52.64H161.981C162.113 52.64 162.215 52.682 162.287 52.766C162.371 52.85 162.413 52.952 162.413 53.072V61.568C162.413 61.688 162.371 61.79 162.287 61.874C162.215 61.958 162.113 62 161.981 62H160.487ZM160.415 51.092C160.283 51.092 160.175 51.056 160.091 50.984C160.019 50.9 159.983 50.792 159.983 50.66V49.364C159.983 49.244 160.019 49.142 160.091 49.058C160.175 48.974 160.283 48.932 160.415 48.932H162.053C162.185 48.932 162.293 48.974 162.377 49.058C162.461 49.142 162.503 49.244 162.503 49.364V50.66C162.503 50.792 162.461 50.9 162.377 50.984C162.293 51.056 162.185 51.092 162.053 51.092H160.415ZM168.904 62.18C168.04 62.18 167.278 62.018 166.618 61.694C165.97 61.37 165.46 60.902 165.088 60.29C164.728 59.666 164.53 58.916 164.494 58.04C164.482 57.86 164.476 57.626 164.476 57.338C164.476 57.038 164.482 56.792 164.494 56.6C164.53 55.724 164.728 54.98 165.088 54.368C165.46 53.744 165.97 53.27 166.618 52.946C167.278 52.622 168.04 52.46 168.904 52.46C169.672 52.46 170.326 52.568 170.866 52.784C171.406 53 171.85 53.27 172.198 53.594C172.546 53.918 172.804 54.26 172.972 54.62C173.152 54.968 173.248 55.286 173.26 55.574C173.272 55.706 173.23 55.814 173.134 55.898C173.05 55.97 172.948 56.006 172.828 56.006H171.244C171.124 56.006 171.028 55.976 170.956 55.916C170.896 55.856 170.836 55.766 170.776 55.646C170.596 55.166 170.356 54.83 170.056 54.638C169.768 54.434 169.396 54.332 168.94 54.332C168.34 54.332 167.86 54.524 167.5 54.908C167.152 55.28 166.966 55.874 166.942 56.69C166.918 57.146 166.918 57.566 166.942 57.95C166.966 58.778 167.152 59.378 167.5 59.75C167.86 60.122 168.34 60.308 168.94 60.308C169.408 60.308 169.786 60.212 170.074 60.02C170.362 59.816 170.596 59.474 170.776 58.994C170.836 58.874 170.896 58.784 170.956 58.724C171.028 58.664 171.124 58.634 171.244 58.634H172.828C172.948 58.634 173.05 58.676 173.134 58.76C173.23 58.832 173.272 58.934 173.26 59.066C173.248 59.282 173.188 59.528 173.08 59.804C172.984 60.068 172.822 60.344 172.594 60.632C172.378 60.908 172.102 61.166 171.766 61.406C171.43 61.634 171.022 61.82 170.542 61.964C170.074 62.108 169.528 62.18 168.904 62.18ZM187.549 63.17C187.381 63.17 187.243 63.116 187.135 63.008C187.039 62.912 186.961 62.828 186.901 62.756L186.235 61.856C185.671 62.072 185.029 62.18 184.309 62.18C183.241 62.18 182.317 62.006 181.537 61.658C180.769 61.298 180.169 60.752 179.737 60.02C179.317 59.276 179.083 58.352 179.035 57.248C179.023 56.732 179.017 56.222 179.017 55.718C179.017 55.214 179.023 54.698 179.035 54.17C179.083 53.078 179.323 52.166 179.755 51.434C180.199 50.702 180.811 50.15 181.591 49.778C182.371 49.406 183.277 49.22 184.309 49.22C185.341 49.22 186.247 49.406 187.027 49.778C187.807 50.15 188.419 50.702 188.863 51.434C189.307 52.166 189.541 53.078 189.565 54.17C189.589 54.698 189.601 55.214 189.601 55.718C189.601 56.222 189.589 56.732 189.565 57.248C189.505 58.82 189.073 60.014 188.269 60.83L189.529 62.612C189.541 62.624 189.553 62.642 189.565 62.666C189.577 62.702 189.583 62.744 189.583 62.792C189.595 62.9 189.559 62.99 189.475 63.062C189.403 63.134 189.319 63.17 189.223 63.17H187.549ZM184.309 60.11C185.077 60.11 185.707 59.882 186.199 59.426C186.691 58.958 186.955 58.202 186.991 57.158C187.015 56.63 187.027 56.144 187.027 55.7C187.027 55.244 187.015 54.758 186.991 54.242C186.979 53.546 186.853 52.982 186.613 52.55C186.373 52.106 186.055 51.788 185.659 51.596C185.275 51.392 184.825 51.29 184.309 51.29C183.805 51.29 183.355 51.392 182.959 51.596C182.563 51.788 182.245 52.106 182.005 52.55C181.777 52.982 181.645 53.546 181.609 54.242C181.597 54.758 181.591 55.244 181.591 55.7C181.591 56.144 181.597 56.63 181.609 57.158C181.657 58.202 181.927 58.958 182.419 59.426C182.911 59.882 183.541 60.11 184.309 60.11ZM195.24 62.18C194.508 62.18 193.872 62.018 193.332 61.694C192.804 61.358 192.396 60.89 192.108 60.29C191.82 59.678 191.676 58.958 191.676 58.13V53.072C191.676 52.952 191.718 52.85 191.802 52.766C191.886 52.682 191.988 52.64 192.108 52.64H193.692C193.824 52.64 193.926 52.682 193.998 52.766C194.082 52.85 194.124 52.952 194.124 53.072V58.022C194.124 59.51 194.778 60.254 196.086 60.254C196.71 60.254 197.202 60.056 197.562 59.66C197.934 59.264 198.12 58.718 198.12 58.022V53.072C198.12 52.952 198.162 52.85 198.246 52.766C198.33 52.682 198.432 52.64 198.552 52.64H200.136C200.256 52.64 200.358 52.682 200.442 52.766C200.526 52.85 200.568 52.952 200.568 53.072V61.568C200.568 61.688 200.526 61.79 200.442 61.874C200.358 61.958 200.256 62 200.136 62H198.678C198.546 62 198.438 61.958 198.354 61.874C198.282 61.79 198.246 61.688 198.246 61.568V60.83C197.922 61.25 197.52 61.58 197.04 61.82C196.56 62.06 195.96 62.18 195.24 62.18ZM203.378 62C203.258 62 203.156 61.958 203.072 61.874C202.988 61.79 202.946 61.688 202.946 61.568V53.072C202.946 52.952 202.988 52.85 203.072 52.766C203.156 52.682 203.258 52.64 203.378 52.64H204.872C205.004 52.64 205.106 52.682 205.178 52.766C205.262 52.85 205.304 52.952 205.304 53.072V61.568C205.304 61.688 205.262 61.79 205.178 61.874C205.106 61.958 205.004 62 204.872 62H203.378ZM203.306 51.092C203.174 51.092 203.066 51.056 202.982 50.984C202.91 50.9 202.874 50.792 202.874 50.66V49.364C202.874 49.244 202.91 49.142 202.982 49.058C203.066 48.974 203.174 48.932 203.306 48.932H204.944C205.076 48.932 205.184 48.974 205.268 49.058C205.352 49.142 205.394 49.244 205.394 49.364V50.66C205.394 50.792 205.352 50.9 205.268 50.984C205.184 51.056 205.076 51.092 204.944 51.092H203.306ZM207.849 62C207.717 62 207.609 61.958 207.525 61.874C207.453 61.79 207.417 61.688 207.417 61.568V60.542C207.417 60.434 207.441 60.332 207.489 60.236C207.549 60.128 207.609 60.038 207.669 59.966L212.277 54.512H207.993C207.873 54.512 207.771 54.476 207.687 54.404C207.603 54.32 207.561 54.212 207.561 54.08V53.072C207.561 52.952 207.603 52.85 207.687 52.766C207.771 52.682 207.873 52.64 207.993 52.64H214.815C214.947 52.64 215.049 52.682 215.121 52.766C215.205 52.85 215.247 52.952 215.247 53.072V54.17C215.247 54.278 215.223 54.374 215.175 54.458C215.127 54.542 215.067 54.632 214.995 54.728L210.495 60.128H215.193C215.313 60.128 215.415 60.17 215.499 60.254C215.583 60.326 215.625 60.428 215.625 60.56V61.568C215.625 61.688 215.583 61.79 215.499 61.874C215.415 61.958 215.313 62 215.193 62H207.849Z" fill="#660012"/>
<path opacity="0.5" d="M25.428 31C25.3347 31 25.2553 30.9673 25.19 30.902C25.1247 30.8367 25.092 30.7573 25.092 30.664V21.55C25.092 21.4473 25.1247 21.3633 25.19 21.298C25.2553 21.2327 25.3347 21.2 25.428 21.2H29.054C30.1833 21.2 31.0747 21.4613 31.728 21.984C32.3813 22.5067 32.708 23.2673 32.708 24.266C32.708 24.9567 32.5353 25.5307 32.19 25.988C31.854 26.4453 31.4013 26.7767 30.832 26.982L32.876 30.552C32.904 30.608 32.918 30.6593 32.918 30.706C32.918 30.79 32.8853 30.86 32.82 30.916C32.764 30.972 32.6987 31 32.624 31H31.35C31.1913 31 31.07 30.958 30.986 30.874C30.902 30.79 30.8367 30.706 30.79 30.622L28.984 27.304H27.038V30.664C27.038 30.7573 27.0053 30.8367 26.94 30.902C26.884 30.9673 26.8047 31 26.702 31H25.428ZM27.038 25.722H29.012C29.5813 25.722 30.006 25.596 30.286 25.344C30.566 25.0827 30.706 24.7187 30.706 24.252C30.706 23.7853 30.566 23.4213 30.286 23.16C30.0153 22.8893 29.5907 22.754 29.012 22.754H27.038V25.722ZM35.9679 31C35.8746 31 35.7953 30.9673 35.7299 30.902C35.6646 30.8367 35.6319 30.7573 35.6319 30.664V21.55C35.6319 21.4473 35.6646 21.3633 35.7299 21.298C35.7953 21.2327 35.8746 21.2 35.9679 21.2H42.1279C42.2306 21.2 42.3146 21.2327 42.3799 21.298C42.4453 21.3633 42.4779 21.4473 42.4779 21.55V22.474C42.4779 22.5673 42.4453 22.6467 42.3799 22.712C42.3146 22.7773 42.2306 22.81 42.1279 22.81H37.5219V25.288H41.8199C41.9226 25.288 42.0066 25.3207 42.0719 25.386C42.1373 25.442 42.1699 25.5213 42.1699 25.624V26.492C42.1699 26.5947 42.1373 26.6787 42.0719 26.744C42.0066 26.8 41.9226 26.828 41.8199 26.828H37.5219V29.39H42.2399C42.3426 29.39 42.4266 29.4227 42.4919 29.488C42.5573 29.5533 42.5899 29.6373 42.5899 29.74V30.664C42.5899 30.7573 42.5573 30.8367 42.4919 30.902C42.4266 30.9673 42.3426 31 42.2399 31H35.9679ZM49.1589 31.14C48.2909 31.14 47.5535 30.9907 46.9469 30.692C46.3495 30.384 45.8922 29.95 45.5749 29.39C45.2575 28.8207 45.0802 28.1393 45.0429 27.346C45.0335 26.9633 45.0289 26.5527 45.0289 26.114C45.0289 25.6753 45.0335 25.2553 45.0429 24.854C45.0802 24.07 45.2575 23.3933 45.5749 22.824C45.9015 22.2547 46.3635 21.8207 46.9609 21.522C47.5675 21.214 48.3002 21.06 49.1589 21.06C49.7935 21.06 50.3629 21.144 50.8669 21.312C51.3709 21.48 51.8002 21.7133 52.1549 22.012C52.5095 22.3013 52.7849 22.642 52.9809 23.034C53.1769 23.426 53.2795 23.8507 53.2889 24.308C53.2982 24.392 53.2702 24.462 53.2049 24.518C53.1489 24.574 53.0789 24.602 52.9949 24.602H51.6649C51.5622 24.602 51.4782 24.5787 51.4129 24.532C51.3475 24.476 51.3009 24.3873 51.2729 24.266C51.1235 23.65 50.8669 23.23 50.5029 23.006C50.1389 22.782 49.6862 22.67 49.1449 22.67C48.5195 22.67 48.0202 22.8473 47.6469 23.202C47.2735 23.5473 47.0729 24.1213 47.0449 24.924C47.0169 25.6893 47.0169 26.4733 47.0449 27.276C47.0729 28.0787 47.2735 28.6573 47.6469 29.012C48.0202 29.3573 48.5195 29.53 49.1449 29.53C49.6862 29.53 50.1389 29.418 50.5029 29.194C50.8669 28.9607 51.1235 28.5407 51.2729 27.934C51.3009 27.8033 51.3475 27.7147 51.4129 27.668C51.4782 27.6213 51.5622 27.598 51.6649 27.598H52.9949C53.0789 27.598 53.1489 27.626 53.2049 27.682C53.2702 27.738 53.2982 27.808 53.2889 27.892C53.2795 28.3493 53.1769 28.774 52.9809 29.166C52.7849 29.558 52.5095 29.9033 52.1549 30.202C51.8002 30.4913 51.3709 30.72 50.8669 30.888C50.3629 31.056 49.7935 31.14 49.1589 31.14ZM56.4052 31C56.3119 31 56.2325 30.9673 56.1672 30.902C56.1019 30.8367 56.0692 30.7573 56.0692 30.664V21.55C56.0692 21.4473 56.1019 21.3633 56.1672 21.298C56.2325 21.2327 56.3119 21.2 56.4052 21.2H62.5652C62.6679 21.2 62.7519 21.2327 62.8172 21.298C62.8825 21.3633 62.9152 21.4473 62.9152 21.55V22.474C62.9152 22.5673 62.8825 22.6467 62.8172 22.712C62.7519 22.7773 62.6679 22.81 62.5652 22.81H57.9592V25.288H62.2572C62.3599 25.288 62.4439 25.3207 62.5092 25.386C62.5745 25.442 62.6072 25.5213 62.6072 25.624V26.492C62.6072 26.5947 62.5745 26.6787 62.5092 26.744C62.4439 26.8 62.3599 26.828 62.2572 26.828H57.9592V29.39H62.6772C62.7799 29.39 62.8639 29.4227 62.9292 29.488C62.9945 29.5533 63.0272 29.6373 63.0272 29.74V30.664C63.0272 30.7573 62.9945 30.8367 62.9292 30.902C62.8639 30.9673 62.7799 31 62.6772 31H56.4052ZM66.2342 31C66.1408 31 66.0615 30.9673 65.9962 30.902C65.9308 30.8367 65.8982 30.7573 65.8982 30.664V21.55C65.8982 21.4473 65.9308 21.3633 65.9962 21.298C66.0615 21.2327 66.1408 21.2 66.2342 21.2H67.3122C67.4428 21.2 67.5362 21.2327 67.5922 21.298C67.6575 21.354 67.6995 21.396 67.7182 21.424L71.7502 27.696V21.55C71.7502 21.4473 71.7782 21.3633 71.8342 21.298C71.8995 21.2327 71.9835 21.2 72.0862 21.2H73.2622C73.3648 21.2 73.4488 21.2327 73.5142 21.298C73.5795 21.3633 73.6122 21.4473 73.6122 21.55V30.65C73.6122 30.7527 73.5795 30.8367 73.5142 30.902C73.4488 30.9673 73.3695 31 73.2762 31H72.1842C72.0535 31 71.9602 30.9673 71.9042 30.902C71.8482 30.8367 71.8062 30.7947 71.7782 30.776L67.7602 24.644V30.664C67.7602 30.7573 67.7275 30.8367 67.6622 30.902C67.5968 30.9673 67.5128 31 67.4102 31H66.2342ZM79.4086 31C79.3153 31 79.2359 30.9673 79.1706 30.902C79.1053 30.8367 79.0726 30.7573 79.0726 30.664V22.922H76.4826C76.3893 22.922 76.3099 22.8893 76.2446 22.824C76.1793 22.7587 76.1466 22.6793 76.1466 22.586V21.55C76.1466 21.4473 76.1793 21.3633 76.2446 21.298C76.3099 21.2327 76.3893 21.2 76.4826 21.2H83.6226C83.7253 21.2 83.8093 21.2327 83.8746 21.298C83.9399 21.3633 83.9726 21.4473 83.9726 21.55V22.586C83.9726 22.6793 83.9399 22.7587 83.8746 22.824C83.8093 22.8893 83.7253 22.922 83.6226 22.922H81.0466V30.664C81.0466 30.7573 81.0139 30.8367 80.9486 30.902C80.8833 30.9673 80.7993 31 80.6966 31H79.4086ZM96.7766 31.91C96.6459 31.91 96.5386 31.868 96.4546 31.784C96.3799 31.7093 96.3193 31.644 96.2726 31.588L95.7546 30.888C95.3159 31.056 94.8166 31.14 94.2566 31.14C93.4259 31.14 92.7073 31.0047 92.1006 30.734C91.5033 30.454 91.0366 30.0293 90.7006 29.46C90.3739 28.8813 90.1919 28.1627 90.1546 27.304C90.1453 26.9027 90.1406 26.506 90.1406 26.114C90.1406 25.722 90.1453 25.3207 90.1546 24.91C90.1919 24.0607 90.3786 23.3513 90.7146 22.782C91.0599 22.2127 91.5359 21.7833 92.1426 21.494C92.7493 21.2047 93.4539 21.06 94.2566 21.06C95.0593 21.06 95.7639 21.2047 96.3706 21.494C96.9773 21.7833 97.4533 22.2127 97.7986 22.782C98.1439 23.3513 98.3259 24.0607 98.3446 24.91C98.3633 25.3207 98.3726 25.722 98.3726 26.114C98.3726 26.506 98.3633 26.9027 98.3446 27.304C98.2979 28.5267 97.9619 29.4553 97.3366 30.09L98.3166 31.476C98.3259 31.4853 98.3353 31.4993 98.3446 31.518C98.3539 31.546 98.3586 31.5787 98.3586 31.616C98.3679 31.7 98.3399 31.77 98.2746 31.826C98.2186 31.882 98.1533 31.91 98.0786 31.91H96.7766ZM94.2566 29.53C94.8539 29.53 95.3439 29.3527 95.7266 28.998C96.1093 28.634 96.3146 28.046 96.3426 27.234C96.3613 26.8233 96.3706 26.4453 96.3706 26.1C96.3706 25.7453 96.3613 25.3673 96.3426 24.966C96.3333 24.4247 96.2353 23.986 96.0486 23.65C95.8619 23.3047 95.6146 23.0573 95.3066 22.908C95.0079 22.7493 94.6579 22.67 94.2566 22.67C93.8646 22.67 93.5146 22.7493 93.2066 22.908C92.8986 23.0573 92.6513 23.3047 92.4646 23.65C92.2873 23.986 92.1846 24.4247 92.1566 24.966C92.1473 25.3673 92.1426 25.7453 92.1426 26.1C92.1426 26.4453 92.1473 26.8233 92.1566 27.234C92.1939 28.046 92.4039 28.634 92.7866 28.998C93.1693 29.3527 93.6593 29.53 94.2566 29.53ZM105.251 31.14C104.439 31.14 103.734 31.0047 103.137 30.734C102.54 30.454 102.078 30.0293 101.751 29.46C101.424 28.8813 101.261 28.144 101.261 27.248V21.55C101.261 21.4473 101.294 21.3633 101.359 21.298C101.424 21.2327 101.504 21.2 101.597 21.2H102.871C102.974 21.2 103.053 21.2327 103.109 21.298C103.174 21.3633 103.207 21.4473 103.207 21.55V27.248C103.207 28.0133 103.389 28.5827 103.753 28.956C104.117 29.32 104.616 29.502 105.251 29.502C105.886 29.502 106.38 29.32 106.735 28.956C107.099 28.5827 107.281 28.0133 107.281 27.248V21.55C107.281 21.4473 107.314 21.3633 107.379 21.298C107.444 21.2327 107.528 21.2 107.631 21.2H108.891C108.994 21.2 109.073 21.2327 109.129 21.298C109.194 21.3633 109.227 21.4473 109.227 21.55V27.248C109.227 28.144 109.064 28.8813 108.737 29.46C108.42 30.0293 107.962 30.454 107.365 30.734C106.777 31.0047 106.072 31.14 105.251 31.14ZM112.781 31C112.688 31 112.609 30.9673 112.543 30.902C112.478 30.8367 112.445 30.7573 112.445 30.664V21.536C112.445 21.4427 112.478 21.3633 112.543 21.298C112.609 21.2327 112.688 21.2 112.781 21.2H114.097C114.2 21.2 114.279 21.2327 114.335 21.298C114.401 21.3633 114.433 21.4427 114.433 21.536V30.664C114.433 30.7573 114.401 30.8367 114.335 30.902C114.279 30.9673 114.2 31 114.097 31H112.781ZM117.539 31C117.446 31 117.366 30.9673 117.301 30.902C117.236 30.8367 117.203 30.7527 117.203 30.65V29.67C117.203 29.53 117.231 29.418 117.287 29.334C117.343 29.25 117.385 29.1893 117.413 29.152L122.285 22.852H117.679C117.576 22.852 117.492 22.8193 117.427 22.754C117.371 22.6887 117.343 22.6093 117.343 22.516V21.55C117.343 21.4473 117.371 21.3633 117.427 21.298C117.492 21.2327 117.576 21.2 117.679 21.2H124.371C124.474 21.2 124.558 21.2327 124.623 21.298C124.688 21.3633 124.721 21.4473 124.721 21.55V22.516C124.721 22.628 124.702 22.7213 124.665 22.796C124.628 22.8707 124.586 22.9407 124.539 23.006L119.765 29.334H124.525C124.628 29.334 124.712 29.3667 124.777 29.432C124.842 29.4973 124.875 29.5813 124.875 29.684V30.664C124.875 30.7573 124.842 30.8367 124.777 30.902C124.712 30.9673 124.628 31 124.525 31H117.539Z" fill="#660012"/>
<g clip-path="url(#clip0_302_1956)">
<path d="M31 57H30C28.8954 57 28 57.8954 28 59V62C28 63.1046 28.8954 64 30 64H31C32.1046 64 33 63.1046 33 62V59C33 57.8954 32.1046 57 31 57Z" fill="#660012" stroke="#660012" stroke-linecap="round" stroke-linejoin="round"/>
<path d="M42 57H41C39.8954 57 39 57.8954 39 59V62C39 63.1046 39.8954 64 41 64H42C43.1046 64 44 63.1046 44 62V59C44 57.8954 43.1046 57 42 57Z" fill="#660012" stroke="#660012" stroke-linecap="round" stroke-linejoin="round"/>
<path d="M28 59V56C28 53.8783 28.8429 51.8434 30.3431 50.3431C31.8434 48.8429 33.8783 48 36 48C38.1217 48 40.1566 48.8429 41.6569 50.3431C43.1571 51.8434 44 53.8783 44 56V59" stroke="#660012" stroke-linecap="round" stroke-linejoin="round"/>
</g>
<defs>
<clipPath id="clip0_302_1956">
<rect width="24" height="24" fill="white" transform="translate(24 44)"/>
</clipPath>
</defs>
</svg>
