<svg width="335" height="240" viewBox="0 0 335 240" fill="none" xmlns="http://www.w3.org/2000/svg">
<rect x="4" width="327" height="232" rx="20" fill="#9087E5"/>
<mask id="mask0_302_1955" style="mask-type:alpha" maskUnits="userSpaceOnUse" x="4" y="0" width="327" height="232">
<rect x="4" width="327" height="232" rx="20" fill="#6A5AE0"/>
</mask>
<g mask="url(#mask0_302_1955)">
<path opacity="0.1" fill-rule="evenodd" clip-rule="evenodd" d="M323.75 51C349.293 51 370 30.2932 370 4.75C370 -20.7932 349.293 -41.5 323.75 -41.5C298.207 -41.5 277.5 -20.7932 277.5 4.75C277.5 30.2932 298.207 51 323.75 51Z" fill="white"/>
<path opacity="0.2" fill-rule="evenodd" clip-rule="evenodd" d="M325 86C369.183 86 405 50.1828 405 6C405 -38.1828 369.183 -74 325 -74C280.817 -74 245 -38.1828 245 6C245 50.1828 280.817 86 325 86Z" stroke="white"/>
<path opacity="0.1" fill-rule="evenodd" clip-rule="evenodd" d="M6.75 265C32.2932 265 53 244.293 53 218.75C53 193.207 32.2932 172.5 6.75 172.5C-18.7932 172.5 -39.5 193.207 -39.5 218.75C-39.5 244.293 -18.7932 265 6.75 265Z" fill="white"/>
<path opacity="0.2" fill-rule="evenodd" clip-rule="evenodd" d="M8 300C52.1828 300 88 264.183 88 220C88 175.817 52.1828 140 8 140C-36.1828 140 -72 175.817 -72 220C-72 264.183 -36.1828 300 8 300Z" stroke="white"/>
</g>
<rect x="95" y="156" width="146" height="44" rx="20" fill="white"/>
<g clip-path="url(#clip0_302_1955)">
<path d="M121 180.5C122.381 180.5 123.5 179.381 123.5 178C123.5 176.619 122.381 175.5 121 175.5C119.619 175.5 118.5 176.619 118.5 178C118.5 179.381 119.619 180.5 121 180.5Z" stroke="#E049F4" stroke-width="2" stroke-linecap="round" stroke-linejoin="round"/>
<path d="M121 185.5V185.508" stroke="#E049F4" stroke-width="2" stroke-linecap="round" stroke-linejoin="round"/>
<path d="M113.5 175.5V175.508" stroke="#E049F4" stroke-width="2" stroke-linecap="round" stroke-linejoin="round"/>
<path d="M128.5 175.5V175.508" stroke="#E049F4" stroke-width="2" stroke-linecap="round" stroke-linejoin="round"/>
<path d="M117.667 184.75C116.529 184.195 115.551 183.362 114.823 182.327C114.094 181.293 113.639 180.091 113.5 178.833" stroke="#E049F4" stroke-width="2" stroke-linecap="round" stroke-linejoin="round"/>
<path d="M124.333 184.75C125.471 184.195 126.449 183.362 127.178 182.327C127.906 181.293 128.361 180.091 128.5 178.833" stroke="#E049F4" stroke-width="2" stroke-linecap="round" stroke-linejoin="round"/>
<path d="M116.167 172.167C117.507 171.07 119.185 170.471 120.917 170.471C122.648 170.471 124.327 171.07 125.667 172.167" stroke="#E049F4" stroke-width="2" stroke-linecap="round" stroke-linejoin="round"/>
</g>
<path d="M142.572 183C142.478 183 142.399 182.967 142.334 182.902C142.268 182.837 142.236 182.757 142.236 182.664V173.55C142.236 173.447 142.268 173.363 142.334 173.298C142.399 173.233 142.478 173.2 142.572 173.2H148.648C148.75 173.2 148.834 173.233 148.9 173.298C148.965 173.363 148.998 173.447 148.998 173.55V174.53C148.998 174.633 148.965 174.717 148.9 174.782C148.834 174.838 148.75 174.866 148.648 174.866H144.154V177.526H148.368C148.47 177.526 148.554 177.559 148.62 177.624C148.685 177.689 148.718 177.773 148.718 177.876V178.856C148.718 178.949 148.685 179.029 148.62 179.094C148.554 179.159 148.47 179.192 148.368 179.192H144.154V182.664C144.154 182.757 144.121 182.837 144.056 182.902C143.99 182.967 143.906 183 143.804 183H142.572ZM150.935 183C150.841 183 150.762 182.967 150.697 182.902C150.631 182.837 150.599 182.757 150.599 182.664V176.056C150.599 175.963 150.631 175.883 150.697 175.818C150.762 175.753 150.841 175.72 150.935 175.72H152.097C152.199 175.72 152.279 175.753 152.335 175.818C152.4 175.883 152.433 175.963 152.433 176.056V182.664C152.433 182.757 152.4 182.837 152.335 182.902C152.279 182.967 152.199 183 152.097 183H150.935ZM150.879 174.516C150.776 174.516 150.692 174.488 150.627 174.432C150.571 174.367 150.543 174.283 150.543 174.18V173.172C150.543 173.079 150.571 172.999 150.627 172.934C150.692 172.869 150.776 172.836 150.879 172.836H152.153C152.255 172.836 152.339 172.869 152.405 172.934C152.47 172.999 152.503 173.079 152.503 173.172V174.18C152.503 174.283 152.47 174.367 152.405 174.432C152.339 174.488 152.255 174.516 152.153 174.516H150.879ZM154.913 183C154.82 183 154.741 182.967 154.675 182.902C154.61 182.837 154.577 182.757 154.577 182.664V176.056C154.577 175.963 154.61 175.883 154.675 175.818C154.741 175.753 154.82 175.72 154.913 175.72H156.061C156.155 175.72 156.234 175.753 156.299 175.818C156.365 175.883 156.397 175.963 156.397 176.056V176.63C156.64 176.331 156.948 176.084 157.321 175.888C157.704 175.683 158.175 175.58 158.735 175.58C159.305 175.58 159.799 175.711 160.219 175.972C160.639 176.224 160.961 176.583 161.185 177.05C161.419 177.517 161.535 178.077 161.535 178.73V182.664C161.535 182.757 161.503 182.837 161.437 182.902C161.372 182.967 161.293 183 161.199 183H159.967C159.874 183 159.795 182.967 159.729 182.902C159.664 182.837 159.631 182.757 159.631 182.664V178.814C159.631 178.273 159.496 177.848 159.225 177.54C158.964 177.232 158.581 177.078 158.077 177.078C157.592 177.078 157.205 177.232 156.915 177.54C156.626 177.848 156.481 178.273 156.481 178.814V182.664C156.481 182.757 156.449 182.837 156.383 182.902C156.318 182.967 156.239 183 156.145 183H154.913ZM166.016 183.14C165.53 183.14 165.101 183.061 164.728 182.902C164.364 182.734 164.06 182.501 163.818 182.202C163.575 181.903 163.388 181.553 163.258 181.152C163.127 180.741 163.052 180.293 163.034 179.808C163.024 179.64 163.02 179.491 163.02 179.36C163.02 179.22 163.024 179.066 163.034 178.898C163.052 178.431 163.122 177.997 163.244 177.596C163.374 177.195 163.561 176.845 163.804 176.546C164.056 176.238 164.364 176 164.728 175.832C165.101 175.664 165.53 175.58 166.016 175.58C166.52 175.58 166.944 175.669 167.29 175.846C167.644 176.014 167.938 176.233 168.172 176.504V173.396C168.172 173.303 168.2 173.223 168.256 173.158C168.321 173.093 168.405 173.06 168.508 173.06H169.698C169.791 173.06 169.87 173.093 169.936 173.158C170.001 173.223 170.034 173.303 170.034 173.396V182.664C170.034 182.757 170.001 182.837 169.936 182.902C169.87 182.967 169.791 183 169.698 183H168.592C168.489 183 168.405 182.967 168.34 182.902C168.284 182.837 168.256 182.757 168.256 182.664V182.146C168.022 182.435 167.724 182.673 167.36 182.86C167.005 183.047 166.557 183.14 166.016 183.14ZM166.534 181.642C166.926 181.642 167.238 181.553 167.472 181.376C167.705 181.199 167.878 180.975 167.99 180.704C168.102 180.424 168.162 180.139 168.172 179.85C168.181 179.682 168.186 179.505 168.186 179.318C168.186 179.122 168.181 178.94 168.172 178.772C168.162 178.492 168.097 178.226 167.976 177.974C167.854 177.713 167.677 177.498 167.444 177.33C167.21 177.162 166.907 177.078 166.534 177.078C166.142 177.078 165.829 177.167 165.596 177.344C165.372 177.512 165.208 177.736 165.106 178.016C165.003 178.296 164.942 178.604 164.924 178.94C164.914 179.22 164.914 179.5 164.924 179.78C164.942 180.116 165.003 180.424 165.106 180.704C165.208 180.984 165.372 181.213 165.596 181.39C165.829 181.558 166.142 181.642 166.534 181.642ZM175.603 183C175.509 183 175.43 182.967 175.365 182.902C175.299 182.837 175.267 182.757 175.267 182.664V173.55C175.267 173.447 175.299 173.363 175.365 173.298C175.43 173.233 175.509 173.2 175.603 173.2H181.679C181.781 173.2 181.865 173.233 181.931 173.298C181.996 173.363 182.029 173.447 182.029 173.55V174.53C182.029 174.633 181.996 174.717 181.931 174.782C181.865 174.838 181.781 174.866 181.679 174.866H177.185V177.526H181.399C181.501 177.526 181.585 177.559 181.651 177.624C181.716 177.689 181.749 177.773 181.749 177.876V178.856C181.749 178.949 181.716 179.029 181.651 179.094C181.585 179.159 181.501 179.192 181.399 179.192H177.185V182.664C177.185 182.757 177.152 182.837 177.087 182.902C177.021 182.967 176.937 183 176.835 183H175.603ZM183.693 183C183.599 183 183.52 182.967 183.455 182.902C183.389 182.837 183.357 182.757 183.357 182.664V176.07C183.357 175.967 183.389 175.883 183.455 175.818C183.52 175.753 183.599 175.72 183.693 175.72H184.827C184.92 175.72 184.999 175.753 185.065 175.818C185.139 175.883 185.177 175.967 185.177 176.07V176.644C185.391 176.345 185.667 176.117 186.003 175.958C186.348 175.799 186.745 175.72 187.193 175.72H187.767C187.869 175.72 187.949 175.753 188.005 175.818C188.07 175.883 188.103 175.963 188.103 176.056V177.064C188.103 177.157 188.07 177.237 188.005 177.302C187.949 177.367 187.869 177.4 187.767 177.4H186.675C186.227 177.4 185.877 177.526 185.625 177.778C185.382 178.03 185.261 178.375 185.261 178.814V182.664C185.261 182.757 185.228 182.837 185.163 182.902C185.097 182.967 185.013 183 184.911 183H183.693ZM189.531 183C189.437 183 189.358 182.967 189.293 182.902C189.227 182.837 189.195 182.757 189.195 182.664V176.056C189.195 175.963 189.227 175.883 189.293 175.818C189.358 175.753 189.437 175.72 189.531 175.72H190.693C190.795 175.72 190.875 175.753 190.931 175.818C190.996 175.883 191.029 175.963 191.029 176.056V182.664C191.029 182.757 190.996 182.837 190.931 182.902C190.875 182.967 190.795 183 190.693 183H189.531ZM189.475 174.516C189.372 174.516 189.288 174.488 189.223 174.432C189.167 174.367 189.139 174.283 189.139 174.18V173.172C189.139 173.079 189.167 172.999 189.223 172.934C189.288 172.869 189.372 172.836 189.475 172.836H190.749C190.851 172.836 190.935 172.869 191.001 172.934C191.066 172.999 191.099 173.079 191.099 173.172V174.18C191.099 174.283 191.066 174.367 191.001 174.432C190.935 174.488 190.851 174.516 190.749 174.516H189.475ZM196.063 183.14C195.027 183.14 194.206 182.841 193.599 182.244C192.992 181.647 192.666 180.797 192.619 179.696C192.61 179.603 192.605 179.486 192.605 179.346C192.605 179.197 192.61 179.08 192.619 178.996C192.656 178.296 192.815 177.689 193.095 177.176C193.384 176.663 193.781 176.271 194.285 176C194.789 175.72 195.382 175.58 196.063 175.58C196.819 175.58 197.454 175.739 197.967 176.056C198.48 176.364 198.868 176.798 199.129 177.358C199.39 177.909 199.521 178.548 199.521 179.276V179.57C199.521 179.663 199.488 179.743 199.423 179.808C199.358 179.873 199.274 179.906 199.171 179.906H194.523C194.523 179.906 194.523 179.92 194.523 179.948C194.523 179.976 194.523 179.999 194.523 180.018C194.532 180.345 194.593 180.648 194.705 180.928C194.826 181.199 194.999 181.418 195.223 181.586C195.456 181.754 195.732 181.838 196.049 181.838C196.31 181.838 196.53 181.801 196.707 181.726C196.884 181.642 197.029 181.549 197.141 181.446C197.253 181.343 197.332 181.259 197.379 181.194C197.463 181.082 197.528 181.017 197.575 180.998C197.631 180.97 197.71 180.956 197.813 180.956H199.017C199.11 180.956 199.185 180.984 199.241 181.04C199.306 181.096 199.334 181.166 199.325 181.25C199.316 181.399 199.236 181.581 199.087 181.796C198.947 182.011 198.742 182.221 198.471 182.426C198.2 182.631 197.86 182.804 197.449 182.944C197.048 183.075 196.586 183.14 196.063 183.14ZM194.523 178.73H197.617V178.688C197.617 178.324 197.556 178.007 197.435 177.736C197.314 177.465 197.136 177.251 196.903 177.092C196.67 176.933 196.39 176.854 196.063 176.854C195.736 176.854 195.456 176.933 195.223 177.092C194.99 177.251 194.812 177.465 194.691 177.736C194.579 178.007 194.523 178.324 194.523 178.688V178.73ZM201.343 183C201.25 183 201.17 182.967 201.105 182.902C201.04 182.837 201.007 182.757 201.007 182.664V176.056C201.007 175.963 201.04 175.883 201.105 175.818C201.17 175.753 201.25 175.72 201.343 175.72H202.491C202.584 175.72 202.664 175.753 202.729 175.818C202.794 175.883 202.827 175.963 202.827 176.056V176.63C203.07 176.331 203.378 176.084 203.751 175.888C204.134 175.683 204.605 175.58 205.165 175.58C205.734 175.58 206.229 175.711 206.649 175.972C207.069 176.224 207.391 176.583 207.615 177.05C207.848 177.517 207.965 178.077 207.965 178.73V182.664C207.965 182.757 207.932 182.837 207.867 182.902C207.802 182.967 207.722 183 207.629 183H206.397C206.304 183 206.224 182.967 206.159 182.902C206.094 182.837 206.061 182.757 206.061 182.664V178.814C206.061 178.273 205.926 177.848 205.655 177.54C205.394 177.232 205.011 177.078 204.507 177.078C204.022 177.078 203.634 177.232 203.345 177.54C203.056 177.848 202.911 178.273 202.911 178.814V182.664C202.911 182.757 202.878 182.837 202.813 182.902C202.748 182.967 202.668 183 202.575 183H201.343ZM212.445 183.14C211.96 183.14 211.531 183.061 211.157 182.902C210.793 182.734 210.49 182.501 210.247 182.202C210.005 181.903 209.818 181.553 209.687 181.152C209.557 180.741 209.482 180.293 209.463 179.808C209.454 179.64 209.449 179.491 209.449 179.36C209.449 179.22 209.454 179.066 209.463 178.898C209.482 178.431 209.552 177.997 209.673 177.596C209.804 177.195 209.991 176.845 210.233 176.546C210.485 176.238 210.793 176 211.157 175.832C211.531 175.664 211.96 175.58 212.445 175.58C212.949 175.58 213.374 175.669 213.719 175.846C214.074 176.014 214.368 176.233 214.601 176.504V173.396C214.601 173.303 214.629 173.223 214.685 173.158C214.751 173.093 214.835 173.06 214.937 173.06H216.127C216.221 173.06 216.3 173.093 216.365 173.158C216.431 173.223 216.463 173.303 216.463 173.396V182.664C216.463 182.757 216.431 182.837 216.365 182.902C216.3 182.967 216.221 183 216.127 183H215.021C214.919 183 214.835 182.967 214.769 182.902C214.713 182.837 214.685 182.757 214.685 182.664V182.146C214.452 182.435 214.153 182.673 213.789 182.86C213.435 183.047 212.987 183.14 212.445 183.14ZM212.963 181.642C213.355 181.642 213.668 181.553 213.901 181.376C214.135 181.199 214.307 180.975 214.419 180.704C214.531 180.424 214.592 180.139 214.601 179.85C214.611 179.682 214.615 179.505 214.615 179.318C214.615 179.122 214.611 178.94 214.601 178.772C214.592 178.492 214.527 178.226 214.405 177.974C214.284 177.713 214.107 177.498 213.873 177.33C213.64 177.162 213.337 177.078 212.963 177.078C212.571 177.078 212.259 177.167 212.025 177.344C211.801 177.512 211.638 177.736 211.535 178.016C211.433 178.296 211.372 178.604 211.353 178.94C211.344 179.22 211.344 179.5 211.353 179.78C211.372 180.116 211.433 180.424 211.535 180.704C211.638 180.984 211.801 181.213 212.025 181.39C212.259 181.558 212.571 181.642 212.963 181.642ZM221.087 183.14C220.527 183.14 220.047 183.075 219.645 182.944C219.253 182.813 218.931 182.65 218.679 182.454C218.427 182.258 218.241 182.062 218.119 181.866C217.998 181.67 217.933 181.507 217.923 181.376C217.914 181.273 217.942 181.194 218.007 181.138C218.082 181.073 218.161 181.04 218.245 181.04H219.351C219.389 181.04 219.421 181.045 219.449 181.054C219.477 181.063 219.515 181.091 219.561 181.138C219.683 181.241 219.809 181.348 219.939 181.46C220.079 181.572 220.243 181.67 220.429 181.754C220.616 181.829 220.849 181.866 221.129 181.866C221.493 181.866 221.797 181.796 222.039 181.656C222.291 181.507 222.417 181.297 222.417 181.026C222.417 180.83 222.361 180.671 222.249 180.55C222.147 180.429 221.951 180.321 221.661 180.228C221.372 180.125 220.961 180.018 220.429 179.906C219.907 179.785 219.473 179.631 219.127 179.444C218.782 179.257 218.525 179.024 218.357 178.744C218.189 178.464 218.105 178.137 218.105 177.764C218.105 177.4 218.213 177.055 218.427 176.728C218.651 176.392 218.978 176.117 219.407 175.902C219.846 175.687 220.387 175.58 221.031 175.58C221.535 175.58 221.974 175.645 222.347 175.776C222.721 175.897 223.029 176.051 223.271 176.238C223.523 176.425 223.715 176.616 223.845 176.812C223.976 176.999 224.046 177.162 224.055 177.302C224.065 177.405 224.037 177.489 223.971 177.554C223.906 177.61 223.831 177.638 223.747 177.638H222.711C222.665 177.638 222.623 177.629 222.585 177.61C222.548 177.591 222.511 177.568 222.473 177.54C222.371 177.447 222.259 177.349 222.137 177.246C222.016 177.143 221.867 177.055 221.689 176.98C221.521 176.896 221.297 176.854 221.017 176.854C220.663 176.854 220.392 176.933 220.205 177.092C220.019 177.241 219.925 177.433 219.925 177.666C219.925 177.825 219.967 177.965 220.051 178.086C220.145 178.198 220.327 178.305 220.597 178.408C220.868 178.511 221.279 178.618 221.829 178.73C222.455 178.842 222.949 179.01 223.313 179.234C223.687 179.449 223.948 179.701 224.097 179.99C224.256 180.27 224.335 180.583 224.335 180.928C224.335 181.348 224.209 181.726 223.957 182.062C223.715 182.398 223.351 182.664 222.865 182.86C222.389 183.047 221.797 183.14 221.087 183.14Z" fill="#E049F4"/>
<path d="M315.797 164.75C315.407 168.801 314.134 172.717 312.069 176.224C310.004 179.73 307.198 182.743 303.846 185.05C300.494 187.358 296.677 188.904 292.664 189.58C288.652 190.256 284.54 190.046 280.616 188.965C276.694 187.884 273.055 185.958 269.954 183.321C266.855 180.685 264.369 177.402 262.671 173.703C260.975 170.005 260.107 165.98 260.131 161.91C260.154 157.841 261.067 153.826 262.807 150.147C267.695 139.837 278.656 133.182 290.672 134.329C306.014 135.792 317.264 149.413 315.797 164.75Z" fill="#C4D0FB"/>
<path d="M260.925 147.846L261.643 146.54C261.946 145.887 262.214 145.22 262.448 144.54C262.81 143.473 262.683 141.953 264.27 140.516C265.856 139.08 263.51 139.477 262.717 140.139C262.056 140.69 261.519 142.256 260.861 142.609C260.711 142.396 260.592 142.163 260.508 141.917L259.071 135.182C259.05 135.075 258.991 134.978 258.905 134.91C258.818 134.842 258.71 134.808 258.601 134.813L258.337 134.821C258.274 134.825 258.211 134.841 258.154 134.87C258.097 134.899 258.047 134.94 258.007 134.989C257.965 135.039 257.936 135.096 257.92 135.158C257.902 135.219 257.898 135.284 257.908 135.347C258.129 136.788 258.897 141.075 258.819 141.077L258.66 141.153L256.456 134.331C256.426 134.223 256.356 134.131 256.262 134.071C256.167 134.011 256.054 133.988 255.944 134.006L255.591 134.065C255.53 134.075 255.471 134.097 255.419 134.13C255.366 134.163 255.321 134.206 255.286 134.257C255.252 134.309 255.227 134.366 255.215 134.427C255.204 134.488 255.205 134.55 255.218 134.611C255.557 136.18 257.141 141.401 257.061 141.406L256.867 141.471L254.476 135.826C254.443 135.713 254.367 135.618 254.265 135.559C254.164 135.501 254.044 135.483 253.93 135.511L253.649 135.58C253.59 135.594 253.535 135.62 253.486 135.656C253.438 135.691 253.397 135.736 253.365 135.788C253.335 135.839 253.314 135.897 253.304 135.956C253.295 136.016 253.298 136.077 253.312 136.135L255.464 141.689L255.266 141.814L253.012 137.802C252.969 137.698 252.889 137.615 252.788 137.566C252.688 137.518 252.573 137.508 252.464 137.538L252.33 137.578C252.215 137.612 252.119 137.689 252.06 137.793C252.001 137.897 251.984 138.02 252.015 138.136C252.231 138.959 253.309 140.687 253.936 142.488C254.426 143.883 254.46 145 255.27 146.689C255.611 147.405 256.26 148.256 256.614 148.73" fill="#FFCCD7"/>
<path d="M301.79 186.37C296.559 189.336 290.51 190.532 284.544 189.782C278.578 189.031 273.013 186.373 268.68 182.204L269.017 173.579L258.219 171.796C256.626 171.358 255.24 170.367 254.312 168.999C253.384 167.632 252.974 165.979 253.155 164.336L254.038 147.406L262.569 147.995L262.804 150.149L264.123 161.521C264.123 161.521 273.048 162.637 285.227 165.755C297.083 168.791 300.575 179.319 301.79 186.37Z" fill="#E049F4"/>
<path d="M268.899 173.47L268.999 170.53" stroke="#C4D0FB" stroke-linecap="square"/>
<path d="M292.501 155.198C295.77 151.029 295.305 145.205 291.46 142.19C287.616 139.174 281.848 140.109 278.578 144.277C275.308 148.446 275.774 154.27 279.619 157.285C283.464 160.301 289.231 159.366 292.501 155.198Z" fill="#001833"/>
<path d="M279.611 169.126C278.969 168.661 278.496 168 278.264 167.242C278.031 166.485 278.052 165.672 278.323 164.927L282.569 153.269C282.714 152.796 282.954 152.357 283.273 151.98C283.592 151.603 283.986 151.294 284.428 151.074C284.872 150.853 285.354 150.725 285.848 150.697C286.342 150.668 286.836 150.741 287.301 150.91C287.766 151.079 288.191 151.341 288.552 151.68C288.912 152.018 289.2 152.427 289.398 152.88C289.595 153.334 289.699 153.823 289.701 154.317C289.704 154.812 289.606 155.302 289.413 155.758L285.166 167.417C284.972 167.946 284.659 168.422 284.251 168.81C283.843 169.197 283.35 169.484 282.812 169.65C282.274 169.815 281.704 169.853 281.149 169.762C280.594 169.67 280.067 169.451 279.611 169.123V169.126Z" fill="#FFCCD7"/>
<path d="M280.332 162.625L279.626 162.363C278.805 162.058 278.062 161.576 277.449 160.952C276.835 160.327 276.368 159.575 276.078 158.749C275.788 157.923 275.685 157.043 275.774 156.172C275.863 155.301 276.143 154.461 276.594 153.711L278.829 149.994C279.55 148.794 280.671 147.886 281.995 147.43C283.318 146.974 284.76 146.999 286.068 147.501C287.543 148.067 288.732 149.195 289.375 150.639C290.018 152.082 290.061 153.721 289.495 155.196L287.966 159.175C287.404 160.64 286.288 161.824 284.858 162.469C283.429 163.115 281.802 163.171 280.332 162.625Z" fill="#FFCCD7"/>
<path d="M280.895 152.103L277.836 154.587L279.037 155.489" stroke="#24272D" stroke-linecap="square"/>
<path d="M281.673 153.858C282.029 153.858 282.318 153.569 282.318 153.212C282.318 152.855 282.029 152.566 281.673 152.566C281.316 152.566 281.027 152.855 281.027 153.212C281.027 153.569 281.316 153.858 281.673 153.858Z" fill="#24272D"/>
<path d="M278.987 152.499C279.343 152.499 279.633 152.21 279.633 151.853C279.633 151.497 279.343 151.208 278.987 151.208C278.631 151.208 278.341 151.497 278.341 151.853C278.341 152.21 278.631 152.499 278.987 152.499Z" fill="#24272D"/>
<path d="M298.563 172.525C298.563 172.525 295.584 179.981 289.784 176.669C280.18 171.184 282.152 163.972 284.86 160.673C285.939 159.359 287.448 158.777 289.023 158.299C284.444 154.261 286.695 151.046 286.695 151.046C286.695 151.046 274.448 150.259 278.409 144.45C282.369 138.64 289.442 139.401 293.192 141.924C301.908 147.791 298.941 153.771 300.93 155.973C312.206 168.467 298.563 172.525 298.563 172.525Z" fill="#001833"/>
<path d="M290.309 158.811C291.576 158.041 291.978 156.39 291.208 155.124C290.439 153.858 288.788 153.456 287.522 154.226L285.438 155.493C284.172 156.263 283.77 157.913 284.539 159.179C285.309 160.445 286.96 160.848 288.225 160.078L290.309 158.811Z" fill="#FFCCD7"/>
<path d="M289.74 156.133L286.783 157.929" stroke="#24272D" stroke-linecap="square"/>
<path d="M280.819 157.309C280.849 157.72 280.716 158.126 280.448 158.439C280.179 158.751 279.798 158.945 279.386 158.976C278.976 159.007 278.569 158.874 278.257 158.605C277.944 158.337 277.75 157.955 277.719 157.544C277.653 156.688 278.52 156.696 279.375 156.63C280.23 156.564 280.753 156.452 280.819 157.309Z" fill="#24272D"/>
<path d="M67.8897 42.2817C67.5544 45.7671 66.4606 49.1369 64.6848 52.1549C62.9091 55.1727 60.4944 57.7654 57.6105 59.7511C54.7264 61.7368 51.4429 63.0674 47.99 63.6496C44.5372 64.2318 40.9989 64.0513 37.6233 63.1209C34.2475 62.1906 31.1164 60.5328 28.4492 58.2641C25.7822 55.9952 23.6439 53.1703 22.1844 49.9875C20.7248 46.8047 19.9794 43.3411 20.0004 39.8396C20.0215 36.3381 20.8084 32.8836 22.306 29.7186C26.5113 20.8467 35.9396 15.1237 46.2777 16.1103C59.4732 17.369 69.1494 29.0872 67.8897 42.2817Z" fill="#C4D0FB"/>
<path d="M59.3871 58.4185L58.5533 59.0853C57.69 59.7439 56.7834 60.3436 55.8395 60.8803C53.0441 62.4647 49.9591 63.4718 46.7672 63.842C43.5755 64.2121 40.3418 63.9378 37.258 63.0352C34.1741 62.1327 31.3029 60.6204 28.8142 58.5877C26.3257 56.5551 24.2704 54.0436 22.7704 51.202C26.581 48.4012 32.9607 45.055 41.1212 45.738C54.771 46.8865 59.3871 58.4185 59.3871 58.4185Z" fill="#E049F4"/>
<path d="M43.1238 51.4276C42.9702 51.428 42.8169 51.4189 42.6645 51.4003C41.6519 51.2797 40.7288 50.7619 40.0981 49.9607C39.4673 49.1596 39.1807 48.1408 39.3011 47.1283L41.1224 31.8079C41.2431 30.7952 41.7612 29.872 42.5627 29.2413C42.9595 28.9291 43.4139 28.6981 43.9 28.5614C44.3862 28.4248 44.8945 28.3852 45.3959 28.445C45.8973 28.5048 46.3821 28.6628 46.8224 28.91C47.2628 29.1571 47.6501 29.4885 47.9624 29.8853C48.2746 30.2821 48.5058 30.7367 48.6424 31.2227C48.7791 31.7088 48.8186 32.2172 48.7588 32.7186L46.9375 48.0389C46.8259 48.9724 46.3763 49.8324 45.6736 50.4568C44.9709 51.0812 44.0639 51.4266 43.1238 51.4276Z" fill="#FFCCD7"/>
<path d="M46.3424 43.6011L47.1579 43.6922C48.1062 43.7991 49.0665 43.6957 49.9704 43.3893C50.8742 43.0829 51.6995 42.5811 52.3873 41.9195C53.0752 41.258 53.6088 40.4529 53.9501 39.5616C54.2914 38.6704 54.4322 37.7149 54.3622 36.763L54.0162 32.0478C53.9043 30.525 53.2595 29.0902 52.195 27.9955C51.1304 26.9008 49.7141 26.2161 48.195 26.0617C46.4813 25.8879 44.7687 26.4019 43.4339 27.4908C42.0992 28.5796 41.2517 30.1541 41.0777 31.8677L40.6082 36.4908C40.4354 38.1923 40.9406 39.8931 42.0142 41.2243C43.0877 42.5554 44.643 43.4094 46.3424 43.6011Z" fill="#FFCCD7"/>
<path d="M42.5647 38.5894L42.5655 38.5888C43.6889 37.8978 44.0393 36.427 43.3482 35.3036L42.6383 34.1497C41.9472 33.0265 40.4764 32.6761 39.3531 33.3671L39.3522 33.3676C38.229 34.0587 37.8786 35.5295 38.5696 36.6527L39.2796 37.8067C39.9706 38.93 41.4414 39.2804 42.5647 38.5894Z" fill="#FFCCD7"/>
<path d="M39.6218 35.2329L41.5362 37.2566" stroke="#001833" stroke-width="0.5" stroke-linecap="square"/>
<path d="M51.005 32.647L51.1395 36.4363L49.7917 36.491" stroke="#001833" stroke-width="0.5" stroke-linecap="square"/>
<path d="M46.99 37.6676C46.8786 37.8735 46.8089 38.0995 46.7847 38.3324C46.7607 38.5653 46.7826 38.8007 46.8495 39.0251C46.9163 39.2495 47.0268 39.4586 47.1744 39.6403C47.322 39.8221 47.5041 39.973 47.71 40.0844C47.916 40.1958 48.1418 40.2656 48.3748 40.2897C48.6077 40.3138 48.843 40.2918 49.0675 40.225C49.2919 40.1582 49.5009 40.0477 49.6827 39.9001C49.8645 39.7524 50.0154 39.5705 50.1268 39.3645C50.5952 38.4973 49.6836 38.1017 48.8114 37.6332C47.9392 37.1647 47.4585 36.8015 46.99 37.6676Z" fill="#001833"/>
<path d="M43.0661 36.9827L44.8874 30.1416L45.3195 28.5227C45.7255 28.9578 46.2007 29.3226 46.726 29.6023C48.6323 30.6283 54.3796 30.2195 55.1759 26.1894C55.8255 22.9029 52.3356 24.792 50.5487 24.5866C47.7409 24.2628 45.793 22.6105 41.948 24.6878C37.3492 27.1759 39.5277 33.2753 39.5277 33.2753C39.5277 33.2753 41.5514 32.483 43.0661 36.9827Z" fill="#001833"/>
<path opacity="0.4" d="M47.3613 43.7123L44.9258 43.4907L47.1498 45.6611L47.3613 43.7123Z" fill="#24272D"/>
<path d="M48.4097 34.6939C48.779 34.6939 49.0785 34.3945 49.0785 34.025C49.0785 33.6556 48.779 33.3562 48.4097 33.3562C48.0403 33.3562 47.7408 33.6556 47.7408 34.025C47.7408 34.3945 48.0403 34.6939 48.4097 34.6939Z" fill="#001833"/>
<path d="M52.3995 34.6939C52.769 34.6939 53.0684 34.3945 53.0684 34.025C53.0684 33.6556 52.769 33.3562 52.3995 33.3562C52.0301 33.3562 51.7307 33.6556 51.7307 34.025C51.7307 34.3945 52.0301 34.6939 52.3995 34.6939Z" fill="#001833"/>
<path opacity="0.8" d="M129.428 47C129.335 47 129.255 46.9673 129.19 46.902C129.125 46.8367 129.092 46.7573 129.092 46.664V37.55C129.092 37.4473 129.125 37.3633 129.19 37.298C129.255 37.2327 129.335 37.2 129.428 37.2H135.504C135.607 37.2 135.691 37.2327 135.756 37.298C135.821 37.3633 135.854 37.4473 135.854 37.55V38.53C135.854 38.6327 135.821 38.7167 135.756 38.782C135.691 38.838 135.607 38.866 135.504 38.866H131.01V41.526H135.224C135.327 41.526 135.411 41.5587 135.476 41.624C135.541 41.6893 135.574 41.7733 135.574 41.876V42.856C135.574 42.9493 135.541 43.0287 135.476 43.094C135.411 43.1593 135.327 43.192 135.224 43.192H131.01V46.664C131.01 46.7573 130.977 46.8367 130.912 46.902C130.847 46.9673 130.763 47 130.66 47H129.428ZM138.956 47C138.863 47 138.784 46.9673 138.718 46.902C138.653 46.8367 138.62 46.7573 138.62 46.664V37.55C138.62 37.4473 138.653 37.3633 138.718 37.298C138.784 37.2327 138.863 37.2 138.956 37.2H145.116C145.219 37.2 145.303 37.2327 145.368 37.298C145.434 37.3633 145.466 37.4473 145.466 37.55V38.474C145.466 38.5673 145.434 38.6467 145.368 38.712C145.303 38.7773 145.219 38.81 145.116 38.81H140.51V41.288H144.808C144.911 41.288 144.995 41.3207 145.06 41.386C145.126 41.442 145.158 41.5213 145.158 41.624V42.492C145.158 42.5947 145.126 42.6787 145.06 42.744C144.995 42.8 144.911 42.828 144.808 42.828H140.51V45.39H145.228C145.331 45.39 145.415 45.4227 145.48 45.488C145.546 45.5533 145.578 45.6373 145.578 45.74V46.664C145.578 46.7573 145.546 46.8367 145.48 46.902C145.415 46.9673 145.331 47 145.228 47H138.956ZM147.847 47C147.773 47 147.703 46.972 147.637 46.916C147.581 46.86 147.553 46.79 147.553 46.706C147.553 46.6687 147.563 46.6267 147.581 46.58L150.955 37.55C150.983 37.4567 151.035 37.3773 151.109 37.312C151.193 37.2373 151.305 37.2 151.445 37.2H152.971C153.111 37.2 153.219 37.2373 153.293 37.312C153.368 37.3773 153.424 37.4567 153.461 37.55L156.835 46.58C156.845 46.6267 156.849 46.6687 156.849 46.706C156.849 46.79 156.821 46.86 156.765 46.916C156.709 46.972 156.644 47 156.569 47H155.351C155.221 47 155.123 46.972 155.057 46.916C155.001 46.8507 154.964 46.79 154.945 46.734L154.287 45.026H150.129L149.471 46.734C149.453 46.79 149.411 46.8507 149.345 46.916C149.289 46.972 149.196 47 149.065 47H147.847ZM150.619 43.416H153.797L152.201 39.09L150.619 43.416ZM160.743 47C160.649 47 160.57 46.9673 160.505 46.902C160.439 46.8367 160.407 46.7573 160.407 46.664V38.922H157.817C157.723 38.922 157.644 38.8893 157.579 38.824C157.513 38.7587 157.481 38.6793 157.481 38.586V37.55C157.481 37.4473 157.513 37.3633 157.579 37.298C157.644 37.2327 157.723 37.2 157.817 37.2H164.957C165.059 37.2 165.143 37.2327 165.209 37.298C165.274 37.3633 165.307 37.4473 165.307 37.55V38.586C165.307 38.6793 165.274 38.7587 165.209 38.824C165.143 38.8893 165.059 38.922 164.957 38.922H162.381V46.664C162.381 46.7573 162.348 46.8367 162.283 46.902C162.217 46.9673 162.133 47 162.031 47H160.743ZM171.753 47.14C170.941 47.14 170.237 47.0047 169.639 46.734C169.042 46.454 168.58 46.0293 168.253 45.46C167.927 44.8813 167.763 44.144 167.763 43.248V37.55C167.763 37.4473 167.796 37.3633 167.861 37.298C167.927 37.2327 168.006 37.2 168.099 37.2H169.373C169.476 37.2 169.555 37.2327 169.611 37.298C169.677 37.3633 169.709 37.4473 169.709 37.55V43.248C169.709 44.0133 169.891 44.5827 170.255 44.956C170.619 45.32 171.119 45.502 171.753 45.502C172.388 45.502 172.883 45.32 173.237 44.956C173.601 44.5827 173.783 44.0133 173.783 43.248V37.55C173.783 37.4473 173.816 37.3633 173.881 37.298C173.947 37.2327 174.031 37.2 174.133 37.2H175.393C175.496 37.2 175.575 37.2327 175.631 37.298C175.697 37.3633 175.729 37.4473 175.729 37.55V43.248C175.729 44.144 175.566 44.8813 175.239 45.46C174.922 46.0293 174.465 46.454 173.867 46.734C173.279 47.0047 172.575 47.14 171.753 47.14ZM179.284 47C179.191 47 179.111 46.9673 179.046 46.902C178.981 46.8367 178.948 46.7573 178.948 46.664V37.55C178.948 37.4473 178.981 37.3633 179.046 37.298C179.111 37.2327 179.191 37.2 179.284 37.2H182.91C184.039 37.2 184.931 37.4613 185.584 37.984C186.237 38.5067 186.564 39.2673 186.564 40.266C186.564 40.9567 186.391 41.5307 186.046 41.988C185.71 42.4453 185.257 42.7767 184.688 42.982L186.732 46.552C186.76 46.608 186.774 46.6593 186.774 46.706C186.774 46.79 186.741 46.86 186.676 46.916C186.62 46.972 186.555 47 186.48 47H185.206C185.047 47 184.926 46.958 184.842 46.874C184.758 46.79 184.693 46.706 184.646 46.622L182.84 43.304H180.894V46.664C180.894 46.7573 180.861 46.8367 180.796 46.902C180.74 46.9673 180.661 47 180.558 47H179.284ZM180.894 41.722H182.868C183.437 41.722 183.862 41.596 184.142 41.344C184.422 41.0827 184.562 40.7187 184.562 40.252C184.562 39.7853 184.422 39.4213 184.142 39.16C183.871 38.8893 183.447 38.754 182.868 38.754H180.894V41.722ZM189.824 47C189.73 47 189.651 46.9673 189.586 46.902C189.52 46.8367 189.488 46.7573 189.488 46.664V37.55C189.488 37.4473 189.52 37.3633 189.586 37.298C189.651 37.2327 189.73 37.2 189.824 37.2H195.984C196.086 37.2 196.17 37.2327 196.236 37.298C196.301 37.3633 196.334 37.4473 196.334 37.55V38.474C196.334 38.5673 196.301 38.6467 196.236 38.712C196.17 38.7773 196.086 38.81 195.984 38.81H191.378V41.288H195.676C195.778 41.288 195.862 41.3207 195.928 41.386C195.993 41.442 196.026 41.5213 196.026 41.624V42.492C196.026 42.5947 195.993 42.6787 195.928 42.744C195.862 42.8 195.778 42.828 195.676 42.828H191.378V45.39H196.096C196.198 45.39 196.282 45.4227 196.348 45.488C196.413 45.5533 196.446 45.6373 196.446 45.74V46.664C196.446 46.7573 196.413 46.8367 196.348 46.902C196.282 46.9673 196.198 47 196.096 47H189.824ZM199.653 47C199.559 47 199.48 46.9673 199.415 46.902C199.349 46.8367 199.317 46.7573 199.317 46.664V37.55C199.317 37.4473 199.349 37.3633 199.415 37.298C199.48 37.2327 199.559 37.2 199.653 37.2H203.069C204.011 37.2 204.786 37.3447 205.393 37.634C206.009 37.9233 206.471 38.3527 206.779 38.922C207.096 39.4913 207.259 40.1867 207.269 41.008C207.287 41.4187 207.297 41.7827 207.297 42.1C207.297 42.4173 207.287 42.7767 207.269 43.178C207.25 44.046 207.091 44.7647 206.793 45.334C206.494 45.894 206.041 46.314 205.435 46.594C204.837 46.8647 204.072 47 203.139 47H199.653ZM201.263 45.39H203.069C203.591 45.39 204.016 45.3153 204.343 45.166C204.669 45.0167 204.907 44.7787 205.057 44.452C205.215 44.116 205.299 43.6773 205.309 43.136C205.318 42.856 205.323 42.6133 205.323 42.408C205.332 42.1933 205.332 41.9833 205.323 41.778C205.323 41.5633 205.318 41.3207 205.309 41.05C205.29 40.2847 205.099 39.72 204.735 39.356C204.371 38.992 203.792 38.81 202.999 38.81H201.263V45.39Z" fill="white"/>
<path d="M72.4146 86C72.2946 86 72.1926 85.958 72.1086 85.874C72.0246 85.79 71.9826 85.688 71.9826 85.568V75.614H68.6526C68.5326 75.614 68.4306 75.572 68.3466 75.488C68.2626 75.404 68.2206 75.302 68.2206 75.182V73.85C68.2206 73.718 68.2626 73.61 68.3466 73.526C68.4306 73.442 68.5326 73.4 68.6526 73.4H77.8326C77.9646 73.4 78.0726 73.442 78.1566 73.526C78.2406 73.61 78.2826 73.718 78.2826 73.85V75.182C78.2826 75.302 78.2406 75.404 78.1566 75.488C78.0726 75.572 77.9646 75.614 77.8326 75.614H74.5206V85.568C74.5206 85.688 74.4786 85.79 74.3946 85.874C74.3106 85.958 74.2026 86 74.0706 86H72.4146ZM80.9939 86.18C80.3699 86.18 79.8059 86.06 79.3019 85.82C78.7979 85.568 78.3959 85.238 78.0959 84.83C77.8079 84.41 77.6639 83.942 77.6639 83.426C77.6639 82.586 77.9999 81.92 78.6719 81.428C79.3559 80.924 80.2559 80.588 81.3719 80.42L83.8379 80.06V79.682C83.8379 79.178 83.7119 78.788 83.4599 78.512C83.2079 78.236 82.7759 78.098 82.1639 78.098C81.7319 78.098 81.3779 78.188 81.1019 78.368C80.8379 78.536 80.6399 78.764 80.5079 79.052C80.4119 79.208 80.2739 79.286 80.0939 79.286H78.6719C78.5399 79.286 78.4379 79.25 78.3659 79.178C78.3059 79.106 78.2759 79.01 78.2759 78.89C78.2879 78.698 78.3659 78.464 78.5099 78.188C78.6539 77.912 78.8819 77.648 79.1939 77.396C79.5059 77.132 79.9079 76.91 80.3999 76.73C80.8919 76.55 81.4859 76.46 82.1819 76.46C82.9379 76.46 83.5739 76.556 84.0899 76.748C84.6179 76.928 85.0379 77.174 85.3499 77.486C85.6619 77.798 85.8899 78.164 86.0339 78.584C86.1779 79.004 86.2499 79.448 86.2499 79.916V85.568C86.2499 85.688 86.2079 85.79 86.1239 85.874C86.0399 85.958 85.9379 86 85.8179 86H84.3599C84.2279 86 84.1199 85.958 84.0359 85.874C83.9639 85.79 83.9279 85.688 83.9279 85.568V84.866C83.7719 85.094 83.5619 85.31 83.2979 85.514C83.0339 85.706 82.7099 85.868 82.3259 86C81.9539 86.12 81.5099 86.18 80.9939 86.18ZM81.6059 84.47C82.0259 84.47 82.4039 84.38 82.7399 84.2C83.0879 84.02 83.3579 83.744 83.5499 83.372C83.7539 82.988 83.8559 82.508 83.8559 81.932V81.554L82.0559 81.842C81.3479 81.95 80.8199 82.124 80.4719 82.364C80.1239 82.604 79.9499 82.898 79.9499 83.246C79.9499 83.51 80.0279 83.738 80.1839 83.93C80.3519 84.11 80.5619 84.248 80.8139 84.344C81.0659 84.428 81.3299 84.47 81.6059 84.47ZM89.0091 86C88.8891 86 88.7871 85.958 88.7031 85.874C88.6191 85.79 88.5771 85.688 88.5771 85.568V73.652C88.5771 73.532 88.6191 73.43 88.7031 73.346C88.7871 73.262 88.8891 73.22 89.0091 73.22H90.4671C90.5991 73.22 90.7011 73.262 90.7731 73.346C90.8571 73.43 90.8991 73.532 90.8991 73.652V79.808L93.9231 76.946C94.0311 76.85 94.1271 76.778 94.2111 76.73C94.2951 76.67 94.4211 76.64 94.5891 76.64H96.2631C96.3831 76.64 96.4791 76.676 96.5511 76.748C96.6231 76.82 96.6591 76.916 96.6591 77.036C96.6591 77.084 96.6471 77.138 96.6231 77.198C96.5991 77.258 96.5511 77.312 96.4791 77.36L92.7711 80.834L96.9291 85.298C97.0491 85.418 97.1091 85.52 97.1091 85.604C97.1091 85.724 97.0671 85.82 96.9831 85.892C96.9111 85.964 96.8211 86 96.7131 86H95.0031C94.8231 86 94.6911 85.976 94.6071 85.928C94.5351 85.868 94.4451 85.79 94.3371 85.694L90.8991 82.076V85.568C90.8991 85.688 90.8571 85.79 90.7731 85.874C90.7011 85.958 90.5991 86 90.4671 86H89.0091ZM102.048 86.18C100.716 86.18 99.6601 85.796 98.8801 85.028C98.1001 84.26 97.6801 83.168 97.6201 81.752C97.6081 81.632 97.6021 81.482 97.6021 81.302C97.6021 81.11 97.6081 80.96 97.6201 80.852C97.6681 79.952 97.8721 79.172 98.2321 78.512C98.6041 77.852 99.1141 77.348 99.7621 77C100.41 76.64 101.172 76.46 102.048 76.46C103.02 76.46 103.836 76.664 104.496 77.072C105.156 77.468 105.654 78.026 105.99 78.746C106.326 79.454 106.494 80.276 106.494 81.212V81.59C106.494 81.71 106.452 81.812 106.368 81.896C106.284 81.98 106.176 82.022 106.044 82.022H100.068C100.068 82.022 100.068 82.04 100.068 82.076C100.068 82.112 100.068 82.142 100.068 82.166C100.08 82.586 100.158 82.976 100.302 83.336C100.458 83.684 100.68 83.966 100.968 84.182C101.268 84.398 101.622 84.506 102.03 84.506C102.366 84.506 102.648 84.458 102.876 84.362C103.104 84.254 103.29 84.134 103.434 84.002C103.578 83.87 103.68 83.762 103.74 83.678C103.848 83.534 103.932 83.45 103.992 83.426C104.064 83.39 104.166 83.372 104.298 83.372H105.846C105.966 83.372 106.062 83.408 106.134 83.48C106.218 83.552 106.254 83.642 106.242 83.75C106.23 83.942 106.128 84.176 105.936 84.452C105.756 84.728 105.492 84.998 105.144 85.262C104.796 85.526 104.358 85.748 103.83 85.928C103.314 86.096 102.72 86.18 102.048 86.18ZM100.068 80.51H104.046V80.456C104.046 79.988 103.968 79.58 103.812 79.232C103.656 78.884 103.428 78.608 103.128 78.404C102.828 78.2 102.468 78.098 102.048 78.098C101.628 78.098 101.268 78.2 100.968 78.404C100.668 78.608 100.44 78.884 100.284 79.232C100.14 79.58 100.068 79.988 100.068 80.456V80.51ZM112.968 89.42C112.848 89.42 112.746 89.378 112.662 89.294C112.578 89.21 112.536 89.108 112.536 88.988V77.072C112.536 76.952 112.578 76.85 112.662 76.766C112.746 76.682 112.848 76.64 112.968 76.64H114.39C114.522 76.64 114.624 76.682 114.696 76.766C114.78 76.85 114.822 76.952 114.822 77.072V77.792C115.11 77.408 115.488 77.09 115.956 76.838C116.424 76.586 117.006 76.46 117.702 76.46C118.338 76.46 118.89 76.562 119.358 76.766C119.826 76.97 120.216 77.264 120.528 77.648C120.84 78.02 121.08 78.464 121.248 78.98C121.416 79.496 121.512 80.066 121.536 80.69C121.548 80.894 121.554 81.104 121.554 81.32C121.554 81.536 121.548 81.752 121.536 81.968C121.524 82.568 121.434 83.126 121.266 83.642C121.098 84.146 120.852 84.59 120.528 84.974C120.216 85.346 119.826 85.64 119.358 85.856C118.89 86.072 118.338 86.18 117.702 86.18C117.054 86.18 116.502 86.066 116.046 85.838C115.59 85.598 115.218 85.286 114.93 84.902V88.988C114.93 89.108 114.888 89.21 114.804 89.294C114.732 89.378 114.63 89.42 114.498 89.42H112.968ZM117.036 84.254C117.552 84.254 117.954 84.146 118.242 83.93C118.53 83.702 118.734 83.408 118.854 83.048C118.986 82.688 119.064 82.292 119.088 81.86C119.112 81.5 119.112 81.14 119.088 80.78C119.064 80.348 118.986 79.952 118.854 79.592C118.734 79.232 118.53 78.944 118.242 78.728C117.954 78.5 117.552 78.386 117.036 78.386C116.544 78.386 116.142 78.5 115.83 78.728C115.53 78.956 115.308 79.25 115.164 79.61C115.032 79.958 114.954 80.318 114.93 80.69C114.918 80.906 114.912 81.134 114.912 81.374C114.912 81.614 114.918 81.848 114.93 82.076C114.942 82.436 115.026 82.784 115.182 83.12C115.338 83.444 115.566 83.714 115.866 83.93C116.166 84.146 116.556 84.254 117.036 84.254ZM126.293 86.18C125.669 86.18 125.105 86.06 124.601 85.82C124.097 85.568 123.695 85.238 123.395 84.83C123.107 84.41 122.963 83.942 122.963 83.426C122.963 82.586 123.299 81.92 123.971 81.428C124.655 80.924 125.555 80.588 126.671 80.42L129.137 80.06V79.682C129.137 79.178 129.011 78.788 128.759 78.512C128.507 78.236 128.075 78.098 127.463 78.098C127.031 78.098 126.677 78.188 126.401 78.368C126.137 78.536 125.939 78.764 125.807 79.052C125.711 79.208 125.573 79.286 125.393 79.286H123.971C123.839 79.286 123.737 79.25 123.665 79.178C123.605 79.106 123.575 79.01 123.575 78.89C123.587 78.698 123.665 78.464 123.809 78.188C123.953 77.912 124.181 77.648 124.493 77.396C124.805 77.132 125.207 76.91 125.699 76.73C126.191 76.55 126.785 76.46 127.481 76.46C128.237 76.46 128.873 76.556 129.389 76.748C129.917 76.928 130.337 77.174 130.649 77.486C130.961 77.798 131.189 78.164 131.333 78.584C131.477 79.004 131.549 79.448 131.549 79.916V85.568C131.549 85.688 131.507 85.79 131.423 85.874C131.339 85.958 131.237 86 131.117 86H129.659C129.527 86 129.419 85.958 129.335 85.874C129.263 85.79 129.227 85.688 129.227 85.568V84.866C129.071 85.094 128.861 85.31 128.597 85.514C128.333 85.706 128.009 85.868 127.625 86C127.253 86.12 126.809 86.18 126.293 86.18ZM126.905 84.47C127.325 84.47 127.703 84.38 128.039 84.2C128.387 84.02 128.657 83.744 128.849 83.372C129.053 82.988 129.155 82.508 129.155 81.932V81.554L127.355 81.842C126.647 81.95 126.119 82.124 125.771 82.364C125.423 82.604 125.249 82.898 125.249 83.246C125.249 83.51 125.327 83.738 125.483 83.93C125.651 84.11 125.861 84.248 126.113 84.344C126.365 84.428 126.629 84.47 126.905 84.47ZM134.29 86C134.17 86 134.068 85.958 133.984 85.874C133.9 85.79 133.858 85.688 133.858 85.568V77.09C133.858 76.958 133.9 76.85 133.984 76.766C134.068 76.682 134.17 76.64 134.29 76.64H135.748C135.868 76.64 135.97 76.682 136.054 76.766C136.15 76.85 136.198 76.958 136.198 77.09V77.828C136.474 77.444 136.828 77.15 137.26 76.946C137.704 76.742 138.214 76.64 138.79 76.64H139.528C139.66 76.64 139.762 76.682 139.834 76.766C139.918 76.85 139.96 76.952 139.96 77.072V78.368C139.96 78.488 139.918 78.59 139.834 78.674C139.762 78.758 139.66 78.8 139.528 78.8H138.124C137.548 78.8 137.098 78.962 136.774 79.286C136.462 79.61 136.306 80.054 136.306 80.618V85.568C136.306 85.688 136.264 85.79 136.18 85.874C136.096 85.958 135.988 86 135.856 86H134.29ZM145.594 86C144.874 86 144.268 85.874 143.776 85.622C143.284 85.37 142.918 84.998 142.678 84.506C142.438 84.002 142.318 83.378 142.318 82.634V78.548H140.896C140.776 78.548 140.674 78.506 140.59 78.422C140.506 78.338 140.464 78.236 140.464 78.116V77.072C140.464 76.952 140.506 76.85 140.59 76.766C140.674 76.682 140.776 76.64 140.896 76.64H142.318V73.652C142.318 73.532 142.354 73.43 142.426 73.346C142.51 73.262 142.618 73.22 142.75 73.22H144.208C144.328 73.22 144.43 73.262 144.514 73.346C144.598 73.43 144.64 73.532 144.64 73.652V76.64H146.89C147.01 76.64 147.112 76.682 147.196 76.766C147.28 76.85 147.322 76.952 147.322 77.072V78.116C147.322 78.236 147.28 78.338 147.196 78.422C147.112 78.506 147.01 78.548 146.89 78.548H144.64V82.454C144.64 82.946 144.724 83.33 144.892 83.606C145.072 83.882 145.378 84.02 145.81 84.02H147.052C147.172 84.02 147.274 84.062 147.358 84.146C147.442 84.23 147.484 84.332 147.484 84.452V85.568C147.484 85.688 147.442 85.79 147.358 85.874C147.274 85.958 147.172 86 147.052 86H145.594ZM153.626 86C153.506 86 153.404 85.958 153.32 85.874C153.236 85.79 153.194 85.688 153.194 85.568V77.072C153.194 76.952 153.236 76.85 153.32 76.766C153.404 76.682 153.506 76.64 153.626 76.64H155.12C155.252 76.64 155.354 76.682 155.426 76.766C155.51 76.85 155.552 76.952 155.552 77.072V85.568C155.552 85.688 155.51 85.79 155.426 85.874C155.354 85.958 155.252 86 155.12 86H153.626ZM153.554 75.092C153.422 75.092 153.314 75.056 153.23 74.984C153.158 74.9 153.122 74.792 153.122 74.66V73.364C153.122 73.244 153.158 73.142 153.23 73.058C153.314 72.974 153.422 72.932 153.554 72.932H155.192C155.324 72.932 155.432 72.974 155.516 73.058C155.6 73.142 155.642 73.244 155.642 73.364V74.66C155.642 74.792 155.6 74.9 155.516 74.984C155.432 75.056 155.324 75.092 155.192 75.092H153.554ZM158.372 86C158.252 86 158.15 85.958 158.066 85.874C157.982 85.79 157.94 85.688 157.94 85.568V77.072C157.94 76.952 157.982 76.85 158.066 76.766C158.15 76.682 158.252 76.64 158.372 76.64H159.848C159.968 76.64 160.07 76.682 160.154 76.766C160.238 76.85 160.28 76.952 160.28 77.072V77.81C160.592 77.426 160.988 77.108 161.468 76.856C161.96 76.592 162.566 76.46 163.286 76.46C164.018 76.46 164.654 76.628 165.194 76.964C165.734 77.288 166.148 77.75 166.436 78.35C166.736 78.95 166.886 79.67 166.886 80.51V85.568C166.886 85.688 166.844 85.79 166.76 85.874C166.676 85.958 166.574 86 166.454 86H164.87C164.75 86 164.648 85.958 164.564 85.874C164.48 85.79 164.438 85.688 164.438 85.568V80.618C164.438 79.922 164.264 79.376 163.916 78.98C163.58 78.584 163.088 78.386 162.44 78.386C161.816 78.386 161.318 78.584 160.946 78.98C160.574 79.376 160.388 79.922 160.388 80.618V85.568C160.388 85.688 160.346 85.79 160.262 85.874C160.178 85.958 160.076 86 159.956 86H158.372ZM177.336 86.18C176.472 86.18 175.71 86.018 175.05 85.694C174.402 85.37 173.892 84.902 173.52 84.29C173.16 83.666 172.962 82.916 172.926 82.04C172.914 81.86 172.908 81.626 172.908 81.338C172.908 81.038 172.914 80.792 172.926 80.6C172.962 79.724 173.16 78.98 173.52 78.368C173.892 77.744 174.402 77.27 175.05 76.946C175.71 76.622 176.472 76.46 177.336 76.46C178.104 76.46 178.758 76.568 179.298 76.784C179.838 77 180.282 77.27 180.63 77.594C180.978 77.918 181.236 78.26 181.404 78.62C181.584 78.968 181.68 79.286 181.692 79.574C181.704 79.706 181.662 79.814 181.566 79.898C181.482 79.97 181.38 80.006 181.26 80.006H179.676C179.556 80.006 179.46 79.976 179.388 79.916C179.328 79.856 179.268 79.766 179.208 79.646C179.028 79.166 178.788 78.83 178.488 78.638C178.2 78.434 177.828 78.332 177.372 78.332C176.772 78.332 176.292 78.524 175.932 78.908C175.584 79.28 175.398 79.874 175.374 80.69C175.35 81.146 175.35 81.566 175.374 81.95C175.398 82.778 175.584 83.378 175.932 83.75C176.292 84.122 176.772 84.308 177.372 84.308C177.84 84.308 178.218 84.212 178.506 84.02C178.794 83.816 179.028 83.474 179.208 82.994C179.268 82.874 179.328 82.784 179.388 82.724C179.46 82.664 179.556 82.634 179.676 82.634H181.26C181.38 82.634 181.482 82.676 181.566 82.76C181.662 82.832 181.704 82.934 181.692 83.066C181.68 83.282 181.62 83.528 181.512 83.804C181.416 84.068 181.254 84.344 181.026 84.632C180.81 84.908 180.534 85.166 180.198 85.406C179.862 85.634 179.454 85.82 178.974 85.964C178.506 86.108 177.96 86.18 177.336 86.18ZM184.019 86C183.899 86 183.797 85.958 183.713 85.874C183.629 85.79 183.587 85.688 183.587 85.568V73.652C183.587 73.532 183.629 73.43 183.713 73.346C183.797 73.262 183.899 73.22 184.019 73.22H185.621C185.753 73.22 185.855 73.262 185.927 73.346C186.011 73.43 186.053 73.532 186.053 73.652V77.756C186.377 77.372 186.773 77.06 187.241 76.82C187.709 76.58 188.285 76.46 188.969 76.46C189.701 76.46 190.337 76.628 190.877 76.964C191.429 77.288 191.855 77.75 192.155 78.35C192.455 78.95 192.605 79.67 192.605 80.51V85.568C192.605 85.688 192.563 85.79 192.479 85.874C192.395 85.958 192.293 86 192.173 86H190.553C190.433 86 190.331 85.958 190.247 85.874C190.163 85.79 190.121 85.688 190.121 85.568V80.618C190.121 79.922 189.947 79.376 189.599 78.98C189.263 78.584 188.771 78.386 188.123 78.386C187.499 78.386 186.995 78.584 186.611 78.98C186.239 79.376 186.053 79.922 186.053 80.618V85.568C186.053 85.688 186.011 85.79 185.927 85.874C185.855 85.958 185.753 86 185.621 86H184.019ZM197.607 86.18C196.983 86.18 196.419 86.06 195.915 85.82C195.411 85.568 195.009 85.238 194.709 84.83C194.421 84.41 194.277 83.942 194.277 83.426C194.277 82.586 194.613 81.92 195.285 81.428C195.969 80.924 196.869 80.588 197.985 80.42L200.451 80.06V79.682C200.451 79.178 200.325 78.788 200.073 78.512C199.821 78.236 199.389 78.098 198.777 78.098C198.345 78.098 197.991 78.188 197.715 78.368C197.451 78.536 197.253 78.764 197.121 79.052C197.025 79.208 196.887 79.286 196.707 79.286H195.285C195.153 79.286 195.051 79.25 194.979 79.178C194.919 79.106 194.889 79.01 194.889 78.89C194.901 78.698 194.979 78.464 195.123 78.188C195.267 77.912 195.495 77.648 195.807 77.396C196.119 77.132 196.521 76.91 197.013 76.73C197.505 76.55 198.099 76.46 198.795 76.46C199.551 76.46 200.187 76.556 200.703 76.748C201.231 76.928 201.651 77.174 201.963 77.486C202.275 77.798 202.503 78.164 202.647 78.584C202.791 79.004 202.863 79.448 202.863 79.916V85.568C202.863 85.688 202.821 85.79 202.737 85.874C202.653 85.958 202.551 86 202.431 86H200.973C200.841 86 200.733 85.958 200.649 85.874C200.577 85.79 200.541 85.688 200.541 85.568V84.866C200.385 85.094 200.175 85.31 199.911 85.514C199.647 85.706 199.323 85.868 198.939 86C198.567 86.12 198.123 86.18 197.607 86.18ZM198.219 84.47C198.639 84.47 199.017 84.38 199.353 84.2C199.701 84.02 199.971 83.744 200.163 83.372C200.367 82.988 200.469 82.508 200.469 81.932V81.554L198.669 81.842C197.961 81.95 197.433 82.124 197.085 82.364C196.737 82.604 196.563 82.898 196.563 83.246C196.563 83.51 196.641 83.738 196.797 83.93C196.965 84.11 197.175 84.248 197.427 84.344C197.679 84.428 197.943 84.47 198.219 84.47ZM205.622 86C205.502 86 205.4 85.958 205.316 85.874C205.232 85.79 205.19 85.688 205.19 85.568V73.652C205.19 73.532 205.232 73.43 205.316 73.346C205.4 73.262 205.502 73.22 205.622 73.22H207.116C207.236 73.22 207.338 73.262 207.422 73.346C207.506 73.43 207.548 73.532 207.548 73.652V85.568C207.548 85.688 207.506 85.79 207.422 85.874C207.338 85.958 207.236 86 207.116 86H205.622ZM210.386 86C210.266 86 210.164 85.958 210.08 85.874C209.996 85.79 209.954 85.688 209.954 85.568V73.652C209.954 73.532 209.996 73.43 210.08 73.346C210.164 73.262 210.266 73.22 210.386 73.22H211.88C212 73.22 212.102 73.262 212.186 73.346C212.27 73.43 212.312 73.532 212.312 73.652V85.568C212.312 85.688 212.27 85.79 212.186 85.874C212.102 85.958 212 86 211.88 86H210.386ZM218.732 86.18C217.4 86.18 216.344 85.796 215.564 85.028C214.784 84.26 214.364 83.168 214.304 81.752C214.292 81.632 214.286 81.482 214.286 81.302C214.286 81.11 214.292 80.96 214.304 80.852C214.352 79.952 214.556 79.172 214.916 78.512C215.288 77.852 215.798 77.348 216.446 77C217.094 76.64 217.856 76.46 218.732 76.46C219.704 76.46 220.52 76.664 221.18 77.072C221.84 77.468 222.338 78.026 222.674 78.746C223.01 79.454 223.178 80.276 223.178 81.212V81.59C223.178 81.71 223.136 81.812 223.052 81.896C222.968 81.98 222.86 82.022 222.728 82.022H216.752C216.752 82.022 216.752 82.04 216.752 82.076C216.752 82.112 216.752 82.142 216.752 82.166C216.764 82.586 216.842 82.976 216.986 83.336C217.142 83.684 217.364 83.966 217.652 84.182C217.952 84.398 218.306 84.506 218.714 84.506C219.05 84.506 219.332 84.458 219.56 84.362C219.788 84.254 219.974 84.134 220.118 84.002C220.262 83.87 220.364 83.762 220.424 83.678C220.532 83.534 220.616 83.45 220.676 83.426C220.748 83.39 220.85 83.372 220.982 83.372H222.53C222.65 83.372 222.746 83.408 222.818 83.48C222.902 83.552 222.938 83.642 222.926 83.75C222.914 83.942 222.812 84.176 222.62 84.452C222.44 84.728 222.176 84.998 221.828 85.262C221.48 85.526 221.042 85.748 220.514 85.928C219.998 86.096 219.404 86.18 218.732 86.18ZM216.752 80.51H220.73V80.456C220.73 79.988 220.652 79.58 220.496 79.232C220.34 78.884 220.112 78.608 219.812 78.404C219.512 78.2 219.152 78.098 218.732 78.098C218.312 78.098 217.952 78.2 217.652 78.404C217.352 78.608 217.124 78.884 216.968 79.232C216.824 79.58 216.752 79.988 216.752 80.456V80.51ZM225.52 86C225.4 86 225.298 85.958 225.214 85.874C225.13 85.79 225.088 85.688 225.088 85.568V77.072C225.088 76.952 225.13 76.85 225.214 76.766C225.298 76.682 225.4 76.64 225.52 76.64H226.996C227.116 76.64 227.218 76.682 227.302 76.766C227.386 76.85 227.428 76.952 227.428 77.072V77.81C227.74 77.426 228.136 77.108 228.616 76.856C229.108 76.592 229.714 76.46 230.434 76.46C231.166 76.46 231.802 76.628 232.342 76.964C232.882 77.288 233.296 77.75 233.584 78.35C233.884 78.95 234.034 79.67 234.034 80.51V85.568C234.034 85.688 233.992 85.79 233.908 85.874C233.824 85.958 233.722 86 233.602 86H232.018C231.898 86 231.796 85.958 231.712 85.874C231.628 85.79 231.586 85.688 231.586 85.568V80.618C231.586 79.922 231.412 79.376 231.064 78.98C230.728 78.584 230.236 78.386 229.588 78.386C228.964 78.386 228.466 78.584 228.094 78.98C227.722 79.376 227.536 79.922 227.536 80.618V85.568C227.536 85.688 227.494 85.79 227.41 85.874C227.326 85.958 227.224 86 227.104 86H225.52ZM240.551 89.96C239.675 89.96 238.955 89.846 238.391 89.618C237.827 89.39 237.383 89.114 237.059 88.79C236.735 88.466 236.501 88.142 236.357 87.818C236.225 87.506 236.153 87.26 236.141 87.08C236.129 86.96 236.165 86.852 236.249 86.756C236.345 86.672 236.453 86.63 236.573 86.63H238.139C238.259 86.63 238.355 86.654 238.427 86.702C238.499 86.762 238.559 86.864 238.607 87.008C238.679 87.164 238.775 87.332 238.895 87.512C239.015 87.692 239.195 87.842 239.435 87.962C239.687 88.094 240.029 88.16 240.461 88.16C240.917 88.16 241.301 88.094 241.613 87.962C241.925 87.83 242.159 87.608 242.315 87.296C242.483 86.984 242.567 86.552 242.567 86V84.776C242.279 85.124 241.907 85.406 241.451 85.622C241.007 85.838 240.455 85.946 239.795 85.946C239.147 85.946 238.589 85.844 238.121 85.64C237.653 85.424 237.263 85.13 236.951 84.758C236.639 84.374 236.399 83.924 236.231 83.408C236.075 82.892 235.985 82.322 235.961 81.698C235.949 81.374 235.949 81.05 235.961 80.726C235.985 80.126 236.075 79.568 236.231 79.052C236.387 78.536 236.621 78.086 236.933 77.702C237.257 77.306 237.653 77 238.121 76.784C238.589 76.568 239.147 76.46 239.795 76.46C240.479 76.46 241.055 76.592 241.523 76.856C241.991 77.108 242.375 77.426 242.675 77.81V77.09C242.675 76.958 242.717 76.85 242.801 76.766C242.885 76.682 242.987 76.64 243.107 76.64H244.565C244.685 76.64 244.787 76.682 244.871 76.766C244.955 76.85 244.997 76.958 244.997 77.09L245.015 85.766C245.015 86.63 244.853 87.374 244.529 87.998C244.205 88.622 243.713 89.102 243.053 89.438C242.405 89.786 241.571 89.96 240.551 89.96ZM240.461 84.038C240.953 84.038 241.349 83.93 241.649 83.714C241.949 83.498 242.171 83.216 242.315 82.868C242.459 82.52 242.543 82.166 242.567 81.806C242.579 81.65 242.585 81.452 242.585 81.212C242.585 80.972 242.579 80.78 242.567 80.636C242.543 80.264 242.459 79.91 242.315 79.574C242.171 79.226 241.949 78.944 241.649 78.728C241.349 78.5 240.953 78.386 240.461 78.386C239.969 78.386 239.573 78.5 239.273 78.728C238.973 78.944 238.757 79.232 238.625 79.592C238.505 79.952 238.433 80.348 238.409 80.78C238.385 81.068 238.385 81.362 238.409 81.662C238.433 82.082 238.505 82.478 238.625 82.85C238.757 83.21 238.973 83.498 239.273 83.714C239.573 83.93 239.969 84.038 240.461 84.038ZM251.445 86.18C250.113 86.18 249.057 85.796 248.277 85.028C247.497 84.26 247.077 83.168 247.017 81.752C247.005 81.632 246.999 81.482 246.999 81.302C246.999 81.11 247.005 80.96 247.017 80.852C247.065 79.952 247.269 79.172 247.629 78.512C248.001 77.852 248.511 77.348 249.159 77C249.807 76.64 250.569 76.46 251.445 76.46C252.417 76.46 253.233 76.664 253.893 77.072C254.553 77.468 255.051 78.026 255.387 78.746C255.723 79.454 255.891 80.276 255.891 81.212V81.59C255.891 81.71 255.849 81.812 255.765 81.896C255.681 81.98 255.573 82.022 255.441 82.022H249.465C249.465 82.022 249.465 82.04 249.465 82.076C249.465 82.112 249.465 82.142 249.465 82.166C249.477 82.586 249.555 82.976 249.699 83.336C249.855 83.684 250.077 83.966 250.365 84.182C250.665 84.398 251.019 84.506 251.427 84.506C251.763 84.506 252.045 84.458 252.273 84.362C252.501 84.254 252.687 84.134 252.831 84.002C252.975 83.87 253.077 83.762 253.137 83.678C253.245 83.534 253.329 83.45 253.389 83.426C253.461 83.39 253.563 83.372 253.695 83.372H255.243C255.363 83.372 255.459 83.408 255.531 83.48C255.615 83.552 255.651 83.642 255.639 83.75C255.627 83.942 255.525 84.176 255.333 84.452C255.153 84.728 254.889 84.998 254.541 85.262C254.193 85.526 253.755 85.748 253.227 85.928C252.711 86.096 252.117 86.18 251.445 86.18ZM249.465 80.51H253.443V80.456C253.443 79.988 253.365 79.58 253.209 79.232C253.053 78.884 252.825 78.608 252.525 78.404C252.225 78.2 251.865 78.098 251.445 78.098C251.025 78.098 250.665 78.2 250.365 78.404C250.065 78.608 249.837 78.884 249.681 79.232C249.537 79.58 249.465 79.988 249.465 80.456V80.51ZM261.347 86.18C260.627 86.18 260.009 86.096 259.493 85.928C258.989 85.76 258.575 85.55 258.251 85.298C257.927 85.046 257.687 84.794 257.531 84.542C257.375 84.29 257.291 84.08 257.279 83.912C257.267 83.78 257.303 83.678 257.387 83.606C257.483 83.522 257.585 83.48 257.693 83.48H259.115C259.163 83.48 259.205 83.486 259.241 83.498C259.277 83.51 259.325 83.546 259.385 83.606C259.541 83.738 259.703 83.876 259.871 84.02C260.051 84.164 260.261 84.29 260.501 84.398C260.741 84.494 261.041 84.542 261.401 84.542C261.869 84.542 262.259 84.452 262.571 84.272C262.895 84.08 263.057 83.81 263.057 83.462C263.057 83.21 262.985 83.006 262.841 82.85C262.709 82.694 262.457 82.556 262.085 82.436C261.713 82.304 261.185 82.166 260.501 82.022C259.829 81.866 259.271 81.668 258.827 81.428C258.383 81.188 258.053 80.888 257.837 80.528C257.621 80.168 257.513 79.748 257.513 79.268C257.513 78.8 257.651 78.356 257.927 77.936C258.215 77.504 258.635 77.15 259.187 76.874C259.751 76.598 260.447 76.46 261.275 76.46C261.923 76.46 262.487 76.544 262.967 76.712C263.447 76.868 263.843 77.066 264.155 77.306C264.479 77.546 264.725 77.792 264.893 78.044C265.061 78.284 265.151 78.494 265.163 78.674C265.175 78.806 265.139 78.914 265.055 78.998C264.971 79.07 264.875 79.106 264.767 79.106H263.435C263.375 79.106 263.321 79.094 263.273 79.07C263.225 79.046 263.177 79.016 263.129 78.98C262.997 78.86 262.853 78.734 262.697 78.602C262.541 78.47 262.349 78.356 262.121 78.26C261.905 78.152 261.617 78.098 261.257 78.098C260.801 78.098 260.453 78.2 260.213 78.404C259.973 78.596 259.853 78.842 259.853 79.142C259.853 79.346 259.907 79.526 260.015 79.682C260.135 79.826 260.369 79.964 260.717 80.096C261.065 80.228 261.593 80.366 262.301 80.51C263.105 80.654 263.741 80.87 264.209 81.158C264.689 81.434 265.025 81.758 265.217 82.13C265.421 82.49 265.523 82.892 265.523 83.336C265.523 83.876 265.361 84.362 265.037 84.794C264.725 85.226 264.257 85.568 263.633 85.82C263.021 86.06 262.259 86.18 261.347 86.18ZM82.036 110C81.868 110 81.742 109.958 81.658 109.874C81.574 109.79 81.502 109.682 81.442 109.55L78.868 101.198C78.856 101.138 78.85 101.084 78.85 101.036C78.85 100.928 78.886 100.838 78.958 100.766C79.042 100.682 79.132 100.64 79.228 100.64H80.56C80.704 100.64 80.818 100.682 80.902 100.766C80.986 100.838 81.034 100.91 81.046 100.982L82.81 106.94L84.682 101.036C84.706 100.952 84.76 100.868 84.844 100.784C84.928 100.688 85.054 100.64 85.222 100.64H86.122C86.29 100.64 86.416 100.688 86.5 100.784C86.584 100.868 86.638 100.952 86.662 101.036L88.534 106.94L90.298 100.982C90.31 100.91 90.352 100.838 90.424 100.766C90.508 100.682 90.622 100.64 90.766 100.64H92.098C92.206 100.64 92.296 100.682 92.368 100.766C92.452 100.838 92.494 100.928 92.494 101.036C92.494 101.084 92.482 101.138 92.458 101.198L89.884 109.55C89.848 109.682 89.782 109.79 89.686 109.874C89.602 109.958 89.476 110 89.308 110H88.138C87.97 110 87.838 109.958 87.742 109.874C87.646 109.79 87.58 109.682 87.544 109.55L85.672 103.862L83.8 109.55C83.752 109.682 83.68 109.79 83.584 109.874C83.5 109.958 83.368 110 83.188 110H82.036ZM94.6776 110C94.5576 110 94.4556 109.958 94.3716 109.874C94.2876 109.79 94.2456 109.688 94.2456 109.568V101.072C94.2456 100.952 94.2876 100.85 94.3716 100.766C94.4556 100.682 94.5576 100.64 94.6776 100.64H96.1716C96.3036 100.64 96.4056 100.682 96.4776 100.766C96.5616 100.85 96.6036 100.952 96.6036 101.072V109.568C96.6036 109.688 96.5616 109.79 96.4776 109.874C96.4056 109.958 96.3036 110 96.1716 110H94.6776ZM94.6056 99.092C94.4736 99.092 94.3656 99.056 94.2816 98.984C94.2096 98.9 94.1736 98.792 94.1736 98.66V97.364C94.1736 97.244 94.2096 97.142 94.2816 97.058C94.3656 96.974 94.4736 96.932 94.6056 96.932H96.2436C96.3756 96.932 96.4836 96.974 96.5676 97.058C96.6516 97.142 96.6936 97.244 96.6936 97.364V98.66C96.6936 98.792 96.6516 98.9 96.5676 98.984C96.4836 99.056 96.3756 99.092 96.2436 99.092H94.6056ZM103.222 110C102.502 110 101.896 109.874 101.404 109.622C100.912 109.37 100.546 108.998 100.306 108.506C100.066 108.002 99.9457 107.378 99.9457 106.634V102.548H98.5237C98.4037 102.548 98.3017 102.506 98.2177 102.422C98.1337 102.338 98.0917 102.236 98.0917 102.116V101.072C98.0917 100.952 98.1337 100.85 98.2177 100.766C98.3017 100.682 98.4037 100.64 98.5237 100.64H99.9457V97.652C99.9457 97.532 99.9817 97.43 100.054 97.346C100.138 97.262 100.246 97.22 100.378 97.22H101.836C101.956 97.22 102.058 97.262 102.142 97.346C102.226 97.43 102.268 97.532 102.268 97.652V100.64H104.518C104.638 100.64 104.74 100.682 104.824 100.766C104.908 100.85 104.95 100.952 104.95 101.072V102.116C104.95 102.236 104.908 102.338 104.824 102.422C104.74 102.506 104.638 102.548 104.518 102.548H102.268V106.454C102.268 106.946 102.352 107.33 102.52 107.606C102.7 107.882 103.006 108.02 103.438 108.02H104.68C104.8 108.02 104.902 108.062 104.986 108.146C105.07 108.23 105.112 108.332 105.112 108.452V109.568C105.112 109.688 105.07 109.79 104.986 109.874C104.902 109.958 104.8 110 104.68 110H103.222ZM107.159 110C107.039 110 106.937 109.958 106.853 109.874C106.769 109.79 106.727 109.688 106.727 109.568V97.652C106.727 97.532 106.769 97.43 106.853 97.346C106.937 97.262 107.039 97.22 107.159 97.22H108.761C108.893 97.22 108.995 97.262 109.067 97.346C109.151 97.43 109.193 97.532 109.193 97.652V101.756C109.517 101.372 109.913 101.06 110.381 100.82C110.849 100.58 111.425 100.46 112.109 100.46C112.841 100.46 113.477 100.628 114.017 100.964C114.569 101.288 114.995 101.75 115.295 102.35C115.595 102.95 115.745 103.67 115.745 104.51V109.568C115.745 109.688 115.703 109.79 115.619 109.874C115.535 109.958 115.433 110 115.313 110H113.693C113.573 110 113.471 109.958 113.387 109.874C113.303 109.79 113.261 109.688 113.261 109.568V104.618C113.261 103.922 113.087 103.376 112.739 102.98C112.403 102.584 111.911 102.386 111.263 102.386C110.639 102.386 110.135 102.584 109.751 102.98C109.379 103.376 109.193 103.922 109.193 104.618V109.568C109.193 109.688 109.151 109.79 109.067 109.874C108.995 109.958 108.893 110 108.761 110H107.159ZM123.266 110C123.146 110 123.044 109.958 122.96 109.874C122.876 109.79 122.834 109.688 122.834 109.568V102.548H121.376C121.256 102.548 121.154 102.506 121.07 102.422C120.986 102.338 120.944 102.236 120.944 102.116V101.072C120.944 100.952 120.986 100.85 121.07 100.766C121.154 100.682 121.256 100.64 121.376 100.64H122.834V99.902C122.834 99.182 122.966 98.588 123.23 98.12C123.494 97.64 123.884 97.28 124.4 97.04C124.916 96.8 125.57 96.68 126.362 96.68H127.586C127.718 96.68 127.82 96.722 127.892 96.806C127.976 96.89 128.018 96.992 128.018 97.112V98.156C128.018 98.276 127.976 98.378 127.892 98.462C127.82 98.546 127.718 98.588 127.586 98.588H126.434C125.954 98.588 125.624 98.708 125.444 98.948C125.264 99.188 125.174 99.536 125.174 99.992V100.64H127.406C127.538 100.64 127.64 100.682 127.712 100.766C127.796 100.85 127.838 100.952 127.838 101.072V102.116C127.838 102.236 127.796 102.338 127.712 102.422C127.64 102.506 127.538 102.548 127.406 102.548H125.174V109.568C125.174 109.688 125.132 109.79 125.048 109.874C124.964 109.958 124.862 110 124.742 110H123.266ZM129.711 110C129.591 110 129.489 109.958 129.405 109.874C129.321 109.79 129.279 109.688 129.279 109.568V101.09C129.279 100.958 129.321 100.85 129.405 100.766C129.489 100.682 129.591 100.64 129.711 100.64H131.169C131.289 100.64 131.391 100.682 131.475 100.766C131.571 100.85 131.619 100.958 131.619 101.09V101.828C131.895 101.444 132.249 101.15 132.681 100.946C133.125 100.742 133.635 100.64 134.211 100.64H134.949C135.081 100.64 135.183 100.682 135.255 100.766C135.339 100.85 135.381 100.952 135.381 101.072V102.368C135.381 102.488 135.339 102.59 135.255 102.674C135.183 102.758 135.081 102.8 134.949 102.8H133.545C132.969 102.8 132.519 102.962 132.195 103.286C131.883 103.61 131.727 104.054 131.727 104.618V109.568C131.727 109.688 131.685 109.79 131.601 109.874C131.517 109.958 131.409 110 131.277 110H129.711ZM137.217 110C137.097 110 136.995 109.958 136.911 109.874C136.827 109.79 136.785 109.688 136.785 109.568V101.072C136.785 100.952 136.827 100.85 136.911 100.766C136.995 100.682 137.097 100.64 137.217 100.64H138.711C138.843 100.64 138.945 100.682 139.017 100.766C139.101 100.85 139.143 100.952 139.143 101.072V109.568C139.143 109.688 139.101 109.79 139.017 109.874C138.945 109.958 138.843 110 138.711 110H137.217ZM137.145 99.092C137.013 99.092 136.905 99.056 136.821 98.984C136.749 98.9 136.713 98.792 136.713 98.66V97.364C136.713 97.244 136.749 97.142 136.821 97.058C136.905 96.974 137.013 96.932 137.145 96.932H138.783C138.915 96.932 139.023 96.974 139.107 97.058C139.191 97.142 139.233 97.244 139.233 97.364V98.66C139.233 98.792 139.191 98.9 139.107 98.984C139.023 99.056 138.915 99.092 138.783 99.092H137.145ZM145.563 110.18C144.231 110.18 143.175 109.796 142.395 109.028C141.615 108.26 141.195 107.168 141.135 105.752C141.123 105.632 141.117 105.482 141.117 105.302C141.117 105.11 141.123 104.96 141.135 104.852C141.183 103.952 141.387 103.172 141.747 102.512C142.119 101.852 142.629 101.348 143.277 101C143.925 100.64 144.687 100.46 145.563 100.46C146.535 100.46 147.351 100.664 148.011 101.072C148.671 101.468 149.169 102.026 149.505 102.746C149.841 103.454 150.009 104.276 150.009 105.212V105.59C150.009 105.71 149.967 105.812 149.883 105.896C149.799 105.98 149.691 106.022 149.559 106.022H143.583C143.583 106.022 143.583 106.04 143.583 106.076C143.583 106.112 143.583 106.142 143.583 106.166C143.595 106.586 143.673 106.976 143.817 107.336C143.973 107.684 144.195 107.966 144.483 108.182C144.783 108.398 145.137 108.506 145.545 108.506C145.881 108.506 146.163 108.458 146.391 108.362C146.619 108.254 146.805 108.134 146.949 108.002C147.093 107.87 147.195 107.762 147.255 107.678C147.363 107.534 147.447 107.45 147.507 107.426C147.579 107.39 147.681 107.372 147.813 107.372H149.361C149.481 107.372 149.577 107.408 149.649 107.48C149.733 107.552 149.769 107.642 149.757 107.75C149.745 107.942 149.643 108.176 149.451 108.452C149.271 108.728 149.007 108.998 148.659 109.262C148.311 109.526 147.873 109.748 147.345 109.928C146.829 110.096 146.235 110.18 145.563 110.18ZM143.583 104.51H147.561V104.456C147.561 103.988 147.483 103.58 147.327 103.232C147.171 102.884 146.943 102.608 146.643 102.404C146.343 102.2 145.983 102.098 145.563 102.098C145.143 102.098 144.783 102.2 144.483 102.404C144.183 102.608 143.955 102.884 143.799 103.232C143.655 103.58 143.583 103.988 143.583 104.456V104.51ZM152.351 110C152.231 110 152.129 109.958 152.045 109.874C151.961 109.79 151.919 109.688 151.919 109.568V101.072C151.919 100.952 151.961 100.85 152.045 100.766C152.129 100.682 152.231 100.64 152.351 100.64H153.827C153.947 100.64 154.049 100.682 154.133 100.766C154.217 100.85 154.259 100.952 154.259 101.072V101.81C154.571 101.426 154.967 101.108 155.447 100.856C155.939 100.592 156.545 100.46 157.265 100.46C157.997 100.46 158.633 100.628 159.173 100.964C159.713 101.288 160.127 101.75 160.415 102.35C160.715 102.95 160.865 103.67 160.865 104.51V109.568C160.865 109.688 160.823 109.79 160.739 109.874C160.655 109.958 160.553 110 160.433 110H158.849C158.729 110 158.627 109.958 158.543 109.874C158.459 109.79 158.417 109.688 158.417 109.568V104.618C158.417 103.922 158.243 103.376 157.895 102.98C157.559 102.584 157.067 102.386 156.419 102.386C155.795 102.386 155.297 102.584 154.925 102.98C154.553 103.376 154.367 103.922 154.367 104.618V109.568C154.367 109.688 154.325 109.79 154.241 109.874C154.157 109.958 154.055 110 153.935 110H152.351ZM166.626 110.18C166.002 110.18 165.45 110.078 164.97 109.874C164.502 109.658 164.112 109.358 163.8 108.974C163.488 108.59 163.248 108.14 163.08 107.624C162.912 107.096 162.816 106.52 162.792 105.896C162.78 105.68 162.774 105.488 162.774 105.32C162.774 105.14 162.78 104.942 162.792 104.726C162.816 104.126 162.906 103.568 163.062 103.052C163.23 102.536 163.47 102.086 163.782 101.702C164.106 101.306 164.502 101 164.97 100.784C165.45 100.568 166.002 100.46 166.626 100.46C167.274 100.46 167.82 100.574 168.264 100.802C168.72 101.018 169.098 101.3 169.398 101.648V97.652C169.398 97.532 169.434 97.43 169.506 97.346C169.59 97.262 169.698 97.22 169.83 97.22H171.36C171.48 97.22 171.582 97.262 171.666 97.346C171.75 97.43 171.792 97.532 171.792 97.652V109.568C171.792 109.688 171.75 109.79 171.666 109.874C171.582 109.958 171.48 110 171.36 110H169.938C169.806 110 169.698 109.958 169.614 109.874C169.542 109.79 169.506 109.688 169.506 109.568V108.902C169.206 109.274 168.822 109.58 168.354 109.82C167.898 110.06 167.322 110.18 166.626 110.18ZM167.292 108.254C167.796 108.254 168.198 108.14 168.498 107.912C168.798 107.684 169.02 107.396 169.164 107.048C169.308 106.688 169.386 106.322 169.398 105.95C169.41 105.734 169.416 105.506 169.416 105.266C169.416 105.014 169.41 104.78 169.398 104.564C169.386 104.204 169.302 103.862 169.146 103.538C168.99 103.202 168.762 102.926 168.462 102.71C168.162 102.494 167.772 102.386 167.292 102.386C166.788 102.386 166.386 102.5 166.086 102.728C165.798 102.944 165.588 103.232 165.456 103.592C165.324 103.952 165.246 104.348 165.222 104.78C165.21 105.14 165.21 105.5 165.222 105.86C165.246 106.292 165.324 106.688 165.456 107.048C165.588 107.408 165.798 107.702 166.086 107.93C166.386 108.146 166.788 108.254 167.292 108.254ZM177.737 110.18C177.017 110.18 176.399 110.096 175.883 109.928C175.379 109.76 174.965 109.55 174.641 109.298C174.317 109.046 174.077 108.794 173.921 108.542C173.765 108.29 173.681 108.08 173.669 107.912C173.657 107.78 173.693 107.678 173.777 107.606C173.873 107.522 173.975 107.48 174.083 107.48H175.505C175.553 107.48 175.595 107.486 175.631 107.498C175.667 107.51 175.715 107.546 175.775 107.606C175.931 107.738 176.093 107.876 176.261 108.02C176.441 108.164 176.651 108.29 176.891 108.398C177.131 108.494 177.431 108.542 177.791 108.542C178.259 108.542 178.649 108.452 178.961 108.272C179.285 108.08 179.447 107.81 179.447 107.462C179.447 107.21 179.375 107.006 179.231 106.85C179.099 106.694 178.847 106.556 178.475 106.436C178.103 106.304 177.575 106.166 176.891 106.022C176.219 105.866 175.661 105.668 175.217 105.428C174.773 105.188 174.443 104.888 174.227 104.528C174.011 104.168 173.903 103.748 173.903 103.268C173.903 102.8 174.041 102.356 174.317 101.936C174.605 101.504 175.025 101.15 175.577 100.874C176.141 100.598 176.837 100.46 177.665 100.46C178.313 100.46 178.877 100.544 179.357 100.712C179.837 100.868 180.233 101.066 180.545 101.306C180.869 101.546 181.115 101.792 181.283 102.044C181.451 102.284 181.541 102.494 181.553 102.674C181.565 102.806 181.529 102.914 181.445 102.998C181.361 103.07 181.265 103.106 181.157 103.106H179.825C179.765 103.106 179.711 103.094 179.663 103.07C179.615 103.046 179.567 103.016 179.519 102.98C179.387 102.86 179.243 102.734 179.087 102.602C178.931 102.47 178.739 102.356 178.511 102.26C178.295 102.152 178.007 102.098 177.647 102.098C177.191 102.098 176.843 102.2 176.603 102.404C176.363 102.596 176.243 102.842 176.243 103.142C176.243 103.346 176.297 103.526 176.405 103.682C176.525 103.826 176.759 103.964 177.107 104.096C177.455 104.228 177.983 104.366 178.691 104.51C179.495 104.654 180.131 104.87 180.599 105.158C181.079 105.434 181.415 105.758 181.607 106.13C181.811 106.49 181.913 106.892 181.913 107.336C181.913 107.876 181.751 108.362 181.427 108.794C181.115 109.226 180.647 109.568 180.023 109.82C179.411 110.06 178.649 110.18 177.737 110.18ZM192.024 110.18C191.064 110.18 190.254 110.012 189.594 109.676C188.946 109.34 188.448 108.866 188.1 108.254C187.764 107.642 187.572 106.928 187.524 106.112C187.512 105.896 187.506 105.632 187.506 105.32C187.506 105.008 187.512 104.744 187.524 104.528C187.572 103.7 187.77 102.986 188.118 102.386C188.478 101.774 188.982 101.3 189.63 100.964C190.29 100.628 191.088 100.46 192.024 100.46C192.96 100.46 193.752 100.628 194.4 100.964C195.06 101.3 195.564 101.774 195.912 102.386C196.272 102.986 196.476 103.7 196.524 104.528C196.536 104.744 196.542 105.008 196.542 105.32C196.542 105.632 196.536 105.896 196.524 106.112C196.476 106.928 196.278 107.642 195.93 108.254C195.594 108.866 195.096 109.34 194.436 109.676C193.788 110.012 192.984 110.18 192.024 110.18ZM192.024 108.398C192.66 108.398 193.152 108.2 193.5 107.804C193.848 107.396 194.04 106.802 194.076 106.022C194.088 105.842 194.094 105.608 194.094 105.32C194.094 105.032 194.088 104.798 194.076 104.618C194.04 103.85 193.848 103.262 193.5 102.854C193.152 102.446 192.66 102.242 192.024 102.242C191.388 102.242 190.896 102.446 190.548 102.854C190.2 103.262 190.008 103.85 189.972 104.618C189.96 104.798 189.954 105.032 189.954 105.32C189.954 105.608 189.96 105.842 189.972 106.022C190.008 106.802 190.2 107.396 190.548 107.804C190.896 108.2 191.388 108.398 192.024 108.398ZM198.969 110C198.849 110 198.747 109.958 198.663 109.874C198.579 109.79 198.537 109.688 198.537 109.568V101.09C198.537 100.958 198.579 100.85 198.663 100.766C198.747 100.682 198.849 100.64 198.969 100.64H200.427C200.547 100.64 200.649 100.682 200.733 100.766C200.829 100.85 200.877 100.958 200.877 101.09V101.828C201.153 101.444 201.507 101.15 201.939 100.946C202.383 100.742 202.893 100.64 203.469 100.64H204.207C204.339 100.64 204.441 100.682 204.513 100.766C204.597 100.85 204.639 100.952 204.639 101.072V102.368C204.639 102.488 204.597 102.59 204.513 102.674C204.441 102.758 204.339 102.8 204.207 102.8H202.803C202.227 102.8 201.777 102.962 201.453 103.286C201.141 103.61 200.985 104.054 200.985 104.618V109.568C200.985 109.688 200.943 109.79 200.859 109.874C200.775 109.958 200.667 110 200.535 110H198.969ZM213.909 110.18C212.949 110.18 212.139 110.012 211.479 109.676C210.831 109.34 210.333 108.866 209.985 108.254C209.649 107.642 209.457 106.928 209.409 106.112C209.397 105.896 209.391 105.632 209.391 105.32C209.391 105.008 209.397 104.744 209.409 104.528C209.457 103.7 209.655 102.986 210.003 102.386C210.363 101.774 210.867 101.3 211.515 100.964C212.175 100.628 212.973 100.46 213.909 100.46C214.845 100.46 215.637 100.628 216.285 100.964C216.945 101.3 217.449 101.774 217.797 102.386C218.157 102.986 218.361 103.7 218.409 104.528C218.421 104.744 218.427 105.008 218.427 105.32C218.427 105.632 218.421 105.896 218.409 106.112C218.361 106.928 218.163 107.642 217.815 108.254C217.479 108.866 216.981 109.34 216.321 109.676C215.673 110.012 214.869 110.18 213.909 110.18ZM213.909 108.398C214.545 108.398 215.037 108.2 215.385 107.804C215.733 107.396 215.925 106.802 215.961 106.022C215.973 105.842 215.979 105.608 215.979 105.32C215.979 105.032 215.973 104.798 215.961 104.618C215.925 103.85 215.733 103.262 215.385 102.854C215.037 102.446 214.545 102.242 213.909 102.242C213.273 102.242 212.781 102.446 212.433 102.854C212.085 103.262 211.893 103.85 211.857 104.618C211.845 104.798 211.839 105.032 211.839 105.32C211.839 105.608 211.845 105.842 211.857 106.022C211.893 106.802 212.085 107.396 212.433 107.804C212.781 108.2 213.273 108.398 213.909 108.398ZM224.581 110C223.861 110 223.255 109.874 222.763 109.622C222.271 109.37 221.905 108.998 221.665 108.506C221.425 108.002 221.305 107.378 221.305 106.634V102.548H219.883C219.763 102.548 219.661 102.506 219.577 102.422C219.493 102.338 219.451 102.236 219.451 102.116V101.072C219.451 100.952 219.493 100.85 219.577 100.766C219.661 100.682 219.763 100.64 219.883 100.64H221.305V97.652C221.305 97.532 221.341 97.43 221.413 97.346C221.497 97.262 221.605 97.22 221.737 97.22H223.195C223.315 97.22 223.417 97.262 223.501 97.346C223.585 97.43 223.627 97.532 223.627 97.652V100.64H225.877C225.997 100.64 226.099 100.682 226.183 100.766C226.267 100.85 226.309 100.952 226.309 101.072V102.116C226.309 102.236 226.267 102.338 226.183 102.422C226.099 102.506 225.997 102.548 225.877 102.548H223.627V106.454C223.627 106.946 223.711 107.33 223.879 107.606C224.059 107.882 224.365 108.02 224.797 108.02H226.039C226.159 108.02 226.261 108.062 226.345 108.146C226.429 108.23 226.471 108.332 226.471 108.452V109.568C226.471 109.688 226.429 109.79 226.345 109.874C226.261 109.958 226.159 110 226.039 110H224.581ZM228.518 110C228.398 110 228.296 109.958 228.212 109.874C228.128 109.79 228.086 109.688 228.086 109.568V97.652C228.086 97.532 228.128 97.43 228.212 97.346C228.296 97.262 228.398 97.22 228.518 97.22H230.12C230.252 97.22 230.354 97.262 230.426 97.346C230.51 97.43 230.552 97.532 230.552 97.652V101.756C230.876 101.372 231.272 101.06 231.74 100.82C232.208 100.58 232.784 100.46 233.468 100.46C234.2 100.46 234.836 100.628 235.376 100.964C235.928 101.288 236.354 101.75 236.654 102.35C236.954 102.95 237.104 103.67 237.104 104.51V109.568C237.104 109.688 237.062 109.79 236.978 109.874C236.894 109.958 236.792 110 236.672 110H235.052C234.932 110 234.83 109.958 234.746 109.874C234.662 109.79 234.62 109.688 234.62 109.568V104.618C234.62 103.922 234.446 103.376 234.098 102.98C233.762 102.584 233.27 102.386 232.622 102.386C231.998 102.386 231.494 102.584 231.11 102.98C230.738 103.376 230.552 103.922 230.552 104.618V109.568C230.552 109.688 230.51 109.79 230.426 109.874C230.354 109.958 230.252 110 230.12 110H228.518ZM243.42 110.18C242.088 110.18 241.032 109.796 240.252 109.028C239.472 108.26 239.052 107.168 238.992 105.752C238.98 105.632 238.974 105.482 238.974 105.302C238.974 105.11 238.98 104.96 238.992 104.852C239.04 103.952 239.244 103.172 239.604 102.512C239.976 101.852 240.486 101.348 241.134 101C241.782 100.64 242.544 100.46 243.42 100.46C244.392 100.46 245.208 100.664 245.868 101.072C246.528 101.468 247.026 102.026 247.362 102.746C247.698 103.454 247.866 104.276 247.866 105.212V105.59C247.866 105.71 247.824 105.812 247.74 105.896C247.656 105.98 247.548 106.022 247.416 106.022H241.44C241.44 106.022 241.44 106.04 241.44 106.076C241.44 106.112 241.44 106.142 241.44 106.166C241.452 106.586 241.53 106.976 241.674 107.336C241.83 107.684 242.052 107.966 242.34 108.182C242.64 108.398 242.994 108.506 243.402 108.506C243.738 108.506 244.02 108.458 244.248 108.362C244.476 108.254 244.662 108.134 244.806 108.002C244.95 107.87 245.052 107.762 245.112 107.678C245.22 107.534 245.304 107.45 245.364 107.426C245.436 107.39 245.538 107.372 245.67 107.372H247.218C247.338 107.372 247.434 107.408 247.506 107.48C247.59 107.552 247.626 107.642 247.614 107.75C247.602 107.942 247.5 108.176 247.308 108.452C247.128 108.728 246.864 108.998 246.516 109.262C246.168 109.526 245.73 109.748 245.202 109.928C244.686 110.096 244.092 110.18 243.42 110.18ZM241.44 104.51H245.418V104.456C245.418 103.988 245.34 103.58 245.184 103.232C245.028 102.884 244.8 102.608 244.5 102.404C244.2 102.2 243.84 102.098 243.42 102.098C243 102.098 242.64 102.2 242.34 102.404C242.04 102.608 241.812 102.884 241.656 103.232C241.512 103.58 241.44 103.988 241.44 104.456V104.51ZM250.209 110C250.089 110 249.987 109.958 249.903 109.874C249.819 109.79 249.777 109.688 249.777 109.568V101.09C249.777 100.958 249.819 100.85 249.903 100.766C249.987 100.682 250.089 100.64 250.209 100.64H251.667C251.787 100.64 251.889 100.682 251.973 100.766C252.069 100.85 252.117 100.958 252.117 101.09V101.828C252.393 101.444 252.747 101.15 253.179 100.946C253.623 100.742 254.133 100.64 254.709 100.64H255.447C255.579 100.64 255.681 100.682 255.753 100.766C255.837 100.85 255.879 100.952 255.879 101.072V102.368C255.879 102.488 255.837 102.59 255.753 102.674C255.681 102.758 255.579 102.8 255.447 102.8H254.043C253.467 102.8 253.017 102.962 252.693 103.286C252.381 103.61 252.225 104.054 252.225 104.618V109.568C252.225 109.688 252.183 109.79 252.099 109.874C252.015 109.958 251.907 110 251.775 110H250.209ZM136.971 137.42C136.851 137.42 136.749 137.378 136.665 137.294C136.581 137.21 136.539 137.108 136.539 136.988V125.072C136.539 124.952 136.581 124.85 136.665 124.766C136.749 124.682 136.851 124.64 136.971 124.64H138.393C138.525 124.64 138.627 124.682 138.699 124.766C138.783 124.85 138.825 124.952 138.825 125.072V125.792C139.113 125.408 139.491 125.09 139.959 124.838C140.427 124.586 141.009 124.46 141.705 124.46C142.341 124.46 142.893 124.562 143.361 124.766C143.829 124.97 144.219 125.264 144.531 125.648C144.843 126.02 145.083 126.464 145.251 126.98C145.419 127.496 145.515 128.066 145.539 128.69C145.551 128.894 145.557 129.104 145.557 129.32C145.557 129.536 145.551 129.752 145.539 129.968C145.527 130.568 145.437 131.126 145.269 131.642C145.101 132.146 144.855 132.59 144.531 132.974C144.219 133.346 143.829 133.64 143.361 133.856C142.893 134.072 142.341 134.18 141.705 134.18C141.057 134.18 140.505 134.066 140.049 133.838C139.593 133.598 139.221 133.286 138.933 132.902V136.988C138.933 137.108 138.891 137.21 138.807 137.294C138.735 137.378 138.633 137.42 138.501 137.42H136.971ZM141.039 132.254C141.555 132.254 141.957 132.146 142.245 131.93C142.533 131.702 142.737 131.408 142.857 131.048C142.989 130.688 143.067 130.292 143.091 129.86C143.115 129.5 143.115 129.14 143.091 128.78C143.067 128.348 142.989 127.952 142.857 127.592C142.737 127.232 142.533 126.944 142.245 126.728C141.957 126.5 141.555 126.386 141.039 126.386C140.547 126.386 140.145 126.5 139.833 126.728C139.533 126.956 139.311 127.25 139.167 127.61C139.035 127.958 138.957 128.318 138.933 128.69C138.921 128.906 138.915 129.134 138.915 129.374C138.915 129.614 138.921 129.848 138.933 130.076C138.945 130.436 139.029 130.784 139.185 131.12C139.341 131.444 139.569 131.714 139.869 131.93C140.169 132.146 140.559 132.254 141.039 132.254ZM148.028 134C147.908 134 147.806 133.958 147.722 133.874C147.638 133.79 147.596 133.688 147.596 133.568V121.652C147.596 121.532 147.638 121.43 147.722 121.346C147.806 121.262 147.908 121.22 148.028 121.22H149.522C149.642 121.22 149.744 121.262 149.828 121.346C149.912 121.43 149.954 121.532 149.954 121.652V133.568C149.954 133.688 149.912 133.79 149.828 133.874C149.744 133.958 149.642 134 149.522 134H148.028ZM155.059 134.18C154.435 134.18 153.871 134.06 153.367 133.82C152.863 133.568 152.461 133.238 152.161 132.83C151.873 132.41 151.729 131.942 151.729 131.426C151.729 130.586 152.065 129.92 152.737 129.428C153.421 128.924 154.321 128.588 155.437 128.42L157.903 128.06V127.682C157.903 127.178 157.777 126.788 157.525 126.512C157.273 126.236 156.841 126.098 156.229 126.098C155.797 126.098 155.443 126.188 155.167 126.368C154.903 126.536 154.705 126.764 154.573 127.052C154.477 127.208 154.339 127.286 154.159 127.286H152.737C152.605 127.286 152.503 127.25 152.431 127.178C152.371 127.106 152.341 127.01 152.341 126.89C152.353 126.698 152.431 126.464 152.575 126.188C152.719 125.912 152.947 125.648 153.259 125.396C153.571 125.132 153.973 124.91 154.465 124.73C154.957 124.55 155.551 124.46 156.247 124.46C157.003 124.46 157.639 124.556 158.155 124.748C158.683 124.928 159.103 125.174 159.415 125.486C159.727 125.798 159.955 126.164 160.099 126.584C160.243 127.004 160.315 127.448 160.315 127.916V133.568C160.315 133.688 160.273 133.79 160.189 133.874C160.105 133.958 160.003 134 159.883 134H158.425C158.293 134 158.185 133.958 158.101 133.874C158.029 133.79 157.993 133.688 157.993 133.568V132.866C157.837 133.094 157.627 133.31 157.363 133.514C157.099 133.706 156.775 133.868 156.391 134C156.019 134.12 155.575 134.18 155.059 134.18ZM155.671 132.47C156.091 132.47 156.469 132.38 156.805 132.2C157.153 132.02 157.423 131.744 157.615 131.372C157.819 130.988 157.921 130.508 157.921 129.932V129.554L156.121 129.842C155.413 129.95 154.885 130.124 154.537 130.364C154.189 130.604 154.015 130.898 154.015 131.246C154.015 131.51 154.093 131.738 154.249 131.93C154.417 132.11 154.627 132.248 154.879 132.344C155.131 132.428 155.395 132.47 155.671 132.47ZM164.07 137.42C163.974 137.42 163.89 137.384 163.818 137.312C163.746 137.24 163.71 137.156 163.71 137.06C163.71 137.012 163.71 136.964 163.71 136.916C163.722 136.88 163.746 136.832 163.782 136.772L165.186 133.442L161.73 125.288C161.682 125.168 161.658 125.084 161.658 125.036C161.67 124.928 161.712 124.838 161.784 124.766C161.856 124.682 161.946 124.64 162.054 124.64H163.512C163.656 124.64 163.764 124.676 163.836 124.748C163.908 124.82 163.962 124.898 163.998 124.982L166.392 130.868L168.858 124.982C168.894 124.886 168.948 124.808 169.02 124.748C169.092 124.676 169.2 124.64 169.344 124.64H170.784C170.88 124.64 170.964 124.676 171.036 124.748C171.12 124.82 171.162 124.904 171.162 125C171.162 125.072 171.138 125.168 171.09 125.288L165.996 137.078C165.948 137.174 165.888 137.252 165.816 137.312C165.744 137.384 165.636 137.42 165.492 137.42H164.07ZM176.412 134.18C175.08 134.18 174.024 133.796 173.244 133.028C172.464 132.26 172.044 131.168 171.984 129.752C171.972 129.632 171.966 129.482 171.966 129.302C171.966 129.11 171.972 128.96 171.984 128.852C172.032 127.952 172.236 127.172 172.596 126.512C172.968 125.852 173.478 125.348 174.126 125C174.774 124.64 175.536 124.46 176.412 124.46C177.384 124.46 178.2 124.664 178.86 125.072C179.52 125.468 180.018 126.026 180.354 126.746C180.69 127.454 180.858 128.276 180.858 129.212V129.59C180.858 129.71 180.816 129.812 180.732 129.896C180.648 129.98 180.54 130.022 180.408 130.022H174.432C174.432 130.022 174.432 130.04 174.432 130.076C174.432 130.112 174.432 130.142 174.432 130.166C174.444 130.586 174.522 130.976 174.666 131.336C174.822 131.684 175.044 131.966 175.332 132.182C175.632 132.398 175.986 132.506 176.394 132.506C176.73 132.506 177.012 132.458 177.24 132.362C177.468 132.254 177.654 132.134 177.798 132.002C177.942 131.87 178.044 131.762 178.104 131.678C178.212 131.534 178.296 131.45 178.356 131.426C178.428 131.39 178.53 131.372 178.662 131.372H180.21C180.33 131.372 180.426 131.408 180.498 131.48C180.582 131.552 180.618 131.642 180.606 131.75C180.594 131.942 180.492 132.176 180.3 132.452C180.12 132.728 179.856 132.998 179.508 133.262C179.16 133.526 178.722 133.748 178.194 133.928C177.678 134.096 177.084 134.18 176.412 134.18ZM174.432 128.51H178.41V128.456C178.41 127.988 178.332 127.58 178.176 127.232C178.02 126.884 177.792 126.608 177.492 126.404C177.192 126.2 176.832 126.098 176.412 126.098C175.992 126.098 175.632 126.2 175.332 126.404C175.032 126.608 174.804 126.884 174.648 127.232C174.504 127.58 174.432 127.988 174.432 128.456V128.51ZM183.201 134C183.081 134 182.979 133.958 182.895 133.874C182.811 133.79 182.769 133.688 182.769 133.568V125.09C182.769 124.958 182.811 124.85 182.895 124.766C182.979 124.682 183.081 124.64 183.201 124.64H184.659C184.779 124.64 184.881 124.682 184.965 124.766C185.061 124.85 185.109 124.958 185.109 125.09V125.828C185.385 125.444 185.739 125.15 186.171 124.946C186.615 124.742 187.125 124.64 187.701 124.64H188.439C188.571 124.64 188.673 124.682 188.745 124.766C188.829 124.85 188.871 124.952 188.871 125.072V126.368C188.871 126.488 188.829 126.59 188.745 126.674C188.673 126.758 188.571 126.8 188.439 126.8H187.035C186.459 126.8 186.009 126.962 185.685 127.286C185.373 127.61 185.217 128.054 185.217 128.618V133.568C185.217 133.688 185.175 133.79 185.091 133.874C185.007 133.958 184.899 134 184.767 134H183.201ZM193.821 134.18C193.101 134.18 192.483 134.096 191.967 133.928C191.463 133.76 191.049 133.55 190.725 133.298C190.401 133.046 190.161 132.794 190.005 132.542C189.849 132.29 189.765 132.08 189.753 131.912C189.741 131.78 189.777 131.678 189.861 131.606C189.957 131.522 190.059 131.48 190.167 131.48H191.589C191.637 131.48 191.679 131.486 191.715 131.498C191.751 131.51 191.799 131.546 191.859 131.606C192.015 131.738 192.177 131.876 192.345 132.02C192.525 132.164 192.735 132.29 192.975 132.398C193.215 132.494 193.515 132.542 193.875 132.542C194.343 132.542 194.733 132.452 195.045 132.272C195.369 132.08 195.531 131.81 195.531 131.462C195.531 131.21 195.459 131.006 195.315 130.85C195.183 130.694 194.931 130.556 194.559 130.436C194.187 130.304 193.659 130.166 192.975 130.022C192.303 129.866 191.745 129.668 191.301 129.428C190.857 129.188 190.527 128.888 190.311 128.528C190.095 128.168 189.987 127.748 189.987 127.268C189.987 126.8 190.125 126.356 190.401 125.936C190.689 125.504 191.109 125.15 191.661 124.874C192.225 124.598 192.921 124.46 193.749 124.46C194.397 124.46 194.961 124.544 195.441 124.712C195.921 124.868 196.317 125.066 196.629 125.306C196.953 125.546 197.199 125.792 197.367 126.044C197.535 126.284 197.625 126.494 197.637 126.674C197.649 126.806 197.613 126.914 197.529 126.998C197.445 127.07 197.349 127.106 197.241 127.106H195.909C195.849 127.106 195.795 127.094 195.747 127.07C195.699 127.046 195.651 127.016 195.603 126.98C195.471 126.86 195.327 126.734 195.171 126.602C195.015 126.47 194.823 126.356 194.595 126.26C194.379 126.152 194.091 126.098 193.731 126.098C193.275 126.098 192.927 126.2 192.687 126.404C192.447 126.596 192.327 126.842 192.327 127.142C192.327 127.346 192.381 127.526 192.489 127.682C192.609 127.826 192.843 127.964 193.191 128.096C193.539 128.228 194.067 128.366 194.775 128.51C195.579 128.654 196.215 128.87 196.683 129.158C197.163 129.434 197.499 129.758 197.691 130.13C197.895 130.49 197.997 130.892 197.997 131.336C197.997 131.876 197.835 132.362 197.511 132.794C197.199 133.226 196.731 133.568 196.107 133.82C195.495 134.06 194.733 134.18 193.821 134.18Z" fill="white"/>
<defs>
<clipPath id="clip0_302_1955">
<rect width="20" height="20" fill="white" transform="translate(111 168)"/>
</clipPath>
</defs>
</svg>
