<svg width="327" height="80" viewBox="0 0 327 80" fill="none" xmlns="http://www.w3.org/2000/svg">
<rect x="1" y="1" width="325" height="78" rx="19" fill="white" stroke="#EFEEFC" stroke-width="2"/>
<path d="M296 46L302 40L296 34" stroke="#6A5AE0" stroke-width="2" stroke-linecap="round" stroke-linejoin="round"/>
<path d="M89.632 33C89.5253 33 89.4347 32.9627 89.36 32.888C89.2853 32.8133 89.248 32.7227 89.248 32.616V22.184C89.248 22.0773 89.2853 21.9867 89.36 21.912C89.4347 21.8373 89.5253 21.8 89.632 21.8H91.136C91.2533 21.8 91.344 21.8373 91.408 21.912C91.4827 21.9867 91.52 22.0773 91.52 22.184V32.616C91.52 32.7227 91.4827 32.8133 91.408 32.888C91.344 32.9627 91.2533 33 91.136 33H89.632ZM94.2213 33C94.1146 33 94.0239 32.9627 93.9493 32.888C93.8746 32.8133 93.8372 32.7227 93.8372 32.616V25.064C93.8372 24.9573 93.8746 24.8667 93.9493 24.792C94.0239 24.7173 94.1146 24.68 94.2213 24.68H95.5333C95.6399 24.68 95.7306 24.7173 95.8053 24.792C95.8799 24.8667 95.9173 24.9573 95.9173 25.064V25.72C96.1946 25.3787 96.5466 25.096 96.9733 24.872C97.4106 24.6373 97.9493 24.52 98.5893 24.52C99.2399 24.52 99.8053 24.6693 100.285 24.968C100.765 25.256 101.133 25.6667 101.389 26.2C101.656 26.7333 101.789 27.3733 101.789 28.12V32.616C101.789 32.7227 101.752 32.8133 101.677 32.888C101.603 32.9627 101.512 33 101.405 33H99.9973C99.8906 33 99.7999 32.9627 99.7253 32.888C99.6506 32.8133 99.6133 32.7227 99.6133 32.616V28.216C99.6133 27.5973 99.4586 27.112 99.1493 26.76C98.8506 26.408 98.4133 26.232 97.8373 26.232C97.2826 26.232 96.8399 26.408 96.5093 26.76C96.1786 27.112 96.0133 27.5973 96.0133 28.216V32.616C96.0133 32.7227 95.9759 32.8133 95.9013 32.888C95.8266 32.9627 95.7359 33 95.6293 33H94.2213ZM107.488 33C106.848 33 106.309 32.888 105.872 32.664C105.435 32.44 105.109 32.1093 104.896 31.672C104.683 31.224 104.576 30.6693 104.576 30.008V26.376H103.312C103.205 26.376 103.115 26.3387 103.04 26.264C102.965 26.1893 102.928 26.0987 102.928 25.992V25.064C102.928 24.9573 102.965 24.8667 103.04 24.792C103.115 24.7173 103.205 24.68 103.312 24.68H104.576V22.024C104.576 21.9173 104.608 21.8267 104.672 21.752C104.747 21.6773 104.843 21.64 104.96 21.64H106.256C106.363 21.64 106.453 21.6773 106.528 21.752C106.603 21.8267 106.64 21.9173 106.64 22.024V24.68H108.64C108.747 24.68 108.837 24.7173 108.912 24.792C108.987 24.8667 109.024 24.9573 109.024 25.064V25.992C109.024 26.0987 108.987 26.1893 108.912 26.264C108.837 26.3387 108.747 26.376 108.64 26.376H106.64V29.848C106.64 30.2853 106.715 30.6267 106.864 30.872C107.024 31.1173 107.296 31.24 107.68 31.24H108.784C108.891 31.24 108.981 31.2773 109.056 31.352C109.131 31.4267 109.168 31.5173 109.168 31.624V32.616C109.168 32.7227 109.131 32.8133 109.056 32.888C108.981 32.9627 108.891 33 108.784 33H107.488ZM114.171 33.16C112.987 33.16 112.049 32.8187 111.355 32.136C110.662 31.4533 110.289 30.4827 110.235 29.224C110.225 29.1173 110.219 28.984 110.219 28.824C110.219 28.6533 110.225 28.52 110.235 28.424C110.278 27.624 110.459 26.9307 110.779 26.344C111.11 25.7573 111.563 25.3093 112.139 25C112.715 24.68 113.393 24.52 114.171 24.52C115.035 24.52 115.761 24.7013 116.347 25.064C116.934 25.416 117.377 25.912 117.675 26.552C117.974 27.1813 118.123 27.912 118.123 28.744V29.08C118.123 29.1867 118.086 29.2773 118.011 29.352C117.937 29.4267 117.841 29.464 117.723 29.464H112.411C112.411 29.464 112.411 29.48 112.411 29.512C112.411 29.544 112.411 29.5707 112.411 29.592C112.422 29.9653 112.491 30.312 112.619 30.632C112.758 30.9413 112.955 31.192 113.211 31.384C113.478 31.576 113.793 31.672 114.155 31.672C114.454 31.672 114.705 31.6293 114.907 31.544C115.11 31.448 115.275 31.3413 115.403 31.224C115.531 31.1067 115.622 31.0107 115.675 30.936C115.771 30.808 115.846 30.7333 115.899 30.712C115.963 30.68 116.054 30.664 116.171 30.664H117.547C117.654 30.664 117.739 30.696 117.803 30.76C117.878 30.824 117.91 30.904 117.899 31C117.889 31.1707 117.798 31.3787 117.627 31.624C117.467 31.8693 117.233 32.1093 116.923 32.344C116.614 32.5787 116.225 32.776 115.755 32.936C115.297 33.0853 114.769 33.16 114.171 33.16ZM112.411 28.12H115.947V28.072C115.947 27.656 115.878 27.2933 115.739 26.984C115.601 26.6747 115.398 26.4293 115.131 26.248C114.865 26.0667 114.545 25.976 114.171 25.976C113.798 25.976 113.478 26.0667 113.211 26.248C112.945 26.4293 112.742 26.6747 112.603 26.984C112.475 27.2933 112.411 27.656 112.411 28.072V28.12ZM123.582 36.52C122.803 36.52 122.163 36.4187 121.662 36.216C121.16 36.0133 120.766 35.768 120.478 35.48C120.19 35.192 119.982 34.904 119.854 34.616C119.736 34.3387 119.672 34.12 119.662 33.96C119.651 33.8533 119.683 33.7573 119.758 33.672C119.843 33.5973 119.939 33.56 120.046 33.56H121.438C121.544 33.56 121.63 33.5813 121.694 33.624C121.758 33.6773 121.811 33.768 121.854 33.896C121.918 34.0347 122.003 34.184 122.11 34.344C122.216 34.504 122.376 34.6373 122.59 34.744C122.814 34.8613 123.118 34.92 123.502 34.92C123.907 34.92 124.248 34.8613 124.526 34.744C124.803 34.6267 125.011 34.4293 125.15 34.152C125.299 33.8747 125.374 33.4907 125.374 33V31.912C125.118 32.2213 124.787 32.472 124.382 32.664C123.987 32.856 123.496 32.952 122.91 32.952C122.334 32.952 121.838 32.8613 121.422 32.68C121.006 32.488 120.659 32.2267 120.382 31.896C120.104 31.5547 119.891 31.1547 119.742 30.696C119.603 30.2373 119.523 29.7307 119.502 29.176C119.491 28.888 119.491 28.6 119.502 28.312C119.523 27.7787 119.603 27.2827 119.742 26.824C119.88 26.3653 120.088 25.9653 120.366 25.624C120.654 25.272 121.006 25 121.422 24.808C121.838 24.616 122.334 24.52 122.91 24.52C123.518 24.52 124.03 24.6373 124.446 24.872C124.862 25.096 125.203 25.3787 125.47 25.72V25.08C125.47 24.9627 125.507 24.8667 125.582 24.792C125.656 24.7173 125.747 24.68 125.854 24.68H127.15C127.256 24.68 127.347 24.7173 127.422 24.792C127.496 24.8667 127.534 24.9627 127.534 25.08L127.55 32.792C127.55 33.56 127.406 34.2213 127.118 34.776C126.83 35.3307 126.392 35.7573 125.806 36.056C125.23 36.3653 124.488 36.52 123.582 36.52ZM123.502 31.256C123.939 31.256 124.291 31.16 124.558 30.968C124.824 30.776 125.022 30.5253 125.15 30.216C125.278 29.9067 125.352 29.592 125.374 29.272C125.384 29.1333 125.39 28.9573 125.39 28.744C125.39 28.5307 125.384 28.36 125.374 28.232C125.352 27.9013 125.278 27.5867 125.15 27.288C125.022 26.9787 124.824 26.728 124.558 26.536C124.291 26.3333 123.939 26.232 123.502 26.232C123.064 26.232 122.712 26.3333 122.446 26.536C122.179 26.728 121.987 26.984 121.87 27.304C121.763 27.624 121.699 27.976 121.678 28.36C121.656 28.616 121.656 28.8773 121.678 29.144C121.699 29.5173 121.763 29.8693 121.87 30.2C121.987 30.52 122.179 30.776 122.446 30.968C122.712 31.16 123.064 31.256 123.502 31.256ZM133.265 33.16C132.081 33.16 131.142 32.8187 130.449 32.136C129.756 31.4533 129.382 30.4827 129.329 29.224C129.318 29.1173 129.313 28.984 129.313 28.824C129.313 28.6533 129.318 28.52 129.329 28.424C129.372 27.624 129.553 26.9307 129.873 26.344C130.204 25.7573 130.657 25.3093 131.233 25C131.809 24.68 132.486 24.52 133.265 24.52C134.129 24.52 134.854 24.7013 135.441 25.064C136.028 25.416 136.47 25.912 136.769 26.552C137.068 27.1813 137.217 27.912 137.217 28.744V29.08C137.217 29.1867 137.18 29.2773 137.105 29.352C137.03 29.4267 136.934 29.464 136.817 29.464H131.505C131.505 29.464 131.505 29.48 131.505 29.512C131.505 29.544 131.505 29.5707 131.505 29.592C131.516 29.9653 131.585 30.312 131.713 30.632C131.852 30.9413 132.049 31.192 132.305 31.384C132.572 31.576 132.886 31.672 133.249 31.672C133.548 31.672 133.798 31.6293 134.001 31.544C134.204 31.448 134.369 31.3413 134.497 31.224C134.625 31.1067 134.716 31.0107 134.769 30.936C134.865 30.808 134.94 30.7333 134.993 30.712C135.057 30.68 135.148 30.664 135.265 30.664H136.641C136.748 30.664 136.833 30.696 136.897 30.76C136.972 30.824 137.004 30.904 136.993 31C136.982 31.1707 136.892 31.3787 136.721 31.624C136.561 31.8693 136.326 32.1093 136.017 32.344C135.708 32.5787 135.318 32.776 134.849 32.936C134.39 33.0853 133.862 33.16 133.265 33.16ZM131.505 28.12H135.041V28.072C135.041 27.656 134.972 27.2933 134.833 26.984C134.694 26.6747 134.492 26.4293 134.225 26.248C133.958 26.0667 133.638 25.976 133.265 25.976C132.892 25.976 132.572 26.0667 132.305 26.248C132.038 26.4293 131.836 26.6747 131.697 26.984C131.569 27.2933 131.505 27.656 131.505 28.072V28.12ZM139.299 33C139.193 33 139.102 32.9627 139.027 32.888C138.953 32.8133 138.915 32.7227 138.915 32.616V25.08C138.915 24.9627 138.953 24.8667 139.027 24.792C139.102 24.7173 139.193 24.68 139.299 24.68H140.595C140.702 24.68 140.793 24.7173 140.867 24.792C140.953 24.8667 140.995 24.9627 140.995 25.08V25.736C141.241 25.3947 141.555 25.1333 141.939 24.952C142.334 24.7707 142.787 24.68 143.299 24.68H143.955C144.073 24.68 144.163 24.7173 144.227 24.792C144.302 24.8667 144.339 24.9573 144.339 25.064V26.216C144.339 26.3227 144.302 26.4133 144.227 26.488C144.163 26.5627 144.073 26.6 143.955 26.6H142.707C142.195 26.6 141.795 26.744 141.507 27.032C141.23 27.32 141.091 27.7147 141.091 28.216V32.616C141.091 32.7227 141.054 32.8133 140.979 32.888C140.905 32.9627 140.809 33 140.691 33H139.299ZM148.739 33.16C148.099 33.16 147.55 33.0853 147.091 32.936C146.643 32.7867 146.275 32.6 145.987 32.376C145.699 32.152 145.486 31.928 145.347 31.704C145.209 31.48 145.134 31.2933 145.123 31.144C145.113 31.0267 145.145 30.936 145.219 30.872C145.305 30.7973 145.395 30.76 145.491 30.76H146.755C146.798 30.76 146.835 30.7653 146.867 30.776C146.899 30.7867 146.942 30.8187 146.995 30.872C147.134 30.9893 147.278 31.112 147.427 31.24C147.587 31.368 147.774 31.48 147.987 31.576C148.201 31.6613 148.467 31.704 148.787 31.704C149.203 31.704 149.55 31.624 149.827 31.464C150.115 31.2933 150.259 31.0533 150.259 30.744C150.259 30.52 150.195 30.3387 150.067 30.2C149.95 30.0613 149.726 29.9387 149.395 29.832C149.065 29.7147 148.595 29.592 147.987 29.464C147.39 29.3253 146.894 29.1493 146.499 28.936C146.105 28.7227 145.811 28.456 145.619 28.136C145.427 27.816 145.331 27.4427 145.331 27.016C145.331 26.6 145.454 26.2053 145.699 25.832C145.955 25.448 146.329 25.1333 146.819 24.888C147.321 24.6427 147.939 24.52 148.675 24.52C149.251 24.52 149.753 24.5947 150.179 24.744C150.606 24.8827 150.958 25.0587 151.235 25.272C151.523 25.4853 151.742 25.704 151.891 25.928C152.041 26.1413 152.121 26.328 152.131 26.488C152.142 26.6053 152.11 26.7013 152.035 26.776C151.961 26.84 151.875 26.872 151.779 26.872H150.595C150.542 26.872 150.494 26.8613 150.451 26.84C150.409 26.8187 150.366 26.792 150.323 26.76C150.206 26.6533 150.078 26.5413 149.939 26.424C149.801 26.3067 149.63 26.2053 149.427 26.12C149.235 26.024 148.979 25.976 148.659 25.976C148.254 25.976 147.945 26.0667 147.731 26.248C147.518 26.4187 147.411 26.6373 147.411 26.904C147.411 27.0853 147.459 27.2453 147.555 27.384C147.662 27.512 147.87 27.6347 148.179 27.752C148.489 27.8693 148.958 27.992 149.587 28.12C150.302 28.248 150.867 28.44 151.283 28.696C151.71 28.9413 152.009 29.2293 152.179 29.56C152.361 29.88 152.451 30.2373 152.451 30.632C152.451 31.112 152.307 31.544 152.019 31.928C151.742 32.312 151.326 32.616 150.771 32.84C150.227 33.0533 149.55 33.16 148.739 33.16ZM165.135 34.04C164.986 34.04 164.863 33.992 164.767 33.896C164.682 33.8107 164.612 33.736 164.559 33.672L163.967 32.872C163.466 33.064 162.895 33.16 162.255 33.16C161.306 33.16 160.484 33.0053 159.791 32.696C159.108 32.376 158.575 31.8907 158.191 31.24C157.818 30.5787 157.61 29.7573 157.567 28.776C157.556 28.3173 157.551 27.864 157.551 27.416C157.551 26.968 157.556 26.5093 157.567 26.04C157.61 25.0693 157.823 24.2587 158.207 23.608C158.602 22.9573 159.146 22.4667 159.839 22.136C160.532 21.8053 161.338 21.64 162.255 21.64C163.172 21.64 163.978 21.8053 164.671 22.136C165.364 22.4667 165.908 22.9573 166.303 23.608C166.698 24.2587 166.906 25.0693 166.927 26.04C166.948 26.5093 166.959 26.968 166.959 27.416C166.959 27.864 166.948 28.3173 166.927 28.776C166.874 30.1733 166.49 31.2347 165.775 31.96L166.895 33.544C166.906 33.5547 166.916 33.5707 166.927 33.592C166.938 33.624 166.943 33.6613 166.943 33.704C166.954 33.8 166.922 33.88 166.847 33.944C166.783 34.008 166.708 34.04 166.623 34.04H165.135ZM162.255 31.32C162.938 31.32 163.498 31.1173 163.935 30.712C164.372 30.296 164.607 29.624 164.639 28.696C164.66 28.2267 164.671 27.7947 164.671 27.4C164.671 26.9947 164.66 26.5627 164.639 26.104C164.628 25.4853 164.516 24.984 164.303 24.6C164.09 24.2053 163.807 23.9227 163.455 23.752C163.114 23.5707 162.714 23.48 162.255 23.48C161.807 23.48 161.407 23.5707 161.055 23.752C160.703 23.9227 160.42 24.2053 160.207 24.6C160.004 24.984 159.887 25.4853 159.855 26.104C159.844 26.5627 159.839 26.9947 159.839 27.4C159.839 27.7947 159.844 28.2267 159.855 28.696C159.898 29.624 160.138 30.296 160.575 30.712C161.012 31.1173 161.572 31.32 162.255 31.32ZM171.972 33.16C171.321 33.16 170.756 33.016 170.276 32.728C169.807 32.4293 169.444 32.0133 169.188 31.48C168.932 30.936 168.804 30.296 168.804 29.56V25.064C168.804 24.9573 168.841 24.8667 168.916 24.792C168.991 24.7173 169.081 24.68 169.188 24.68H170.596C170.713 24.68 170.804 24.7173 170.868 24.792C170.943 24.8667 170.98 24.9573 170.98 25.064V29.464C170.98 30.7867 171.561 31.448 172.724 31.448C173.279 31.448 173.716 31.272 174.036 30.92C174.367 30.568 174.532 30.0827 174.532 29.464V25.064C174.532 24.9573 174.569 24.8667 174.644 24.792C174.719 24.7173 174.809 24.68 174.916 24.68H176.324C176.431 24.68 176.521 24.7173 176.596 24.792C176.671 24.8667 176.708 24.9573 176.708 25.064V32.616C176.708 32.7227 176.671 32.8133 176.596 32.888C176.521 32.9627 176.431 33 176.324 33H175.028C174.911 33 174.815 32.9627 174.74 32.888C174.676 32.8133 174.644 32.7227 174.644 32.616V31.96C174.356 32.3333 173.999 32.6267 173.572 32.84C173.145 33.0533 172.612 33.16 171.972 33.16ZM179.206 33C179.099 33 179.008 32.9627 178.934 32.888C178.859 32.8133 178.822 32.7227 178.822 32.616V25.064C178.822 24.9573 178.859 24.8667 178.934 24.792C179.008 24.7173 179.099 24.68 179.206 24.68H180.534C180.651 24.68 180.742 24.7173 180.806 24.792C180.88 24.8667 180.918 24.9573 180.918 25.064V32.616C180.918 32.7227 180.88 32.8133 180.806 32.888C180.742 32.9627 180.651 33 180.534 33H179.206ZM179.142 23.304C179.024 23.304 178.928 23.272 178.854 23.208C178.79 23.1333 178.758 23.0373 178.758 22.92V21.768C178.758 21.6613 178.79 21.5707 178.854 21.496C178.928 21.4213 179.024 21.384 179.142 21.384H180.598C180.715 21.384 180.811 21.4213 180.886 21.496C180.96 21.5707 180.998 21.6613 180.998 21.768V22.92C180.998 23.0373 180.96 23.1333 180.886 23.208C180.811 23.272 180.715 23.304 180.598 23.304H179.142ZM183.18 33C183.063 33 182.967 32.9627 182.892 32.888C182.828 32.8133 182.796 32.7227 182.796 32.616V31.704C182.796 31.608 182.818 31.5173 182.86 31.432C182.914 31.336 182.967 31.256 183.02 31.192L187.116 26.344H183.308C183.202 26.344 183.111 26.312 183.036 26.248C182.962 26.1733 182.924 26.0773 182.924 25.96V25.064C182.924 24.9573 182.962 24.8667 183.036 24.792C183.111 24.7173 183.202 24.68 183.308 24.68H189.372C189.49 24.68 189.58 24.7173 189.644 24.792C189.719 24.8667 189.756 24.9573 189.756 25.064V26.04C189.756 26.136 189.735 26.2213 189.692 26.296C189.65 26.3707 189.596 26.4507 189.532 26.536L185.532 31.336H189.708C189.815 31.336 189.906 31.3733 189.98 31.448C190.055 31.512 190.092 31.6027 190.092 31.72V32.616C190.092 32.7227 190.055 32.8133 189.98 32.888C189.906 32.9627 189.815 33 189.708 33H183.18Z" fill="#0C092A"/>
<path d="M89.32 59C89.24 59 89.172 58.976 89.116 58.928C89.068 58.872 89.044 58.804 89.044 58.724V50.888C89.044 50.8 89.068 50.732 89.116 50.684C89.172 50.628 89.24 50.6 89.32 50.6H89.92C90.016 50.6 90.088 50.624 90.136 50.672C90.184 50.72 90.212 50.76 90.22 50.792L92.764 55.64L95.32 50.792C95.336 50.76 95.364 50.72 95.404 50.672C95.452 50.624 95.524 50.6 95.62 50.6H96.208C96.296 50.6 96.364 50.628 96.412 50.684C96.468 50.732 96.496 50.8 96.496 50.888V58.724C96.496 58.804 96.468 58.872 96.412 58.928C96.364 58.976 96.296 59 96.208 59H95.62C95.54 59 95.472 58.976 95.416 58.928C95.368 58.872 95.344 58.804 95.344 58.724V52.82L93.34 56.732C93.308 56.812 93.26 56.876 93.196 56.924C93.132 56.964 93.052 56.984 92.956 56.984H92.584C92.48 56.984 92.396 56.964 92.332 56.924C92.276 56.876 92.228 56.812 92.188 56.732L90.184 52.82V58.724C90.184 58.804 90.156 58.872 90.1 58.928C90.052 58.976 89.988 59 89.908 59H89.32ZM100.155 59.12C99.7553 59.12 99.3913 59.04 99.0633 58.88C98.7353 58.72 98.4713 58.504 98.2713 58.232C98.0713 57.96 97.9713 57.652 97.9713 57.308C97.9713 56.756 98.1953 56.316 98.6433 55.988C99.0913 55.66 99.6753 55.444 100.395 55.34L102.183 55.088V54.74C102.183 54.356 102.071 54.056 101.847 53.84C101.631 53.624 101.275 53.516 100.779 53.516C100.419 53.516 100.127 53.588 99.9033 53.732C99.6873 53.876 99.5353 54.06 99.4473 54.284C99.3993 54.404 99.3153 54.464 99.1953 54.464H98.6553C98.5673 54.464 98.4993 54.44 98.4513 54.392C98.4113 54.336 98.3913 54.272 98.3913 54.2C98.3913 54.08 98.4353 53.932 98.5233 53.756C98.6193 53.58 98.7633 53.408 98.9553 53.24C99.1473 53.072 99.3913 52.932 99.6873 52.82C99.9913 52.7 100.359 52.64 100.791 52.64C101.271 52.64 101.675 52.704 102.003 52.832C102.331 52.952 102.587 53.116 102.771 53.324C102.963 53.532 103.099 53.768 103.179 54.032C103.267 54.296 103.311 54.564 103.311 54.836V58.724C103.311 58.804 103.283 58.872 103.227 58.928C103.179 58.976 103.115 59 103.035 59H102.483C102.395 59 102.327 58.976 102.279 58.928C102.231 58.872 102.207 58.804 102.207 58.724V58.208C102.103 58.352 101.963 58.496 101.787 58.64C101.611 58.776 101.391 58.892 101.127 58.988C100.863 59.076 100.539 59.12 100.155 59.12ZM100.407 58.22C100.735 58.22 101.035 58.152 101.307 58.016C101.579 57.872 101.791 57.652 101.943 57.356C102.103 57.06 102.183 56.688 102.183 56.24V55.904L100.791 56.108C100.223 56.188 99.7953 56.324 99.5073 56.516C99.2193 56.7 99.0753 56.936 99.0753 57.224C99.0753 57.448 99.1393 57.636 99.2673 57.788C99.4033 57.932 99.5713 58.04 99.7713 58.112C99.9793 58.184 100.191 58.22 100.407 58.22ZM107.414 59C106.966 59 106.602 58.916 106.322 58.748C106.042 58.572 105.838 58.328 105.71 58.016C105.582 57.696 105.518 57.32 105.518 56.888V53.72H104.582C104.502 53.72 104.434 53.696 104.378 53.648C104.33 53.592 104.306 53.524 104.306 53.444V53.036C104.306 52.956 104.33 52.892 104.378 52.844C104.434 52.788 104.502 52.76 104.582 52.76H105.518V50.756C105.518 50.676 105.542 50.612 105.59 50.564C105.646 50.508 105.714 50.48 105.794 50.48H106.358C106.438 50.48 106.502 50.508 106.55 50.564C106.606 50.612 106.634 50.676 106.634 50.756V52.76H108.122C108.202 52.76 108.266 52.788 108.314 52.844C108.37 52.892 108.398 52.956 108.398 53.036V53.444C108.398 53.524 108.37 53.592 108.314 53.648C108.266 53.696 108.202 53.72 108.122 53.72H106.634V56.804C106.634 57.18 106.698 57.476 106.826 57.692C106.954 57.908 107.182 58.016 107.51 58.016H108.242C108.322 58.016 108.386 58.044 108.434 58.1C108.49 58.148 108.518 58.212 108.518 58.292V58.724C108.518 58.804 108.49 58.872 108.434 58.928C108.386 58.976 108.322 59 108.242 59H107.414ZM109.953 59C109.873 59 109.805 58.976 109.749 58.928C109.701 58.872 109.677 58.804 109.677 58.724V50.756C109.677 50.676 109.701 50.612 109.749 50.564C109.805 50.508 109.873 50.48 109.953 50.48H110.553C110.641 50.48 110.709 50.508 110.757 50.564C110.805 50.612 110.829 50.676 110.829 50.756V53.552C111.045 53.28 111.309 53.06 111.621 52.892C111.933 52.724 112.329 52.64 112.809 52.64C113.329 52.64 113.769 52.756 114.129 52.988C114.497 53.212 114.773 53.528 114.957 53.936C115.149 54.336 115.245 54.804 115.245 55.34V58.724C115.245 58.804 115.221 58.872 115.173 58.928C115.125 58.976 115.057 59 114.969 59H114.369C114.289 59 114.221 58.976 114.165 58.928C114.117 58.872 114.093 58.804 114.093 58.724V55.4C114.093 54.84 113.957 54.404 113.685 54.092C113.413 53.772 113.013 53.612 112.485 53.612C111.989 53.612 111.589 53.772 111.285 54.092C110.981 54.404 110.829 54.84 110.829 55.4V58.724C110.829 58.804 110.805 58.872 110.757 58.928C110.709 58.976 110.641 59 110.553 59H109.953ZM121.323 56.576C121.091 56.576 120.875 56.52 120.675 56.408C120.475 56.288 120.315 56.132 120.195 55.94C120.083 55.74 120.027 55.524 120.027 55.292C120.027 55.052 120.083 54.836 120.195 54.644C120.315 54.444 120.475 54.288 120.675 54.176C120.875 54.056 121.091 53.996 121.323 53.996C121.563 53.996 121.779 54.056 121.971 54.176C122.163 54.288 122.315 54.444 122.427 54.644C122.547 54.836 122.607 55.052 122.607 55.292C122.607 55.524 122.547 55.74 122.427 55.94C122.315 56.132 122.163 56.288 121.971 56.408C121.779 56.52 121.563 56.576 121.323 56.576ZM129.855 59C129.775 59 129.707 58.976 129.651 58.928C129.603 58.872 129.579 58.804 129.579 58.724V52.004L127.587 53.54C127.523 53.588 127.455 53.608 127.383 53.6C127.311 53.592 127.251 53.556 127.203 53.492L126.891 53.096C126.843 53.024 126.823 52.952 126.831 52.88C126.847 52.808 126.887 52.748 126.951 52.7L129.567 50.684C129.623 50.644 129.675 50.62 129.723 50.612C129.771 50.604 129.823 50.6 129.879 50.6H130.491C130.571 50.6 130.635 50.628 130.683 50.684C130.731 50.732 130.755 50.796 130.755 50.876V58.724C130.755 58.804 130.731 58.872 130.683 58.928C130.635 58.976 130.571 59 130.491 59H129.855ZM135.48 59.12C134.928 59.12 134.46 59.036 134.076 58.868C133.7 58.692 133.392 58.452 133.152 58.148C132.912 57.844 132.736 57.496 132.624 57.104C132.52 56.712 132.46 56.296 132.444 55.856C132.436 55.64 132.428 55.412 132.42 55.172C132.42 54.932 132.42 54.692 132.42 54.452C132.428 54.204 132.436 53.968 132.444 53.744C132.452 53.304 132.512 52.888 132.624 52.496C132.744 52.096 132.92 51.748 133.152 51.452C133.392 51.148 133.704 50.912 134.088 50.744C134.472 50.568 134.936 50.48 135.48 50.48C136.032 50.48 136.496 50.568 136.872 50.744C137.256 50.912 137.568 51.148 137.808 51.452C138.048 51.748 138.224 52.096 138.336 52.496C138.456 52.888 138.52 53.304 138.528 53.744C138.536 53.968 138.54 54.204 138.54 54.452C138.548 54.692 138.548 54.932 138.54 55.172C138.54 55.412 138.536 55.64 138.528 55.856C138.52 56.296 138.456 56.712 138.336 57.104C138.224 57.496 138.048 57.844 137.808 58.148C137.576 58.452 137.268 58.692 136.884 58.868C136.508 59.036 136.04 59.12 135.48 59.12ZM135.48 58.1C136.104 58.1 136.564 57.896 136.86 57.488C137.164 57.072 137.32 56.508 137.328 55.796C137.344 55.564 137.352 55.34 137.352 55.124C137.352 54.9 137.352 54.68 137.352 54.464C137.352 54.24 137.344 54.02 137.328 53.804C137.32 53.108 137.164 52.552 136.86 52.136C136.564 51.712 136.104 51.5 135.48 51.5C134.864 51.5 134.404 51.712 134.1 52.136C133.804 52.552 133.648 53.108 133.632 53.804C133.632 54.02 133.628 54.24 133.62 54.464C133.62 54.68 133.62 54.9 133.62 55.124C133.628 55.34 133.632 55.564 133.632 55.796C133.648 56.508 133.808 57.072 134.112 57.488C134.416 57.896 134.872 58.1 135.48 58.1ZM148.69 59.78C148.586 59.78 148.502 59.744 148.438 59.672C148.374 59.608 148.322 59.552 148.282 59.504L147.79 58.832C147.358 59.024 146.858 59.12 146.29 59.12C145.602 59.12 145.014 59.004 144.526 58.772C144.046 58.532 143.67 58.168 143.398 57.68C143.134 57.184 142.99 56.564 142.966 55.82C142.958 55.468 142.954 55.132 142.954 54.812C142.954 54.484 142.958 54.144 142.966 53.792C142.99 53.056 143.142 52.444 143.422 51.956C143.702 51.46 144.086 51.092 144.574 50.852C145.07 50.604 145.642 50.48 146.29 50.48C146.946 50.48 147.518 50.604 148.006 50.852C148.502 51.092 148.89 51.46 149.17 51.956C149.45 52.444 149.598 53.056 149.614 53.792C149.63 54.144 149.638 54.484 149.638 54.812C149.638 55.132 149.63 55.468 149.614 55.82C149.574 56.924 149.286 57.744 148.75 58.28L149.542 59.408C149.55 59.416 149.558 59.428 149.566 59.444C149.574 59.468 149.578 59.5 149.578 59.54C149.586 59.604 149.566 59.66 149.518 59.708C149.47 59.756 149.41 59.78 149.338 59.78H148.69ZM146.29 58.1C146.898 58.1 147.398 57.916 147.79 57.548C148.182 57.18 148.394 56.584 148.426 55.76C148.442 55.4 148.45 55.08 148.45 54.8C148.45 54.512 148.442 54.192 148.426 53.84C148.41 53.288 148.306 52.84 148.114 52.496C147.93 52.152 147.682 51.9 147.37 51.74C147.058 51.58 146.698 51.5 146.29 51.5C145.898 51.5 145.542 51.58 145.222 51.74C144.91 51.9 144.662 52.152 144.478 52.496C144.294 52.84 144.19 53.288 144.166 53.84C144.158 54.192 144.154 54.512 144.154 54.8C144.154 55.08 144.158 55.4 144.166 55.76C144.198 56.584 144.41 57.18 144.802 57.548C145.194 57.916 145.69 58.1 146.29 58.1ZM153.571 59.12C153.059 59.12 152.623 59.008 152.263 58.784C151.911 58.552 151.643 58.232 151.459 57.824C151.275 57.416 151.183 56.948 151.183 56.42V53.036C151.183 52.956 151.207 52.892 151.255 52.844C151.311 52.788 151.379 52.76 151.459 52.76H152.059C152.139 52.76 152.203 52.788 152.251 52.844C152.307 52.892 152.335 52.956 152.335 53.036V56.36C152.335 57.552 152.855 58.148 153.895 58.148C154.391 58.148 154.787 57.992 155.083 57.68C155.387 57.36 155.539 56.92 155.539 56.36V53.036C155.539 52.956 155.563 52.892 155.611 52.844C155.667 52.788 155.735 52.76 155.815 52.76H156.403C156.491 52.76 156.559 52.788 156.607 52.844C156.655 52.892 156.679 52.956 156.679 53.036V58.724C156.679 58.804 156.655 58.872 156.607 58.928C156.559 58.976 156.491 59 156.403 59H155.851C155.771 59 155.703 58.976 155.647 58.928C155.599 58.872 155.575 58.804 155.575 58.724V58.196C155.359 58.476 155.095 58.7 154.783 58.868C154.479 59.036 154.075 59.12 153.571 59.12ZM158.738 59C158.658 59 158.59 58.976 158.534 58.928C158.486 58.872 158.462 58.804 158.462 58.724V53.036C158.462 52.956 158.486 52.892 158.534 52.844C158.59 52.788 158.658 52.76 158.738 52.76H159.314C159.394 52.76 159.458 52.788 159.506 52.844C159.554 52.892 159.578 52.956 159.578 53.036V58.724C159.578 58.804 159.554 58.872 159.506 58.928C159.458 58.976 159.394 59 159.314 59H158.738ZM158.642 51.596C158.562 51.596 158.494 51.572 158.438 51.524C158.39 51.468 158.366 51.4 158.366 51.32V50.672C158.366 50.592 158.39 50.528 158.438 50.48C158.494 50.424 158.562 50.396 158.642 50.396H159.398C159.478 50.396 159.542 50.424 159.59 50.48C159.646 50.528 159.674 50.592 159.674 50.672V51.32C159.674 51.4 159.646 51.468 159.59 51.524C159.542 51.572 159.478 51.596 159.398 51.596H158.642ZM161.307 59C161.227 59 161.159 58.976 161.103 58.928C161.055 58.872 161.031 58.804 161.031 58.724V58.304C161.031 58.232 161.047 58.164 161.079 58.1C161.119 58.036 161.159 57.976 161.199 57.92L164.511 53.708H161.415C161.335 53.708 161.267 53.684 161.211 53.636C161.163 53.588 161.139 53.52 161.139 53.432V53.036C161.139 52.956 161.163 52.892 161.211 52.844C161.267 52.788 161.335 52.76 161.415 52.76H165.687C165.767 52.76 165.831 52.788 165.879 52.844C165.935 52.892 165.963 52.956 165.963 53.036V53.48C165.963 53.552 165.943 53.616 165.903 53.672C165.871 53.728 165.835 53.788 165.795 53.852L162.519 58.052H165.927C166.007 58.052 166.071 58.076 166.119 58.124C166.175 58.172 166.203 58.24 166.203 58.328V58.724C166.203 58.804 166.175 58.872 166.119 58.928C166.071 58.976 166.007 59 165.927 59H161.307ZM167.413 59C167.333 59 167.265 58.976 167.209 58.928C167.161 58.872 167.137 58.804 167.137 58.724V58.304C167.137 58.232 167.153 58.164 167.185 58.1C167.225 58.036 167.265 57.976 167.305 57.92L170.617 53.708H167.521C167.441 53.708 167.373 53.684 167.317 53.636C167.269 53.588 167.245 53.52 167.245 53.432V53.036C167.245 52.956 167.269 52.892 167.317 52.844C167.373 52.788 167.441 52.76 167.521 52.76H171.793C171.873 52.76 171.937 52.788 171.985 52.844C172.041 52.892 172.069 52.956 172.069 53.036V53.48C172.069 53.552 172.049 53.616 172.009 53.672C171.977 53.728 171.941 53.788 171.901 53.852L168.625 58.052H172.033C172.113 58.052 172.177 58.076 172.225 58.124C172.281 58.172 172.309 58.24 172.309 58.328V58.724C172.309 58.804 172.281 58.872 172.225 58.928C172.177 58.976 172.113 59 172.033 59H167.413ZM176.052 59.12C175.228 59.12 174.572 58.868 174.084 58.364C173.596 57.852 173.328 57.156 173.28 56.276C173.272 56.172 173.268 56.04 173.268 55.88C173.268 55.712 173.272 55.576 173.28 55.472C173.312 54.904 173.444 54.408 173.676 53.984C173.908 53.552 174.224 53.22 174.624 52.988C175.032 52.756 175.508 52.64 176.052 52.64C176.66 52.64 177.168 52.768 177.576 53.024C177.992 53.28 178.308 53.644 178.524 54.116C178.74 54.588 178.848 55.14 178.848 55.772V55.976C178.848 56.064 178.82 56.132 178.764 56.18C178.716 56.228 178.652 56.252 178.572 56.252H174.42C174.42 56.26 174.42 56.276 174.42 56.3C174.42 56.324 174.42 56.344 174.42 56.36C174.436 56.688 174.508 56.996 174.636 57.284C174.764 57.564 174.948 57.792 175.188 57.968C175.428 58.144 175.716 58.232 176.052 58.232C176.34 58.232 176.58 58.188 176.772 58.1C176.964 58.012 177.12 57.916 177.24 57.812C177.36 57.7 177.44 57.616 177.48 57.56C177.552 57.456 177.608 57.396 177.648 57.38C177.688 57.356 177.752 57.344 177.84 57.344H178.416C178.496 57.344 178.56 57.368 178.608 57.416C178.664 57.456 178.688 57.516 178.68 57.596C178.672 57.716 178.608 57.864 178.488 58.04C178.368 58.208 178.196 58.376 177.972 58.544C177.748 58.712 177.476 58.852 177.156 58.964C176.836 59.068 176.468 59.12 176.052 59.12ZM174.42 55.424H177.708V55.388C177.708 55.028 177.64 54.708 177.504 54.428C177.376 54.148 177.188 53.928 176.94 53.768C176.692 53.6 176.396 53.516 176.052 53.516C175.708 53.516 175.412 53.6 175.164 53.768C174.924 53.928 174.74 54.148 174.612 54.428C174.484 54.708 174.42 55.028 174.42 55.388V55.424ZM182.443 59.12C181.995 59.12 181.611 59.064 181.291 58.952C180.971 58.84 180.711 58.704 180.511 58.544C180.311 58.384 180.159 58.224 180.055 58.064C179.959 57.904 179.907 57.776 179.899 57.68C179.891 57.592 179.919 57.524 179.983 57.476C180.047 57.428 180.111 57.404 180.175 57.404H180.703C180.751 57.404 180.787 57.412 180.811 57.428C180.843 57.436 180.883 57.468 180.931 57.524C181.035 57.636 181.151 57.748 181.279 57.86C181.407 57.972 181.563 58.064 181.747 58.136C181.939 58.208 182.175 58.244 182.455 58.244C182.863 58.244 183.199 58.168 183.463 58.016C183.727 57.856 183.859 57.624 183.859 57.32C183.859 57.12 183.803 56.96 183.691 56.84C183.587 56.72 183.395 56.612 183.115 56.516C182.843 56.42 182.467 56.32 181.987 56.216C181.507 56.104 181.127 55.968 180.847 55.808C180.567 55.64 180.367 55.444 180.247 55.22C180.127 54.988 180.067 54.728 180.067 54.44C180.067 54.144 180.155 53.86 180.331 53.588C180.507 53.308 180.763 53.08 181.099 52.904C181.443 52.728 181.871 52.64 182.383 52.64C182.799 52.64 183.155 52.692 183.451 52.796C183.747 52.9 183.991 53.032 184.183 53.192C184.375 53.344 184.519 53.496 184.615 53.648C184.711 53.8 184.763 53.928 184.771 54.032C184.779 54.112 184.755 54.18 184.699 54.236C184.643 54.284 184.579 54.308 184.507 54.308H184.003C183.947 54.308 183.899 54.296 183.859 54.272C183.827 54.248 183.795 54.22 183.763 54.188C183.683 54.084 183.587 53.98 183.475 53.876C183.371 53.772 183.231 53.688 183.055 53.624C182.887 53.552 182.663 53.516 182.383 53.516C181.983 53.516 181.683 53.6 181.483 53.768C181.283 53.936 181.183 54.148 181.183 54.404C181.183 54.556 181.227 54.692 181.315 54.812C181.403 54.932 181.571 55.04 181.819 55.136C182.067 55.232 182.435 55.336 182.923 55.448C183.451 55.552 183.867 55.692 184.171 55.868C184.475 56.044 184.691 56.248 184.819 56.48C184.947 56.712 185.011 56.98 185.011 57.284C185.011 57.62 184.911 57.928 184.711 58.208C184.519 58.488 184.231 58.712 183.847 58.88C183.471 59.04 183.003 59.12 182.443 59.12Z" fill="#858494"/>
<g clip-path="url(#clip0_302_1954)">
<rect x="8" y="8" width="64" height="64" rx="20" fill="#C4D0FB"/>
<rect x="16" y="24" width="48" height="66" rx="8" fill="white"/>
<g clip-path="url(#clip1_302_1954)">
<path d="M42.3334 45.6667H43.5C44.6667 45.6667 44.6667 46.8334 45.852 49.7816C47 52.6668 47 53.8334 48.1667 53.8334H49.3334" stroke="#6A5AE0" stroke-width="3" stroke-linecap="round" stroke-linejoin="round"/>
<path d="M41.1666 53.8334C42.9166 53.8334 44.6666 51.5001 45.8333 49.7501C47 48.0001 48.75 45.6667 50.5 45.6667" stroke="#6A5AE0" stroke-width="3" stroke-linecap="round" stroke-linejoin="round"/>
<path d="M29.5 56.1667C29.5 57.9167 30.0833 58.5 31.8333 58.5C33.5833 58.5 34.1667 53.8333 35.3333 48C36.5 42.1667 37.0833 37.5 38.8333 37.5C40.5833 37.5 41.1667 38.0833 41.1667 39.8333" stroke="#6A5AE0" stroke-width="3" stroke-linecap="round" stroke-linejoin="round"/>
<path d="M31.8334 48H38.8334" stroke="#6A5AE0" stroke-width="3" stroke-linecap="round" stroke-linejoin="round"/>
</g>
</g>
<defs>
<clipPath id="clip0_302_1954">
<rect x="8" y="8" width="64" height="64" rx="20" fill="white"/>
</clipPath>
<clipPath id="clip1_302_1954">
<rect width="28" height="28" fill="white" transform="translate(26 34)"/>
</clipPath>
</defs>
</svg>
