<svg width="327" height="80" viewBox="0 0 327 80" fill="none" xmlns="http://www.w3.org/2000/svg">
<rect x="1" y="1" width="325" height="78" rx="19" fill="white" stroke="#EFEEFC" stroke-width="2"/>
<path d="M296 46L302 40L296 34" stroke="#6A5AE0" stroke-width="2" stroke-linecap="round" stroke-linejoin="round"/>
<path d="M93.136 33.16C92.144 33.16 91.312 33.016 90.64 32.728C89.9787 32.4293 89.472 32.0453 89.12 31.576C88.7787 31.096 88.5973 30.5947 88.576 30.072C88.576 29.976 88.608 29.896 88.672 29.832C88.736 29.768 88.816 29.736 88.912 29.736H90.336C90.4747 29.736 90.576 29.768 90.64 29.832C90.7147 29.8853 90.7787 29.9547 90.832 30.04C90.896 30.2427 91.0187 30.4453 91.2 30.648C91.3813 30.84 91.6267 31 91.936 31.128C92.256 31.256 92.656 31.32 93.136 31.32C93.904 31.32 94.4747 31.192 94.848 30.936C95.232 30.68 95.424 30.3333 95.424 29.896C95.424 29.5867 95.3227 29.3413 95.12 29.16C94.9173 28.968 94.6027 28.7973 94.176 28.648C93.76 28.488 93.2053 28.3227 92.512 28.152C91.712 27.96 91.04 27.7307 90.496 27.464C89.9627 27.1867 89.5573 26.84 89.28 26.424C89.0133 26.008 88.88 25.48 88.88 24.84C88.88 24.2213 89.0453 23.672 89.376 23.192C89.7173 22.712 90.1973 22.3333 90.816 22.056C91.4453 21.7787 92.192 21.64 93.056 21.64C93.7493 21.64 94.3627 21.736 94.896 21.928C95.4293 22.1093 95.872 22.3547 96.224 22.664C96.576 22.9627 96.8427 23.288 97.024 23.64C97.216 23.9813 97.3173 24.3173 97.328 24.648C97.328 24.7333 97.296 24.8133 97.232 24.888C97.1787 24.952 97.0987 24.984 96.992 24.984H95.504C95.4187 24.984 95.3333 24.9627 95.248 24.92C95.1627 24.8773 95.0933 24.7973 95.04 24.68C94.976 24.3493 94.768 24.0667 94.416 23.832C94.064 23.5973 93.6107 23.48 93.056 23.48C92.48 23.48 92.016 23.5867 91.664 23.8C91.312 24.0133 91.136 24.344 91.136 24.792C91.136 25.0907 91.2213 25.3413 91.392 25.544C91.5733 25.736 91.856 25.9067 92.24 26.056C92.6347 26.2053 93.152 26.3653 93.792 26.536C94.6987 26.7387 95.44 26.9733 96.016 27.24C96.592 27.5067 97.0133 27.848 97.28 28.264C97.5467 28.6693 97.68 29.1867 97.68 29.816C97.68 30.52 97.488 31.1227 97.104 31.624C96.7307 32.1147 96.2027 32.4933 95.52 32.76C94.8373 33.0267 94.0427 33.16 93.136 33.16ZM103.082 33C102.442 33 101.903 32.888 101.466 32.664C101.028 32.44 100.703 32.1093 100.49 31.672C100.276 31.224 100.17 30.6693 100.17 30.008V26.376H98.9056C98.799 26.376 98.7083 26.3387 98.6336 26.264C98.559 26.1893 98.5216 26.0987 98.5216 25.992V25.064C98.5216 24.9573 98.559 24.8667 98.6336 24.792C98.7083 24.7173 98.799 24.68 98.9056 24.68H100.17V22.024C100.17 21.9173 100.202 21.8267 100.266 21.752C100.34 21.6773 100.436 21.64 100.554 21.64H101.85C101.956 21.64 102.047 21.6773 102.122 21.752C102.196 21.8267 102.234 21.9173 102.234 22.024V24.68H104.234C104.34 24.68 104.431 24.7173 104.506 24.792C104.58 24.8667 104.618 24.9573 104.618 25.064V25.992C104.618 26.0987 104.58 26.1893 104.506 26.264C104.431 26.3387 104.34 26.376 104.234 26.376H102.234V29.848C102.234 30.2853 102.308 30.6267 102.458 30.872C102.618 31.1173 102.89 31.24 103.274 31.24H104.378C104.484 31.24 104.575 31.2773 104.65 31.352C104.724 31.4267 104.762 31.5173 104.762 31.624V32.616C104.762 32.7227 104.724 32.8133 104.65 32.888C104.575 32.9627 104.484 33 104.378 33H103.082ZM108.597 33.16C108.042 33.16 107.541 33.0533 107.093 32.84C106.645 32.616 106.288 32.3227 106.021 31.96C105.765 31.5867 105.637 31.1707 105.637 30.712C105.637 29.9653 105.936 29.3733 106.533 28.936C107.141 28.488 107.941 28.1893 108.933 28.04L111.125 27.72V27.384C111.125 26.936 111.013 26.5893 110.789 26.344C110.565 26.0987 110.181 25.976 109.637 25.976C109.253 25.976 108.938 26.056 108.693 26.216C108.458 26.3653 108.282 26.568 108.165 26.824C108.08 26.9627 107.957 27.032 107.797 27.032H106.533C106.416 27.032 106.325 27 106.261 26.936C106.208 26.872 106.181 26.7867 106.181 26.68C106.192 26.5093 106.261 26.3013 106.389 26.056C106.517 25.8107 106.72 25.576 106.997 25.352C107.274 25.1173 107.632 24.92 108.069 24.76C108.506 24.6 109.034 24.52 109.653 24.52C110.325 24.52 110.89 24.6053 111.349 24.776C111.818 24.936 112.192 25.1547 112.469 25.432C112.746 25.7093 112.949 26.0347 113.077 26.408C113.205 26.7813 113.269 27.176 113.269 27.592V32.616C113.269 32.7227 113.232 32.8133 113.157 32.888C113.082 32.9627 112.992 33 112.885 33H111.589C111.472 33 111.376 32.9627 111.301 32.888C111.237 32.8133 111.205 32.7227 111.205 32.616V31.992C111.066 32.1947 110.88 32.3867 110.645 32.568C110.41 32.7387 110.122 32.8827 109.781 33C109.45 33.1067 109.056 33.16 108.597 33.16ZM109.141 31.64C109.514 31.64 109.85 31.56 110.149 31.4C110.458 31.24 110.698 30.9947 110.869 30.664C111.05 30.3227 111.141 29.896 111.141 29.384V29.048L109.541 29.304C108.912 29.4 108.442 29.5547 108.133 29.768C107.824 29.9813 107.669 30.2427 107.669 30.552C107.669 30.7867 107.738 30.9893 107.877 31.16C108.026 31.32 108.213 31.4427 108.437 31.528C108.661 31.6027 108.896 31.64 109.141 31.64ZM119.004 33C118.364 33 117.825 32.888 117.388 32.664C116.95 32.44 116.625 32.1093 116.412 31.672C116.198 31.224 116.092 30.6693 116.092 30.008V26.376H114.828C114.721 26.376 114.63 26.3387 114.556 26.264C114.481 26.1893 114.444 26.0987 114.444 25.992V25.064C114.444 24.9573 114.481 24.8667 114.556 24.792C114.63 24.7173 114.721 24.68 114.828 24.68H116.092V22.024C116.092 21.9173 116.124 21.8267 116.188 21.752C116.262 21.6773 116.358 21.64 116.476 21.64H117.772C117.878 21.64 117.969 21.6773 118.044 21.752C118.118 21.8267 118.156 21.9173 118.156 22.024V24.68H120.156C120.262 24.68 120.353 24.7173 120.428 24.792C120.502 24.8667 120.54 24.9573 120.54 25.064V25.992C120.54 26.0987 120.502 26.1893 120.428 26.264C120.353 26.3387 120.262 26.376 120.156 26.376H118.156V29.848C118.156 30.2853 118.23 30.6267 118.38 30.872C118.54 31.1173 118.812 31.24 119.196 31.24H120.3C120.406 31.24 120.497 31.2773 120.572 31.352C120.646 31.4267 120.684 31.5173 120.684 31.624V32.616C120.684 32.7227 120.646 32.8133 120.572 32.888C120.497 32.9627 120.406 33 120.3 33H119.004ZM122.487 33C122.38 33 122.29 32.9627 122.215 32.888C122.14 32.8133 122.103 32.7227 122.103 32.616V25.064C122.103 24.9573 122.14 24.8667 122.215 24.792C122.29 24.7173 122.38 24.68 122.487 24.68H123.815C123.932 24.68 124.023 24.7173 124.087 24.792C124.162 24.8667 124.199 24.9573 124.199 25.064V32.616C124.199 32.7227 124.162 32.8133 124.087 32.888C124.023 32.9627 123.932 33 123.815 33H122.487ZM122.423 23.304C122.306 23.304 122.21 23.272 122.135 23.208C122.071 23.1333 122.039 23.0373 122.039 22.92V21.768C122.039 21.6613 122.071 21.5707 122.135 21.496C122.21 21.4213 122.306 21.384 122.423 21.384H123.879C123.996 21.384 124.092 21.4213 124.167 21.496C124.242 21.5707 124.279 21.6613 124.279 21.768V22.92C124.279 23.0373 124.242 23.1333 124.167 23.208C124.092 23.272 123.996 23.304 123.879 23.304H122.423ZM129.661 33.16C129.021 33.16 128.472 33.0853 128.013 32.936C127.565 32.7867 127.197 32.6 126.909 32.376C126.621 32.152 126.408 31.928 126.269 31.704C126.13 31.48 126.056 31.2933 126.045 31.144C126.034 31.0267 126.066 30.936 126.141 30.872C126.226 30.7973 126.317 30.76 126.413 30.76H127.677C127.72 30.76 127.757 30.7653 127.789 30.776C127.821 30.7867 127.864 30.8187 127.917 30.872C128.056 30.9893 128.2 31.112 128.349 31.24C128.509 31.368 128.696 31.48 128.909 31.576C129.122 31.6613 129.389 31.704 129.709 31.704C130.125 31.704 130.472 31.624 130.749 31.464C131.037 31.2933 131.181 31.0533 131.181 30.744C131.181 30.52 131.117 30.3387 130.989 30.2C130.872 30.0613 130.648 29.9387 130.317 29.832C129.986 29.7147 129.517 29.592 128.909 29.464C128.312 29.3253 127.816 29.1493 127.421 28.936C127.026 28.7227 126.733 28.456 126.541 28.136C126.349 27.816 126.253 27.4427 126.253 27.016C126.253 26.6 126.376 26.2053 126.621 25.832C126.877 25.448 127.25 25.1333 127.741 24.888C128.242 24.6427 128.861 24.52 129.597 24.52C130.173 24.52 130.674 24.5947 131.101 24.744C131.528 24.8827 131.88 25.0587 132.157 25.272C132.445 25.4853 132.664 25.704 132.813 25.928C132.962 26.1413 133.042 26.328 133.053 26.488C133.064 26.6053 133.032 26.7013 132.957 26.776C132.882 26.84 132.797 26.872 132.701 26.872H131.517C131.464 26.872 131.416 26.8613 131.373 26.84C131.33 26.8187 131.288 26.792 131.245 26.76C131.128 26.6533 131 26.5413 130.861 26.424C130.722 26.3067 130.552 26.2053 130.349 26.12C130.157 26.024 129.901 25.976 129.581 25.976C129.176 25.976 128.866 26.0667 128.653 26.248C128.44 26.4187 128.333 26.6373 128.333 26.904C128.333 27.0853 128.381 27.2453 128.477 27.384C128.584 27.512 128.792 27.6347 129.101 27.752C129.41 27.8693 129.88 27.992 130.509 28.12C131.224 28.248 131.789 28.44 132.205 28.696C132.632 28.9413 132.93 29.2293 133.101 29.56C133.282 29.88 133.373 30.2373 133.373 30.632C133.373 31.112 133.229 31.544 132.941 31.928C132.664 32.312 132.248 32.616 131.693 32.84C131.149 33.0533 130.472 33.16 129.661 33.16ZM138.754 33C138.114 33 137.575 32.888 137.138 32.664C136.7 32.44 136.375 32.1093 136.162 31.672C135.948 31.224 135.842 30.6693 135.842 30.008V26.376H134.578C134.471 26.376 134.38 26.3387 134.306 26.264C134.231 26.1893 134.194 26.0987 134.194 25.992V25.064C134.194 24.9573 134.231 24.8667 134.306 24.792C134.38 24.7173 134.471 24.68 134.578 24.68H135.842V22.024C135.842 21.9173 135.874 21.8267 135.938 21.752C136.012 21.6773 136.108 21.64 136.226 21.64H137.522C137.628 21.64 137.719 21.6773 137.794 21.752C137.868 21.8267 137.906 21.9173 137.906 22.024V24.68H139.906C140.012 24.68 140.103 24.7173 140.178 24.792C140.252 24.8667 140.29 24.9573 140.29 25.064V25.992C140.29 26.0987 140.252 26.1893 140.178 26.264C140.103 26.3387 140.012 26.376 139.906 26.376H137.906V29.848C137.906 30.2853 137.98 30.6267 138.13 30.872C138.29 31.1173 138.562 31.24 138.946 31.24H140.05C140.156 31.24 140.247 31.2773 140.322 31.352C140.396 31.4267 140.434 31.5173 140.434 31.624V32.616C140.434 32.7227 140.396 32.8133 140.322 32.888C140.247 32.9627 140.156 33 140.05 33H138.754ZM142.237 33C142.13 33 142.04 32.9627 141.965 32.888C141.89 32.8133 141.853 32.7227 141.853 32.616V25.064C141.853 24.9573 141.89 24.8667 141.965 24.792C142.04 24.7173 142.13 24.68 142.237 24.68H143.565C143.682 24.68 143.773 24.7173 143.837 24.792C143.912 24.8667 143.949 24.9573 143.949 25.064V32.616C143.949 32.7227 143.912 32.8133 143.837 32.888C143.773 32.9627 143.682 33 143.565 33H142.237ZM142.173 23.304C142.056 23.304 141.96 23.272 141.885 23.208C141.821 23.1333 141.789 23.0373 141.789 22.92V21.768C141.789 21.6613 141.821 21.5707 141.885 21.496C141.96 21.4213 142.056 21.384 142.173 21.384H143.629C143.746 21.384 143.842 21.4213 143.917 21.496C143.992 21.5707 144.029 21.6613 144.029 21.768V22.92C144.029 23.0373 143.992 23.1333 143.917 23.208C143.842 23.272 143.746 23.304 143.629 23.304H142.173ZM149.719 33.16C148.951 33.16 148.273 33.016 147.687 32.728C147.111 32.44 146.657 32.024 146.327 31.48C146.007 30.9253 145.831 30.2587 145.799 29.48C145.788 29.32 145.783 29.112 145.783 28.856C145.783 28.5893 145.788 28.3707 145.799 28.2C145.831 27.4213 146.007 26.76 146.327 26.216C146.657 25.6613 147.111 25.24 147.687 24.952C148.273 24.664 148.951 24.52 149.719 24.52C150.401 24.52 150.983 24.616 151.463 24.808C151.943 25 152.337 25.24 152.647 25.528C152.956 25.816 153.185 26.12 153.335 26.44C153.495 26.7493 153.58 27.032 153.591 27.288C153.601 27.4053 153.564 27.5013 153.479 27.576C153.404 27.64 153.313 27.672 153.207 27.672H151.799C151.692 27.672 151.607 27.6453 151.543 27.592C151.489 27.5387 151.436 27.4587 151.383 27.352C151.223 26.9253 151.009 26.6267 150.743 26.456C150.487 26.2747 150.156 26.184 149.751 26.184C149.217 26.184 148.791 26.3547 148.471 26.696C148.161 27.0267 147.996 27.5547 147.975 28.28C147.953 28.6853 147.953 29.0587 147.975 29.4C147.996 30.136 148.161 30.6693 148.471 31C148.791 31.3307 149.217 31.496 149.751 31.496C150.167 31.496 150.503 31.4107 150.759 31.24C151.015 31.0587 151.223 30.7547 151.383 30.328C151.436 30.2213 151.489 30.1413 151.543 30.088C151.607 30.0347 151.692 30.008 151.799 30.008H153.207C153.313 30.008 153.404 30.0453 153.479 30.12C153.564 30.184 153.601 30.2747 153.591 30.392C153.58 30.584 153.527 30.8027 153.431 31.048C153.345 31.2827 153.201 31.528 152.999 31.784C152.807 32.0293 152.561 32.2587 152.263 32.472C151.964 32.6747 151.601 32.84 151.175 32.968C150.759 33.096 150.273 33.16 149.719 33.16ZM158.411 33.16C157.771 33.16 157.222 33.0853 156.763 32.936C156.315 32.7867 155.947 32.6 155.659 32.376C155.371 32.152 155.158 31.928 155.019 31.704C154.88 31.48 154.806 31.2933 154.795 31.144C154.784 31.0267 154.816 30.936 154.891 30.872C154.976 30.7973 155.067 30.76 155.163 30.76H156.427C156.47 30.76 156.507 30.7653 156.539 30.776C156.571 30.7867 156.614 30.8187 156.667 30.872C156.806 30.9893 156.95 31.112 157.099 31.24C157.259 31.368 157.446 31.48 157.659 31.576C157.872 31.6613 158.139 31.704 158.459 31.704C158.875 31.704 159.222 31.624 159.499 31.464C159.787 31.2933 159.931 31.0533 159.931 30.744C159.931 30.52 159.867 30.3387 159.739 30.2C159.622 30.0613 159.398 29.9387 159.067 29.832C158.736 29.7147 158.267 29.592 157.659 29.464C157.062 29.3253 156.566 29.1493 156.171 28.936C155.776 28.7227 155.483 28.456 155.291 28.136C155.099 27.816 155.003 27.4427 155.003 27.016C155.003 26.6 155.126 26.2053 155.371 25.832C155.627 25.448 156 25.1333 156.491 24.888C156.992 24.6427 157.611 24.52 158.347 24.52C158.923 24.52 159.424 24.5947 159.851 24.744C160.278 24.8827 160.63 25.0587 160.907 25.272C161.195 25.4853 161.414 25.704 161.563 25.928C161.712 26.1413 161.792 26.328 161.803 26.488C161.814 26.6053 161.782 26.7013 161.707 26.776C161.632 26.84 161.547 26.872 161.451 26.872H160.267C160.214 26.872 160.166 26.8613 160.123 26.84C160.08 26.8187 160.038 26.792 159.995 26.76C159.878 26.6533 159.75 26.5413 159.611 26.424C159.472 26.3067 159.302 26.2053 159.099 26.12C158.907 26.024 158.651 25.976 158.331 25.976C157.926 25.976 157.616 26.0667 157.403 26.248C157.19 26.4187 157.083 26.6373 157.083 26.904C157.083 27.0853 157.131 27.2453 157.227 27.384C157.334 27.512 157.542 27.6347 157.851 27.752C158.16 27.8693 158.63 27.992 159.259 28.12C159.974 28.248 160.539 28.44 160.955 28.696C161.382 28.9413 161.68 29.2293 161.851 29.56C162.032 29.88 162.123 30.2373 162.123 30.632C162.123 31.112 161.979 31.544 161.691 31.928C161.414 32.312 160.998 32.616 160.443 32.84C159.899 33.0533 159.222 33.16 158.411 33.16ZM168.023 33C167.906 33 167.81 32.9627 167.735 32.888C167.66 32.8133 167.623 32.7227 167.623 32.616V22.2C167.623 22.0827 167.66 21.9867 167.735 21.912C167.81 21.8373 167.906 21.8 168.023 21.8H169.287C169.436 21.8 169.548 21.8427 169.623 21.928C169.698 22.0027 169.746 22.0613 169.767 22.104L172.855 27.864L175.975 22.104C175.996 22.0613 176.044 22.0027 176.119 21.928C176.194 21.8427 176.306 21.8 176.455 21.8H177.703C177.82 21.8 177.916 21.8373 177.991 21.912C178.066 21.9867 178.103 22.0827 178.103 22.2V32.616C178.103 32.7227 178.066 32.8133 177.991 32.888C177.916 32.9627 177.82 33 177.703 33H176.359C176.242 33 176.146 32.9627 176.071 32.888C176.007 32.8133 175.975 32.7227 175.975 32.616V25.688L173.735 29.96C173.682 30.056 173.612 30.1413 173.527 30.216C173.442 30.28 173.33 30.312 173.191 30.312H172.535C172.386 30.312 172.268 30.28 172.183 30.216C172.108 30.1413 172.044 30.056 171.991 29.96L169.751 25.688V32.616C169.751 32.7227 169.714 32.8133 169.639 32.888C169.564 32.9627 169.474 33 169.367 33H168.023ZM182.816 33.16C182.261 33.16 181.76 33.0533 181.312 32.84C180.864 32.616 180.506 32.3227 180.24 31.96C179.984 31.5867 179.856 31.1707 179.856 30.712C179.856 29.9653 180.154 29.3733 180.752 28.936C181.36 28.488 182.16 28.1893 183.152 28.04L185.344 27.72V27.384C185.344 26.936 185.232 26.5893 185.008 26.344C184.784 26.0987 184.4 25.976 183.856 25.976C183.472 25.976 183.157 26.056 182.912 26.216C182.677 26.3653 182.501 26.568 182.384 26.824C182.298 26.9627 182.176 27.032 182.016 27.032H180.752C180.634 27.032 180.544 27 180.48 26.936C180.426 26.872 180.4 26.7867 180.4 26.68C180.41 26.5093 180.48 26.3013 180.608 26.056C180.736 25.8107 180.938 25.576 181.216 25.352C181.493 25.1173 181.85 24.92 182.288 24.76C182.725 24.6 183.253 24.52 183.872 24.52C184.544 24.52 185.109 24.6053 185.568 24.776C186.037 24.936 186.41 25.1547 186.688 25.432C186.965 25.7093 187.168 26.0347 187.296 26.408C187.424 26.7813 187.488 27.176 187.488 27.592V32.616C187.488 32.7227 187.45 32.8133 187.376 32.888C187.301 32.9627 187.21 33 187.104 33H185.808C185.69 33 185.594 32.9627 185.52 32.888C185.456 32.8133 185.424 32.7227 185.424 32.616V31.992C185.285 32.1947 185.098 32.3867 184.864 32.568C184.629 32.7387 184.341 32.8827 184 33C183.669 33.1067 183.274 33.16 182.816 33.16ZM183.36 31.64C183.733 31.64 184.069 31.56 184.368 31.4C184.677 31.24 184.917 30.9947 185.088 30.664C185.269 30.3227 185.36 29.896 185.36 29.384V29.048L183.76 29.304C183.13 29.4 182.661 29.5547 182.352 29.768C182.042 29.9813 181.888 30.2427 181.888 30.552C181.888 30.7867 181.957 30.9893 182.096 31.16C182.245 31.32 182.432 31.4427 182.656 31.528C182.88 31.6027 183.114 31.64 183.36 31.64ZM193.222 33C192.582 33 192.044 32.888 191.606 32.664C191.169 32.44 190.844 32.1093 190.63 31.672C190.417 31.224 190.31 30.6693 190.31 30.008V26.376H189.046C188.94 26.376 188.849 26.3387 188.774 26.264C188.7 26.1893 188.662 26.0987 188.662 25.992V25.064C188.662 24.9573 188.7 24.8667 188.774 24.792C188.849 24.7173 188.94 24.68 189.046 24.68H190.31V22.024C190.31 21.9173 190.342 21.8267 190.406 21.752C190.481 21.6773 190.577 21.64 190.694 21.64H191.99C192.097 21.64 192.188 21.6773 192.262 21.752C192.337 21.8267 192.374 21.9173 192.374 22.024V24.68H194.374C194.481 24.68 194.572 24.7173 194.646 24.792C194.721 24.8667 194.758 24.9573 194.758 25.064V25.992C194.758 26.0987 194.721 26.1893 194.646 26.264C194.572 26.3387 194.481 26.376 194.374 26.376H192.374V29.848C192.374 30.2853 192.449 30.6267 192.598 30.872C192.758 31.1173 193.03 31.24 193.414 31.24H194.518C194.625 31.24 194.716 31.2773 194.79 31.352C194.865 31.4267 194.902 31.5173 194.902 31.624V32.616C194.902 32.7227 194.865 32.8133 194.79 32.888C194.716 32.9627 194.625 33 194.518 33H193.222ZM196.722 33C196.615 33 196.524 32.9627 196.45 32.888C196.375 32.8133 196.338 32.7227 196.338 32.616V22.024C196.338 21.9173 196.375 21.8267 196.45 21.752C196.524 21.6773 196.615 21.64 196.722 21.64H198.146C198.263 21.64 198.354 21.6773 198.418 21.752C198.492 21.8267 198.53 21.9173 198.53 22.024V25.672C198.818 25.3307 199.17 25.0533 199.586 24.84C200.002 24.6267 200.514 24.52 201.122 24.52C201.772 24.52 202.338 24.6693 202.818 24.968C203.308 25.256 203.687 25.6667 203.954 26.2C204.22 26.7333 204.354 27.3733 204.354 28.12V32.616C204.354 32.7227 204.316 32.8133 204.242 32.888C204.167 32.9627 204.076 33 203.97 33H202.53C202.423 33 202.332 32.9627 202.258 32.888C202.183 32.8133 202.146 32.7227 202.146 32.616V28.216C202.146 27.5973 201.991 27.112 201.682 26.76C201.383 26.408 200.946 26.232 200.37 26.232C199.815 26.232 199.367 26.408 199.026 26.76C198.695 27.112 198.53 27.5973 198.53 28.216V32.616C198.53 32.7227 198.492 32.8133 198.418 32.888C198.354 32.9627 198.263 33 198.146 33H196.722ZM217.416 34.04C217.267 34.04 217.144 33.992 217.048 33.896C216.963 33.8107 216.894 33.736 216.84 33.672L216.248 32.872C215.747 33.064 215.176 33.16 214.536 33.16C213.587 33.16 212.766 33.0053 212.072 32.696C211.39 32.376 210.856 31.8907 210.472 31.24C210.099 30.5787 209.891 29.7573 209.848 28.776C209.838 28.3173 209.832 27.864 209.832 27.416C209.832 26.968 209.838 26.5093 209.848 26.04C209.891 25.0693 210.104 24.2587 210.488 23.608C210.883 22.9573 211.427 22.4667 212.12 22.136C212.814 21.8053 213.619 21.64 214.536 21.64C215.454 21.64 216.259 21.8053 216.952 22.136C217.646 22.4667 218.19 22.9573 218.584 23.608C218.979 24.2587 219.187 25.0693 219.208 26.04C219.23 26.5093 219.24 26.968 219.24 27.416C219.24 27.864 219.23 28.3173 219.208 28.776C219.155 30.1733 218.771 31.2347 218.056 31.96L219.176 33.544C219.187 33.5547 219.198 33.5707 219.208 33.592C219.219 33.624 219.224 33.6613 219.224 33.704C219.235 33.8 219.203 33.88 219.128 33.944C219.064 34.008 218.99 34.04 218.904 34.04H217.416ZM214.536 31.32C215.219 31.32 215.779 31.1173 216.216 30.712C216.654 30.296 216.888 29.624 216.92 28.696C216.942 28.2267 216.952 27.7947 216.952 27.4C216.952 26.9947 216.942 26.5627 216.92 26.104C216.91 25.4853 216.798 24.984 216.584 24.6C216.371 24.2053 216.088 23.9227 215.736 23.752C215.395 23.5707 214.995 23.48 214.536 23.48C214.088 23.48 213.688 23.5707 213.336 23.752C212.984 23.9227 212.702 24.2053 212.488 24.6C212.286 24.984 212.168 25.4853 212.136 26.104C212.126 26.5627 212.12 26.9947 212.12 27.4C212.12 27.7947 212.126 28.2267 212.136 28.696C212.179 29.624 212.419 30.296 212.856 30.712C213.294 31.1173 213.854 31.32 214.536 31.32ZM224.253 33.16C223.603 33.16 223.037 33.016 222.557 32.728C222.088 32.4293 221.725 32.0133 221.469 31.48C221.213 30.936 221.085 30.296 221.085 29.56V25.064C221.085 24.9573 221.123 24.8667 221.197 24.792C221.272 24.7173 221.363 24.68 221.469 24.68H222.877C222.995 24.68 223.085 24.7173 223.149 24.792C223.224 24.8667 223.261 24.9573 223.261 25.064V29.464C223.261 30.7867 223.843 31.448 225.005 31.448C225.56 31.448 225.997 31.272 226.317 30.92C226.648 30.568 226.813 30.0827 226.813 29.464V25.064C226.813 24.9573 226.851 24.8667 226.925 24.792C227 24.7173 227.091 24.68 227.197 24.68H228.605C228.712 24.68 228.803 24.7173 228.877 24.792C228.952 24.8667 228.989 24.9573 228.989 25.064V32.616C228.989 32.7227 228.952 32.8133 228.877 32.888C228.803 32.9627 228.712 33 228.605 33H227.309C227.192 33 227.096 32.9627 227.021 32.888C226.957 32.8133 226.925 32.7227 226.925 32.616V31.96C226.637 32.3333 226.28 32.6267 225.853 32.84C225.427 33.0533 224.893 33.16 224.253 33.16ZM231.487 33C231.38 33 231.29 32.9627 231.215 32.888C231.14 32.8133 231.103 32.7227 231.103 32.616V25.064C231.103 24.9573 231.14 24.8667 231.215 24.792C231.29 24.7173 231.38 24.68 231.487 24.68H232.815C232.932 24.68 233.023 24.7173 233.087 24.792C233.162 24.8667 233.199 24.9573 233.199 25.064V32.616C233.199 32.7227 233.162 32.8133 233.087 32.888C233.023 32.9627 232.932 33 232.815 33H231.487ZM231.423 23.304C231.306 23.304 231.21 23.272 231.135 23.208C231.071 23.1333 231.039 23.0373 231.039 22.92V21.768C231.039 21.6613 231.071 21.5707 231.135 21.496C231.21 21.4213 231.306 21.384 231.423 21.384H232.879C232.996 21.384 233.092 21.4213 233.167 21.496C233.242 21.5707 233.279 21.6613 233.279 21.768V22.92C233.279 23.0373 233.242 23.1333 233.167 23.208C233.092 23.272 232.996 23.304 232.879 23.304H231.423ZM235.462 33C235.344 33 235.248 32.9627 235.174 32.888C235.11 32.8133 235.078 32.7227 235.078 32.616V31.704C235.078 31.608 235.099 31.5173 235.142 31.432C235.195 31.336 235.248 31.256 235.302 31.192L239.398 26.344H235.59C235.483 26.344 235.392 26.312 235.318 26.248C235.243 26.1733 235.206 26.0773 235.206 25.96V25.064C235.206 24.9573 235.243 24.8667 235.318 24.792C235.392 24.7173 235.483 24.68 235.59 24.68H241.654C241.771 24.68 241.862 24.7173 241.926 24.792C242 24.8667 242.038 24.9573 242.038 25.064V26.04C242.038 26.136 242.016 26.2213 241.974 26.296C241.931 26.3707 241.878 26.4507 241.814 26.536L237.814 31.336H241.99C242.096 31.336 242.187 31.3733 242.262 31.448C242.336 31.512 242.374 31.6027 242.374 31.72V32.616C242.374 32.7227 242.336 32.8133 242.262 32.888C242.187 32.9627 242.096 33 241.99 33H235.462Z" fill="#0C092A"/>
<path d="M89.32 59C89.24 59 89.172 58.976 89.116 58.928C89.068 58.872 89.044 58.804 89.044 58.724V50.888C89.044 50.8 89.068 50.732 89.116 50.684C89.172 50.628 89.24 50.6 89.32 50.6H89.92C90.016 50.6 90.088 50.624 90.136 50.672C90.184 50.72 90.212 50.76 90.22 50.792L92.764 55.64L95.32 50.792C95.336 50.76 95.364 50.72 95.404 50.672C95.452 50.624 95.524 50.6 95.62 50.6H96.208C96.296 50.6 96.364 50.628 96.412 50.684C96.468 50.732 96.496 50.8 96.496 50.888V58.724C96.496 58.804 96.468 58.872 96.412 58.928C96.364 58.976 96.296 59 96.208 59H95.62C95.54 59 95.472 58.976 95.416 58.928C95.368 58.872 95.344 58.804 95.344 58.724V52.82L93.34 56.732C93.308 56.812 93.26 56.876 93.196 56.924C93.132 56.964 93.052 56.984 92.956 56.984H92.584C92.48 56.984 92.396 56.964 92.332 56.924C92.276 56.876 92.228 56.812 92.188 56.732L90.184 52.82V58.724C90.184 58.804 90.156 58.872 90.1 58.928C90.052 58.976 89.988 59 89.908 59H89.32ZM100.155 59.12C99.7553 59.12 99.3913 59.04 99.0633 58.88C98.7353 58.72 98.4713 58.504 98.2713 58.232C98.0713 57.96 97.9713 57.652 97.9713 57.308C97.9713 56.756 98.1953 56.316 98.6433 55.988C99.0913 55.66 99.6753 55.444 100.395 55.34L102.183 55.088V54.74C102.183 54.356 102.071 54.056 101.847 53.84C101.631 53.624 101.275 53.516 100.779 53.516C100.419 53.516 100.127 53.588 99.9033 53.732C99.6873 53.876 99.5353 54.06 99.4473 54.284C99.3993 54.404 99.3153 54.464 99.1953 54.464H98.6553C98.5673 54.464 98.4993 54.44 98.4513 54.392C98.4113 54.336 98.3913 54.272 98.3913 54.2C98.3913 54.08 98.4353 53.932 98.5233 53.756C98.6193 53.58 98.7633 53.408 98.9553 53.24C99.1473 53.072 99.3913 52.932 99.6873 52.82C99.9913 52.7 100.359 52.64 100.791 52.64C101.271 52.64 101.675 52.704 102.003 52.832C102.331 52.952 102.587 53.116 102.771 53.324C102.963 53.532 103.099 53.768 103.179 54.032C103.267 54.296 103.311 54.564 103.311 54.836V58.724C103.311 58.804 103.283 58.872 103.227 58.928C103.179 58.976 103.115 59 103.035 59H102.483C102.395 59 102.327 58.976 102.279 58.928C102.231 58.872 102.207 58.804 102.207 58.724V58.208C102.103 58.352 101.963 58.496 101.787 58.64C101.611 58.776 101.391 58.892 101.127 58.988C100.863 59.076 100.539 59.12 100.155 59.12ZM100.407 58.22C100.735 58.22 101.035 58.152 101.307 58.016C101.579 57.872 101.791 57.652 101.943 57.356C102.103 57.06 102.183 56.688 102.183 56.24V55.904L100.791 56.108C100.223 56.188 99.7953 56.324 99.5073 56.516C99.2193 56.7 99.0753 56.936 99.0753 57.224C99.0753 57.448 99.1393 57.636 99.2673 57.788C99.4033 57.932 99.5713 58.04 99.7713 58.112C99.9793 58.184 100.191 58.22 100.407 58.22ZM107.414 59C106.966 59 106.602 58.916 106.322 58.748C106.042 58.572 105.838 58.328 105.71 58.016C105.582 57.696 105.518 57.32 105.518 56.888V53.72H104.582C104.502 53.72 104.434 53.696 104.378 53.648C104.33 53.592 104.306 53.524 104.306 53.444V53.036C104.306 52.956 104.33 52.892 104.378 52.844C104.434 52.788 104.502 52.76 104.582 52.76H105.518V50.756C105.518 50.676 105.542 50.612 105.59 50.564C105.646 50.508 105.714 50.48 105.794 50.48H106.358C106.438 50.48 106.502 50.508 106.55 50.564C106.606 50.612 106.634 50.676 106.634 50.756V52.76H108.122C108.202 52.76 108.266 52.788 108.314 52.844C108.37 52.892 108.398 52.956 108.398 53.036V53.444C108.398 53.524 108.37 53.592 108.314 53.648C108.266 53.696 108.202 53.72 108.122 53.72H106.634V56.804C106.634 57.18 106.698 57.476 106.826 57.692C106.954 57.908 107.182 58.016 107.51 58.016H108.242C108.322 58.016 108.386 58.044 108.434 58.1C108.49 58.148 108.518 58.212 108.518 58.292V58.724C108.518 58.804 108.49 58.872 108.434 58.928C108.386 58.976 108.322 59 108.242 59H107.414ZM109.953 59C109.873 59 109.805 58.976 109.749 58.928C109.701 58.872 109.677 58.804 109.677 58.724V50.756C109.677 50.676 109.701 50.612 109.749 50.564C109.805 50.508 109.873 50.48 109.953 50.48H110.553C110.641 50.48 110.709 50.508 110.757 50.564C110.805 50.612 110.829 50.676 110.829 50.756V53.552C111.045 53.28 111.309 53.06 111.621 52.892C111.933 52.724 112.329 52.64 112.809 52.64C113.329 52.64 113.769 52.756 114.129 52.988C114.497 53.212 114.773 53.528 114.957 53.936C115.149 54.336 115.245 54.804 115.245 55.34V58.724C115.245 58.804 115.221 58.872 115.173 58.928C115.125 58.976 115.057 59 114.969 59H114.369C114.289 59 114.221 58.976 114.165 58.928C114.117 58.872 114.093 58.804 114.093 58.724V55.4C114.093 54.84 113.957 54.404 113.685 54.092C113.413 53.772 113.013 53.612 112.485 53.612C111.989 53.612 111.589 53.772 111.285 54.092C110.981 54.404 110.829 54.84 110.829 55.4V58.724C110.829 58.804 110.805 58.872 110.757 58.928C110.709 58.976 110.641 59 110.553 59H109.953ZM121.323 56.576C121.091 56.576 120.875 56.52 120.675 56.408C120.475 56.288 120.315 56.132 120.195 55.94C120.083 55.74 120.027 55.524 120.027 55.292C120.027 55.052 120.083 54.836 120.195 54.644C120.315 54.444 120.475 54.288 120.675 54.176C120.875 54.056 121.091 53.996 121.323 53.996C121.563 53.996 121.779 54.056 121.971 54.176C122.163 54.288 122.315 54.444 122.427 54.644C122.547 54.836 122.607 55.052 122.607 55.292C122.607 55.524 122.547 55.74 122.427 55.94C122.315 56.132 122.163 56.288 121.971 56.408C121.779 56.52 121.563 56.576 121.323 56.576ZM129.855 59C129.775 59 129.707 58.976 129.651 58.928C129.603 58.872 129.579 58.804 129.579 58.724V52.004L127.587 53.54C127.523 53.588 127.455 53.608 127.383 53.6C127.311 53.592 127.251 53.556 127.203 53.492L126.891 53.096C126.843 53.024 126.823 52.952 126.831 52.88C126.847 52.808 126.887 52.748 126.951 52.7L129.567 50.684C129.623 50.644 129.675 50.62 129.723 50.612C129.771 50.604 129.823 50.6 129.879 50.6H130.491C130.571 50.6 130.635 50.628 130.683 50.684C130.731 50.732 130.755 50.796 130.755 50.876V58.724C130.755 58.804 130.731 58.872 130.683 58.928C130.635 58.976 130.571 59 130.491 59H129.855ZM132.54 59C132.46 59 132.392 58.976 132.336 58.928C132.288 58.872 132.264 58.804 132.264 58.724V58.34C132.264 58.268 132.284 58.188 132.324 58.1C132.364 58.012 132.444 57.916 132.564 57.812L135.108 55.268C135.516 54.924 135.836 54.632 136.068 54.392C136.308 54.144 136.476 53.908 136.572 53.684C136.676 53.46 136.728 53.228 136.728 52.988C136.728 52.532 136.6 52.172 136.344 51.908C136.088 51.636 135.708 51.5 135.204 51.5C134.884 51.5 134.608 51.568 134.376 51.704C134.144 51.832 133.96 52.012 133.824 52.244C133.696 52.468 133.612 52.724 133.572 53.012C133.556 53.116 133.512 53.188 133.44 53.228C133.376 53.268 133.316 53.288 133.26 53.288H132.636C132.564 53.288 132.504 53.268 132.456 53.228C132.408 53.18 132.384 53.124 132.384 53.06C132.392 52.756 132.456 52.452 132.576 52.148C132.696 51.836 132.872 51.556 133.104 51.308C133.344 51.06 133.636 50.86 133.98 50.708C134.332 50.548 134.74 50.468 135.204 50.468C135.836 50.468 136.352 50.584 136.752 50.816C137.16 51.04 137.46 51.34 137.652 51.716C137.844 52.092 137.94 52.504 137.94 52.952C137.94 53.304 137.88 53.628 137.76 53.924C137.64 54.212 137.464 54.496 137.232 54.776C137.008 55.048 136.728 55.328 136.392 55.616L134.088 57.956H137.832C137.92 57.956 137.988 57.98 138.036 58.028C138.092 58.076 138.12 58.144 138.12 58.232V58.724C138.12 58.804 138.092 58.872 138.036 58.928C137.988 58.976 137.92 59 137.832 59H132.54ZM148.116 59.78C148.012 59.78 147.928 59.744 147.864 59.672C147.8 59.608 147.748 59.552 147.708 59.504L147.216 58.832C146.784 59.024 146.284 59.12 145.716 59.12C145.028 59.12 144.44 59.004 143.952 58.772C143.472 58.532 143.096 58.168 142.824 57.68C142.56 57.184 142.416 56.564 142.392 55.82C142.384 55.468 142.38 55.132 142.38 54.812C142.38 54.484 142.384 54.144 142.392 53.792C142.416 53.056 142.568 52.444 142.848 51.956C143.128 51.46 143.512 51.092 144 50.852C144.496 50.604 145.068 50.48 145.716 50.48C146.372 50.48 146.944 50.604 147.432 50.852C147.928 51.092 148.316 51.46 148.596 51.956C148.876 52.444 149.024 53.056 149.04 53.792C149.056 54.144 149.064 54.484 149.064 54.812C149.064 55.132 149.056 55.468 149.04 55.82C149 56.924 148.712 57.744 148.176 58.28L148.968 59.408C148.976 59.416 148.984 59.428 148.992 59.444C149 59.468 149.004 59.5 149.004 59.54C149.012 59.604 148.992 59.66 148.944 59.708C148.896 59.756 148.836 59.78 148.764 59.78H148.116ZM145.716 58.1C146.324 58.1 146.824 57.916 147.216 57.548C147.608 57.18 147.82 56.584 147.852 55.76C147.868 55.4 147.876 55.08 147.876 54.8C147.876 54.512 147.868 54.192 147.852 53.84C147.836 53.288 147.732 52.84 147.54 52.496C147.356 52.152 147.108 51.9 146.796 51.74C146.484 51.58 146.124 51.5 145.716 51.5C145.324 51.5 144.968 51.58 144.648 51.74C144.336 51.9 144.088 52.152 143.904 52.496C143.72 52.84 143.616 53.288 143.592 53.84C143.584 54.192 143.58 54.512 143.58 54.8C143.58 55.08 143.584 55.4 143.592 55.76C143.624 56.584 143.836 57.18 144.228 57.548C144.62 57.916 145.116 58.1 145.716 58.1ZM152.997 59.12C152.485 59.12 152.049 59.008 151.689 58.784C151.337 58.552 151.069 58.232 150.885 57.824C150.701 57.416 150.609 56.948 150.609 56.42V53.036C150.609 52.956 150.633 52.892 150.681 52.844C150.737 52.788 150.805 52.76 150.885 52.76H151.485C151.565 52.76 151.629 52.788 151.677 52.844C151.733 52.892 151.761 52.956 151.761 53.036V56.36C151.761 57.552 152.281 58.148 153.321 58.148C153.817 58.148 154.213 57.992 154.509 57.68C154.813 57.36 154.965 56.92 154.965 56.36V53.036C154.965 52.956 154.989 52.892 155.037 52.844C155.093 52.788 155.161 52.76 155.241 52.76H155.829C155.917 52.76 155.985 52.788 156.033 52.844C156.081 52.892 156.105 52.956 156.105 53.036V58.724C156.105 58.804 156.081 58.872 156.033 58.928C155.985 58.976 155.917 59 155.829 59H155.277C155.197 59 155.129 58.976 155.073 58.928C155.025 58.872 155.001 58.804 155.001 58.724V58.196C154.785 58.476 154.521 58.7 154.209 58.868C153.905 59.036 153.501 59.12 152.997 59.12ZM158.164 59C158.084 59 158.016 58.976 157.96 58.928C157.912 58.872 157.888 58.804 157.888 58.724V53.036C157.888 52.956 157.912 52.892 157.96 52.844C158.016 52.788 158.084 52.76 158.164 52.76H158.74C158.82 52.76 158.884 52.788 158.932 52.844C158.98 52.892 159.004 52.956 159.004 53.036V58.724C159.004 58.804 158.98 58.872 158.932 58.928C158.884 58.976 158.82 59 158.74 59H158.164ZM158.068 51.596C157.988 51.596 157.92 51.572 157.864 51.524C157.816 51.468 157.792 51.4 157.792 51.32V50.672C157.792 50.592 157.816 50.528 157.864 50.48C157.92 50.424 157.988 50.396 158.068 50.396H158.824C158.904 50.396 158.968 50.424 159.016 50.48C159.072 50.528 159.1 50.592 159.1 50.672V51.32C159.1 51.4 159.072 51.468 159.016 51.524C158.968 51.572 158.904 51.596 158.824 51.596H158.068ZM160.733 59C160.653 59 160.585 58.976 160.529 58.928C160.481 58.872 160.457 58.804 160.457 58.724V58.304C160.457 58.232 160.473 58.164 160.505 58.1C160.545 58.036 160.585 57.976 160.625 57.92L163.937 53.708H160.841C160.761 53.708 160.693 53.684 160.637 53.636C160.589 53.588 160.565 53.52 160.565 53.432V53.036C160.565 52.956 160.589 52.892 160.637 52.844C160.693 52.788 160.761 52.76 160.841 52.76H165.113C165.193 52.76 165.257 52.788 165.305 52.844C165.361 52.892 165.389 52.956 165.389 53.036V53.48C165.389 53.552 165.369 53.616 165.329 53.672C165.297 53.728 165.261 53.788 165.221 53.852L161.945 58.052H165.353C165.433 58.052 165.497 58.076 165.545 58.124C165.601 58.172 165.629 58.24 165.629 58.328V58.724C165.629 58.804 165.601 58.872 165.545 58.928C165.497 58.976 165.433 59 165.353 59H160.733ZM166.838 59C166.758 59 166.69 58.976 166.634 58.928C166.586 58.872 166.562 58.804 166.562 58.724V58.304C166.562 58.232 166.578 58.164 166.61 58.1C166.65 58.036 166.69 57.976 166.73 57.92L170.042 53.708H166.946C166.866 53.708 166.798 53.684 166.742 53.636C166.694 53.588 166.67 53.52 166.67 53.432V53.036C166.67 52.956 166.694 52.892 166.742 52.844C166.798 52.788 166.866 52.76 166.946 52.76H171.218C171.298 52.76 171.362 52.788 171.41 52.844C171.466 52.892 171.494 52.956 171.494 53.036V53.48C171.494 53.552 171.474 53.616 171.434 53.672C171.402 53.728 171.366 53.788 171.326 53.852L168.05 58.052H171.458C171.538 58.052 171.602 58.076 171.65 58.124C171.706 58.172 171.734 58.24 171.734 58.328V58.724C171.734 58.804 171.706 58.872 171.65 58.928C171.602 58.976 171.538 59 171.458 59H166.838ZM175.477 59.12C174.653 59.12 173.997 58.868 173.509 58.364C173.021 57.852 172.753 57.156 172.705 56.276C172.697 56.172 172.693 56.04 172.693 55.88C172.693 55.712 172.697 55.576 172.705 55.472C172.737 54.904 172.869 54.408 173.101 53.984C173.333 53.552 173.649 53.22 174.049 52.988C174.457 52.756 174.933 52.64 175.477 52.64C176.085 52.64 176.593 52.768 177.001 53.024C177.417 53.28 177.733 53.644 177.949 54.116C178.165 54.588 178.273 55.14 178.273 55.772V55.976C178.273 56.064 178.245 56.132 178.189 56.18C178.141 56.228 178.077 56.252 177.997 56.252H173.845C173.845 56.26 173.845 56.276 173.845 56.3C173.845 56.324 173.845 56.344 173.845 56.36C173.861 56.688 173.933 56.996 174.061 57.284C174.189 57.564 174.373 57.792 174.613 57.968C174.853 58.144 175.141 58.232 175.477 58.232C175.765 58.232 176.005 58.188 176.197 58.1C176.389 58.012 176.545 57.916 176.665 57.812C176.785 57.7 176.865 57.616 176.905 57.56C176.977 57.456 177.033 57.396 177.073 57.38C177.113 57.356 177.177 57.344 177.265 57.344H177.841C177.921 57.344 177.985 57.368 178.033 57.416C178.089 57.456 178.113 57.516 178.105 57.596C178.097 57.716 178.033 57.864 177.913 58.04C177.793 58.208 177.621 58.376 177.397 58.544C177.173 58.712 176.901 58.852 176.581 58.964C176.261 59.068 175.893 59.12 175.477 59.12ZM173.845 55.424H177.133V55.388C177.133 55.028 177.065 54.708 176.929 54.428C176.801 54.148 176.613 53.928 176.365 53.768C176.117 53.6 175.821 53.516 175.477 53.516C175.133 53.516 174.837 53.6 174.589 53.768C174.349 53.928 174.165 54.148 174.037 54.428C173.909 54.708 173.845 55.028 173.845 55.388V55.424ZM181.868 59.12C181.42 59.12 181.036 59.064 180.716 58.952C180.396 58.84 180.136 58.704 179.936 58.544C179.736 58.384 179.584 58.224 179.48 58.064C179.384 57.904 179.332 57.776 179.324 57.68C179.316 57.592 179.344 57.524 179.408 57.476C179.472 57.428 179.536 57.404 179.6 57.404H180.128C180.176 57.404 180.212 57.412 180.236 57.428C180.268 57.436 180.308 57.468 180.356 57.524C180.46 57.636 180.576 57.748 180.704 57.86C180.832 57.972 180.988 58.064 181.172 58.136C181.364 58.208 181.6 58.244 181.88 58.244C182.288 58.244 182.624 58.168 182.888 58.016C183.152 57.856 183.284 57.624 183.284 57.32C183.284 57.12 183.228 56.96 183.116 56.84C183.012 56.72 182.82 56.612 182.54 56.516C182.268 56.42 181.892 56.32 181.412 56.216C180.932 56.104 180.552 55.968 180.272 55.808C179.992 55.64 179.792 55.444 179.672 55.22C179.552 54.988 179.492 54.728 179.492 54.44C179.492 54.144 179.58 53.86 179.756 53.588C179.932 53.308 180.188 53.08 180.524 52.904C180.868 52.728 181.296 52.64 181.808 52.64C182.224 52.64 182.58 52.692 182.876 52.796C183.172 52.9 183.416 53.032 183.608 53.192C183.8 53.344 183.944 53.496 184.04 53.648C184.136 53.8 184.188 53.928 184.196 54.032C184.204 54.112 184.18 54.18 184.124 54.236C184.068 54.284 184.004 54.308 183.932 54.308H183.428C183.372 54.308 183.324 54.296 183.284 54.272C183.252 54.248 183.22 54.22 183.188 54.188C183.108 54.084 183.012 53.98 182.9 53.876C182.796 53.772 182.656 53.688 182.48 53.624C182.312 53.552 182.088 53.516 181.808 53.516C181.408 53.516 181.108 53.6 180.908 53.768C180.708 53.936 180.608 54.148 180.608 54.404C180.608 54.556 180.652 54.692 180.74 54.812C180.828 54.932 180.996 55.04 181.244 55.136C181.492 55.232 181.86 55.336 182.348 55.448C182.876 55.552 183.292 55.692 183.596 55.868C183.9 56.044 184.116 56.248 184.244 56.48C184.372 56.712 184.436 56.98 184.436 57.284C184.436 57.62 184.336 57.928 184.136 58.208C183.944 58.488 183.656 58.712 183.272 58.88C182.896 59.04 182.428 59.12 181.868 59.12Z" fill="#858494"/>
<g clip-path="url(#clip0_302_1953)">
<rect x="8" y="8" width="64" height="64" rx="20" fill="#C4D0FB"/>
<path d="M24 32C24 27.5817 27.5817 24 32 24H78V82C78 86.4183 74.4183 90 70 90H32C27.5817 90 24 86.4183 24 82V32Z" fill="white"/>
<rect x="33" y="48" width="6" height="32" rx="3" fill="#6A5AE0"/>
<rect x="45" y="44" width="6" height="47" rx="3" fill="#C4D0FB"/>
<rect x="57" y="40" width="6" height="41" rx="3" fill="#6A5AE0"/>
</g>
<defs>
<clipPath id="clip0_302_1953">
<rect x="8" y="8" width="64" height="64" rx="20" fill="white"/>
</clipPath>
</defs>
</svg>
