<svg width="327" height="60" viewBox="0 0 327 60" fill="none" xmlns="http://www.w3.org/2000/svg">
<circle cx="299" cy="28" r="28" fill="#BF83FF"/>
<mask id="mask0_302_1957" style="mask-type:alpha" maskUnits="userSpaceOnUse" x="271" y="0" width="56" height="56">
<circle cx="299" cy="28" r="28" fill="#C4C4C4"/>
</mask>
<g mask="url(#mask0_302_1957)">
<path fill-rule="evenodd" clip-rule="evenodd" d="M299 14.4963C293.377 14.4963 288.818 19.0549 288.818 24.6782V25.7145C287.786 25.8876 287 26.785 287 27.8661V30.3596C287 31.4626 287.818 32.3744 288.881 32.5209C289.279 36.0916 291.523 39.1049 294.636 40.5842V43.9313C286.935 44.3459 280.818 50.7218 280.818 58.5264H317.182C317.182 50.7218 311.065 44.3459 303.364 43.9313V40.5842C306.478 39.1049 308.722 36.0916 309.119 32.5209C310.182 32.3744 311 31.4626 311 30.3596V27.8661C311 26.785 310.214 25.8876 309.182 25.7145V24.6782C309.182 19.0549 304.623 14.4963 299 14.4963Z" fill="#D0C6AC"/>
<mask id="mask1_302_1957" style="mask-type:luminance" maskUnits="userSpaceOnUse" x="280" y="14" width="38" height="45">
<path fill-rule="evenodd" clip-rule="evenodd" d="M299 14.4963C293.377 14.4963 288.818 19.0549 288.818 24.6782V25.7145C287.786 25.8876 287 26.785 287 27.8661V30.3596C287 31.4626 287.818 32.3744 288.881 32.5209C289.279 36.0916 291.523 39.1049 294.636 40.5842V43.9313C286.935 44.3459 280.818 50.7218 280.818 58.5264H317.182C317.182 50.7218 311.065 44.3459 303.364 43.9313V40.5842C306.478 39.1049 308.722 36.0916 309.119 32.5209C310.182 32.3744 311 31.4626 311 30.3596V27.8661C311 26.785 310.214 25.8876 309.182 25.7145V24.6782C309.182 19.0549 304.623 14.4963 299 14.4963Z" fill="white"/>
</mask>
<g mask="url(#mask1_302_1957)">
<rect width="48" height="44.0301" transform="translate(275 14.4963)" fill="#FFCCD7"/>
<rect x="275" y="14.4963" width="48" height="44.0301" fill="#FFCCD7"/>
<path fill-rule="evenodd" clip-rule="evenodd" d="M288.818 31.3821V32.8257C288.818 38.449 293.377 43.0075 299 43.0075C304.623 43.0075 309.182 38.449 309.182 32.8257V31.3821C309.182 37.0054 304.623 41.5639 299 41.5639C293.377 41.5639 288.818 37.0053 288.818 31.3821Z" fill="black" fill-opacity="0.1"/>
</g>
<path fill-rule="evenodd" clip-rule="evenodd" d="M299.091 50.5554C304.062 50.5554 308.091 48.1737 308.091 45.2357C308.091 45.1544 308.088 45.0734 308.082 44.9929C313.419 47.1672 317.182 52.4074 317.182 58.5264H280.818C280.818 52.3357 284.669 47.0444 290.107 44.9177C290.096 45.0229 290.091 45.129 290.091 45.2357C290.091 48.1737 294.12 50.5554 299.091 50.5554Z" fill="#6223A9"/>
<mask id="mask2_302_1957" style="mask-type:luminance" maskUnits="userSpaceOnUse" x="280" y="44" width="38" height="15">
<path fill-rule="evenodd" clip-rule="evenodd" d="M299.091 50.5554C304.062 50.5554 308.091 48.1737 308.091 45.2357C308.091 45.1544 308.088 45.0734 308.082 44.9929C313.419 47.1672 317.182 52.4074 317.182 58.5264H280.818C280.818 52.3357 284.669 47.0444 290.107 44.9177C290.096 45.0229 290.091 45.129 290.091 45.2357C290.091 48.1737 294.12 50.5554 299.091 50.5554Z" fill="white"/>
</mask>
<g mask="url(#mask2_302_1957)">
<rect x="275" y="38.6768" width="48" height="19.8496" fill="#6223A9"/>
</g>
<path fill-rule="evenodd" clip-rule="evenodd" d="M296.455 34.8872C296.455 36.2825 297.594 37.4135 299 37.4135C300.406 37.4135 301.545 36.2825 301.545 34.8872" fill="#0C092A"/>
<g opacity="0.3">
<path fill-rule="evenodd" clip-rule="evenodd" d="M296.818 31.4585C296.818 32.2558 297.795 32.9021 299 32.9021C300.205 32.9021 301.182 32.2558 301.182 31.4585" fill="#0C092A"/>
</g>
<ellipse cx="294.273" cy="28.2104" rx="1.09091" ry="1.08271" fill="#0C092A"/>
<ellipse cx="303.727" cy="28.2104" rx="1.09091" ry="1.08271" fill="#0C092A"/>
<path d="M291.66 25.8933C292.372 24.8992 294.323 24.3418 296.004 24.7515C296.199 24.799 296.396 24.6806 296.444 24.4871C296.492 24.2935 296.373 24.098 296.178 24.0505C294.226 23.5747 291.966 24.2202 291.067 25.4751C290.951 25.6376 290.989 25.8629 291.153 25.9784C291.317 26.0938 291.544 26.0557 291.66 25.8933Z" fill="#0C092A"/>
<path d="M306.34 25.8933C305.628 24.8992 303.677 24.3418 301.996 24.7515C301.801 24.799 301.604 24.6806 301.556 24.4871C301.508 24.2935 301.627 24.098 301.822 24.0505C303.775 23.5747 306.034 24.2202 306.933 25.4751C307.049 25.6376 307.011 25.8629 306.847 25.9784C306.683 26.0938 306.456 26.0557 306.34 25.8933Z" fill="#0C092A"/>
<mask id="mask3_302_1957" style="mask-type:luminance" maskUnits="userSpaceOnUse" x="275" y="8" width="48" height="51">
<rect x="275" y="8" width="48" height="50.5263" fill="white"/>
</mask>
<g mask="url(#mask3_302_1957)">
<path fill-rule="evenodd" clip-rule="evenodd" d="M282.091 34.1654C281.979 28.601 287.24 16.9855 289.182 14.6767C290.622 12.964 294.581 11.5279 299 11.609C303.419 11.6901 307.52 12.6578 309 14.4962C311.241 17.2801 315.885 27.8638 315.909 34.1654C315.926 38.6406 314.175 43.1266 311.727 43.3684C310.345 43.5049 308.59 43.3277 306.48 43.1147L306.48 43.1147L306.48 43.1147L306.48 43.1147L306.48 43.1147C305.515 43.0172 304.475 42.9123 303.364 42.8265V40.584C306.804 38.9499 309.182 35.4437 309.182 31.3821V26.3272C307.271 25.2825 305.645 24.0213 304.29 22.7398C304.9 23.8659 305.598 24.8884 306.384 25.6613C300.824 24.1128 296.98 20.942 294.676 18.4559C293.617 20.4551 291.721 23.3789 288.818 25.6061V31.382C288.818 35.4437 291.196 38.9499 294.636 40.584V42.9616C293.372 43.1334 292.197 43.3513 291.116 43.5519C289.144 43.9178 287.483 44.2258 286.161 44.0902C283.575 43.825 282.181 38.6398 282.091 34.1654Z" fill="#E6E6E6"/>
<mask id="mask4_302_1957" style="mask-type:luminance" maskUnits="userSpaceOnUse" x="282" y="11" width="34" height="34">
<path fill-rule="evenodd" clip-rule="evenodd" d="M282.091 34.1654C281.979 28.601 287.24 16.9855 289.182 14.6767C290.622 12.964 294.581 11.5279 299 11.609C303.419 11.6901 307.52 12.6578 309 14.4962C311.241 17.2801 315.885 27.8638 315.909 34.1654C315.926 38.6406 314.175 43.1266 311.727 43.3684C310.345 43.5049 308.59 43.3277 306.48 43.1147L306.48 43.1147L306.48 43.1147L306.48 43.1147L306.48 43.1147C305.515 43.0172 304.475 42.9123 303.364 42.8265V40.584C306.804 38.9499 309.182 35.4437 309.182 31.3821V26.3272C307.271 25.2825 305.645 24.0213 304.29 22.7398C304.9 23.8659 305.598 24.8884 306.384 25.6613C300.824 24.1128 296.98 20.942 294.676 18.4559C293.617 20.4551 291.721 23.3789 288.818 25.6061V31.382C288.818 35.4437 291.196 38.9499 294.636 40.584V42.9616C293.372 43.1334 292.197 43.3513 291.116 43.5519C289.144 43.9178 287.483 44.2258 286.161 44.0902C283.575 43.825 282.181 38.6398 282.091 34.1654Z" fill="white"/>
</mask>
<g mask="url(#mask4_302_1957)">
<rect x="274.818" y="8" width="48.3636" height="50.5263" fill="#0C092A"/>
</g>
</g>
</g>
<path d="M2.448 50C2.288 50 2.152 49.944 2.04 49.832C1.928 49.72 1.872 49.584 1.872 49.424V33.8C1.872 33.624 1.92 33.48 2.016 33.368C2.128 33.256 2.272 33.2 2.448 33.2H4.392C4.696 33.2 4.936 33.352 5.112 33.656L9.744 42.248L14.376 33.656C14.552 33.352 14.792 33.2 15.096 33.2H17.016C17.192 33.2 17.336 33.256 17.448 33.368C17.56 33.48 17.616 33.624 17.616 33.8V49.424C17.616 49.6 17.56 49.744 17.448 49.856C17.336 49.952 17.192 50 17.016 50H14.952C14.792 50 14.656 49.944 14.544 49.832C14.432 49.72 14.376 49.584 14.376 49.424V39.104L11.04 45.44C10.864 45.792 10.6 45.968 10.248 45.968H9.24C8.904 45.968 8.632 45.792 8.424 45.44L5.088 39.104V49.424C5.088 49.584 5.032 49.72 4.92 49.832C4.824 49.944 4.688 50 4.512 50H2.448ZM24.6846 50.24C23.8686 50.24 23.1166 50.08 22.4286 49.76C21.7566 49.424 21.2206 48.976 20.8206 48.416C20.4366 47.856 20.2446 47.24 20.2446 46.568C20.2446 45.48 20.6846 44.6 21.5646 43.928C22.4446 43.256 23.6526 42.8 25.1886 42.56L28.4766 42.08V41.576C28.4766 40.888 28.3006 40.368 27.9486 40.016C27.5966 39.664 27.0366 39.488 26.2686 39.488C25.7406 39.488 25.3166 39.584 24.9966 39.776C24.6766 39.968 24.4126 40.168 24.2046 40.376C24.0126 40.568 23.8846 40.696 23.8206 40.76C23.7566 40.952 23.6366 41.048 23.4606 41.048H21.5886C21.4446 41.048 21.3166 41 21.2046 40.904C21.1086 40.808 21.0606 40.68 21.0606 40.52C21.0766 40.12 21.2686 39.672 21.6366 39.176C22.0206 38.664 22.6046 38.224 23.3886 37.856C24.1726 37.472 25.1406 37.28 26.2926 37.28C28.1806 37.28 29.5566 37.704 30.4206 38.552C31.2846 39.4 31.7166 40.512 31.7166 41.888V49.424C31.7166 49.584 31.6606 49.72 31.5486 49.832C31.4526 49.944 31.3166 50 31.1406 50H29.1486C28.9886 50 28.8526 49.944 28.7406 49.832C28.6286 49.72 28.5726 49.584 28.5726 49.424V48.488C28.2206 49 27.7246 49.424 27.0846 49.76C26.4446 50.08 25.6446 50.24 24.6846 50.24ZM25.5006 47.936C26.3806 47.936 27.1006 47.648 27.6606 47.072C28.2206 46.496 28.5006 45.664 28.5006 44.576V44.096L26.1006 44.48C24.2606 44.768 23.3406 45.384 23.3406 46.328C23.3406 46.84 23.5486 47.24 23.9646 47.528C24.3966 47.8 24.9086 47.936 25.5006 47.936ZM39.4269 50.24C37.8109 50.24 36.5709 49.728 35.7069 48.704C34.8429 47.664 34.3709 46.28 34.2909 44.552L34.2669 43.76L34.2909 42.968C34.3549 41.272 34.8189 39.904 35.6829 38.864C36.5629 37.808 37.8109 37.28 39.4269 37.28C40.9629 37.28 42.1869 37.808 43.0989 38.864V33.536C43.0989 33.36 43.1549 33.224 43.2669 33.128C43.3789 33.016 43.5149 32.96 43.6749 32.96H45.7629C45.9389 32.96 46.0749 33.016 46.1709 33.128C46.2829 33.224 46.3389 33.36 46.3389 33.536V49.424C46.3389 49.584 46.2829 49.72 46.1709 49.832C46.0749 49.944 45.9389 50 45.7629 50H43.8189C43.6589 50 43.5229 49.944 43.4109 49.832C43.2989 49.72 43.2429 49.584 43.2429 49.424V48.536C42.3629 49.672 41.0909 50.24 39.4269 50.24ZM40.3389 47.648C41.2509 47.648 41.9229 47.36 42.3549 46.784C42.8029 46.192 43.0509 45.464 43.0989 44.6C43.1149 44.408 43.1229 44.104 43.1229 43.688C43.1229 43.256 43.1149 42.944 43.0989 42.752C43.0669 41.952 42.8189 41.272 42.3549 40.712C41.8909 40.152 41.2189 39.872 40.3389 39.872C38.6269 39.872 37.7149 40.928 37.6029 43.04L37.5789 43.76L37.6029 44.48C37.7149 46.592 38.6269 47.648 40.3389 47.648ZM54.9371 50.24C53.1451 50.24 51.7211 49.728 50.6651 48.704C49.6251 47.68 49.0731 46.224 49.0091 44.336L48.9851 43.736C48.9851 41.736 49.5051 40.16 50.5451 39.008C51.6011 37.856 53.0571 37.28 54.9131 37.28C56.8171 37.28 58.2811 37.856 59.3051 39.008C60.3451 40.16 60.8651 41.696 60.8651 43.616V44.12C60.8651 44.28 60.8091 44.416 60.6971 44.528C60.5851 44.64 60.4411 44.696 60.2651 44.696H52.2971V44.888C52.3291 45.784 52.5691 46.528 53.0171 47.12C53.4811 47.696 54.1131 47.984 54.9131 47.984C55.8251 47.984 56.5691 47.616 57.1451 46.88C57.2891 46.704 57.4011 46.6 57.4811 46.568C57.5611 46.52 57.6971 46.496 57.8891 46.496H60.0011C60.1451 46.496 60.2651 46.536 60.3611 46.616C60.4731 46.696 60.5291 46.808 60.5291 46.952C60.5291 47.336 60.2971 47.792 59.8331 48.32C59.3851 48.832 58.7371 49.28 57.8891 49.664C57.0411 50.048 56.0571 50.24 54.9371 50.24ZM57.5531 42.656V42.608C57.5531 41.664 57.3131 40.912 56.8331 40.352C56.3691 39.776 55.7291 39.488 54.9131 39.488C54.0971 39.488 53.4571 39.776 52.9931 40.352C52.5291 40.912 52.2971 41.664 52.2971 42.608V42.656H57.5531ZM64.0121 50C63.8521 50 63.7161 49.944 63.6041 49.832C63.4921 49.72 63.4361 49.584 63.4361 49.424V33.536C63.4361 33.36 63.4921 33.224 63.6041 33.128C63.7161 33.016 63.8521 32.96 64.0121 32.96H66.0281C66.2041 32.96 66.3401 33.016 66.4361 33.128C66.5481 33.224 66.6041 33.36 66.6041 33.536V49.424C66.6041 49.584 66.5481 49.72 66.4361 49.832C66.3401 49.944 66.2041 50 66.0281 50H64.0121ZM72.0431 54.56C71.9151 54.56 71.7951 54.512 71.6831 54.416C71.5871 54.32 71.5391 54.208 71.5391 54.08C71.5391 53.968 71.5711 53.84 71.6351 53.696L73.5311 49.256L68.9231 38.384C68.8591 38.24 68.8271 38.128 68.8271 38.048C68.8431 37.904 68.8991 37.784 68.9951 37.688C69.0911 37.576 69.2111 37.52 69.3551 37.52H71.3471C71.6351 37.52 71.8431 37.672 71.9711 37.976L75.1631 45.8L78.4031 37.976C78.5631 37.672 78.7871 37.52 79.0751 37.52H81.0191C81.1631 37.52 81.2831 37.568 81.3791 37.664C81.4751 37.76 81.5231 37.872 81.5231 38C81.5231 38.112 81.4911 38.24 81.4271 38.384L74.6351 54.104C74.5071 54.408 74.2831 54.56 73.9631 54.56H72.0431ZM84.1678 50C84.0078 50 83.8718 49.944 83.7598 49.832C83.6478 49.72 83.5918 49.584 83.5918 49.424V38.096C83.5918 37.92 83.6478 37.784 83.7598 37.688C83.8718 37.576 84.0078 37.52 84.1678 37.52H86.1598C86.3358 37.52 86.4718 37.576 86.5678 37.688C86.6798 37.784 86.7358 37.92 86.7358 38.096V39.08C87.7118 37.88 89.0478 37.28 90.7438 37.28C92.2158 37.28 93.3838 37.76 94.2478 38.72C95.1118 39.68 95.5438 41 95.5438 42.68V49.424C95.5438 49.584 95.4878 49.72 95.3758 49.832C95.2798 49.944 95.1438 50 94.9678 50H92.8078C92.6478 50 92.5118 49.944 92.3998 49.832C92.2878 49.72 92.2318 49.584 92.2318 49.424V42.824C92.2318 41.896 91.9998 41.176 91.5358 40.664C91.0878 40.136 90.4398 39.872 89.5918 39.872C88.7758 39.872 88.1198 40.136 87.6238 40.664C87.1278 41.192 86.8798 41.912 86.8798 42.824V49.424C86.8798 49.584 86.8238 49.72 86.7118 49.832C86.6158 49.944 86.4798 50 86.3038 50H84.1678ZM104.917 50C104.757 50 104.621 49.944 104.509 49.832C104.397 49.72 104.341 49.584 104.341 49.424V33.8C104.341 33.624 104.389 33.48 104.485 33.368C104.597 33.256 104.741 33.2 104.917 33.2H110.773C115.493 33.2 117.901 35.376 117.997 39.728C118.029 40.656 118.045 41.28 118.045 41.6C118.045 41.904 118.029 42.52 117.997 43.448C117.933 45.688 117.325 47.344 116.173 48.416C115.037 49.472 113.277 50 110.893 50H104.917ZM110.773 47.216C112.101 47.216 113.061 46.92 113.653 46.328C114.245 45.736 114.557 44.752 114.589 43.376C114.621 42.416 114.637 41.816 114.637 41.576C114.637 41.32 114.621 40.728 114.589 39.8C114.557 38.488 114.229 37.528 113.605 36.92C112.981 36.296 111.997 35.984 110.653 35.984H107.725V47.216H110.773ZM121.408 35.48C121.248 35.48 121.112 35.424 121 35.312C120.888 35.2 120.832 35.064 120.832 34.904V33.152C120.832 32.976 120.888 32.832 121 32.72C121.112 32.608 121.248 32.552 121.408 32.552H123.616C123.792 32.552 123.936 32.608 124.048 32.72C124.16 32.832 124.216 32.976 124.216 33.152V34.904C124.216 35.064 124.152 35.2 124.024 35.312C123.912 35.424 123.776 35.48 123.616 35.48H121.408ZM121.504 50C121.344 50 121.208 49.944 121.096 49.832C120.984 49.72 120.928 49.584 120.928 49.424V38.096C120.928 37.92 120.984 37.784 121.096 37.688C121.208 37.576 121.344 37.52 121.504 37.52H123.544C123.704 37.52 123.84 37.576 123.952 37.688C124.064 37.8 124.12 37.936 124.12 38.096V49.424C124.12 49.584 124.064 49.72 123.952 49.832C123.84 49.944 123.704 50 123.544 50H121.504ZM130.903 50.24C130.087 50.24 129.335 50.08 128.647 49.76C127.975 49.424 127.439 48.976 127.039 48.416C126.655 47.856 126.463 47.24 126.463 46.568C126.463 45.48 126.903 44.6 127.783 43.928C128.663 43.256 129.871 42.8 131.407 42.56L134.695 42.08V41.576C134.695 40.888 134.519 40.368 134.167 40.016C133.815 39.664 133.255 39.488 132.487 39.488C131.959 39.488 131.535 39.584 131.215 39.776C130.895 39.968 130.631 40.168 130.423 40.376C130.231 40.568 130.103 40.696 130.039 40.76C129.975 40.952 129.855 41.048 129.679 41.048H127.807C127.663 41.048 127.535 41 127.423 40.904C127.327 40.808 127.279 40.68 127.279 40.52C127.295 40.12 127.487 39.672 127.855 39.176C128.239 38.664 128.823 38.224 129.607 37.856C130.391 37.472 131.359 37.28 132.511 37.28C134.399 37.28 135.775 37.704 136.639 38.552C137.503 39.4 137.935 40.512 137.935 41.888V49.424C137.935 49.584 137.879 49.72 137.767 49.832C137.671 49.944 137.535 50 137.359 50H135.367C135.207 50 135.071 49.944 134.959 49.832C134.847 49.72 134.791 49.584 134.791 49.424V48.488C134.439 49 133.943 49.424 133.303 49.76C132.663 50.08 131.863 50.24 130.903 50.24ZM131.719 47.936C132.599 47.936 133.319 47.648 133.879 47.072C134.439 46.496 134.719 45.664 134.719 44.576V44.096L132.319 44.48C130.479 44.768 129.559 45.384 129.559 46.328C129.559 46.84 129.767 47.24 130.183 47.528C130.615 47.8 131.127 47.936 131.719 47.936ZM145.766 50.24C144.55 50.24 143.534 50.056 142.718 49.688C141.902 49.32 141.294 48.896 140.894 48.416C140.51 47.92 140.318 47.496 140.318 47.144C140.318 46.984 140.366 46.856 140.462 46.76C140.574 46.664 140.702 46.616 140.846 46.616H142.814C142.942 46.616 143.054 46.68 143.15 46.808C143.23 46.872 143.406 47.024 143.678 47.264C143.966 47.504 144.286 47.696 144.638 47.84C145.006 47.968 145.406 48.032 145.838 48.032C146.478 48.032 146.998 47.912 147.398 47.672C147.798 47.416 147.998 47.056 147.998 46.592C147.998 46.272 147.902 46.016 147.71 45.824C147.534 45.616 147.206 45.432 146.726 45.272C146.262 45.096 145.558 44.904 144.614 44.696C143.254 44.408 142.246 43.968 141.59 43.376C140.95 42.784 140.63 42 140.63 41.024C140.63 40.384 140.822 39.784 141.206 39.224C141.59 38.648 142.158 38.184 142.91 37.832C143.678 37.464 144.59 37.28 145.646 37.28C146.734 37.28 147.67 37.456 148.454 37.808C149.238 38.144 149.83 38.552 150.23 39.032C150.646 39.512 150.854 39.936 150.854 40.304C150.854 40.448 150.798 40.576 150.686 40.688C150.59 40.784 150.47 40.832 150.326 40.832H148.526C148.35 40.832 148.214 40.768 148.118 40.64C148.006 40.56 147.822 40.416 147.566 40.208C147.326 39.984 147.054 39.808 146.75 39.68C146.446 39.552 146.078 39.488 145.646 39.488C145.054 39.488 144.598 39.616 144.278 39.872C143.958 40.128 143.798 40.464 143.798 40.88C143.798 41.168 143.87 41.408 144.014 41.6C144.174 41.792 144.486 41.976 144.95 42.152C145.414 42.312 146.11 42.48 147.038 42.656C149.918 43.216 151.358 44.472 151.358 46.424C151.358 47.56 150.862 48.48 149.87 49.184C148.894 49.888 147.526 50.24 145.766 50.24Z" fill="white"/>
<path d="M32.212 14.12C31.108 14.12 30.248 13.836 29.632 13.268C29.024 12.7 28.7 11.908 28.66 10.892C28.652 10.66 28.648 10.288 28.648 9.776C28.648 9.264 28.652 8.892 28.66 8.66C28.692 7.668 29.02 6.892 29.644 6.332C30.268 5.764 31.124 5.48 32.212 5.48C32.948 5.48 33.58 5.608 34.108 5.864C34.644 6.112 35.048 6.424 35.32 6.8C35.592 7.168 35.736 7.532 35.752 7.892C35.752 7.964 35.728 8.024 35.68 8.072C35.632 8.12 35.568 8.144 35.488 8.144H34.228C34.148 8.144 34.088 8.128 34.048 8.096C34.008 8.064 33.972 8.012 33.94 7.94C33.828 7.644 33.632 7.392 33.352 7.184C33.072 6.976 32.692 6.872 32.212 6.872C31.652 6.872 31.212 7.024 30.892 7.328C30.58 7.624 30.416 8.088 30.4 8.72C30.392 8.952 30.388 9.304 30.388 9.776C30.388 10.24 30.392 10.592 30.4 10.832C30.416 11.48 30.584 11.96 30.904 12.272C31.224 12.576 31.664 12.728 32.224 12.728C32.792 12.728 33.248 12.576 33.592 12.272C33.936 11.968 34.108 11.512 34.108 10.904V10.532H32.644C32.564 10.532 32.496 10.504 32.44 10.448C32.384 10.392 32.356 10.324 32.356 10.244V9.584C32.356 9.504 32.384 9.436 32.44 9.38C32.496 9.324 32.564 9.296 32.644 9.296H35.524C35.612 9.296 35.684 9.324 35.74 9.38C35.796 9.436 35.824 9.504 35.824 9.584V10.856C35.824 11.52 35.676 12.1 35.38 12.596C35.084 13.084 34.664 13.46 34.12 13.724C33.576 13.988 32.94 14.12 32.212 14.12ZM41.0701 14.12C39.9741 14.12 39.1221 13.844 38.5141 13.292C37.9061 12.74 37.5861 11.92 37.5541 10.832C37.5461 10.6 37.5421 10.26 37.5421 9.812C37.5421 9.356 37.5461 9.012 37.5541 8.78C37.5861 7.716 37.9141 6.9 38.5381 6.332C39.1621 5.764 40.0061 5.48 41.0701 5.48C42.1261 5.48 42.9661 5.764 43.5901 6.332C44.2221 6.9 44.5541 7.716 44.5861 8.78C44.6021 9.244 44.6101 9.588 44.6101 9.812C44.6101 10.028 44.6021 10.368 44.5861 10.832C44.5541 11.92 44.2301 12.74 43.6141 13.292C43.0061 13.844 42.1581 14.12 41.0701 14.12ZM41.0701 12.728C41.6061 12.728 42.0301 12.568 42.3421 12.248C42.6541 11.928 42.8221 11.436 42.8461 10.772C42.8621 10.292 42.8701 9.968 42.8701 9.8C42.8701 9.616 42.8621 9.292 42.8461 8.828C42.8221 8.172 42.6501 7.684 42.3301 7.364C42.0101 7.036 41.5901 6.872 41.0701 6.872C40.5421 6.872 40.1181 7.036 39.7981 7.364C39.4781 7.684 39.3101 8.172 39.2941 8.828C39.2861 9.06 39.2821 9.384 39.2821 9.8C39.2821 10.208 39.2861 10.532 39.2941 10.772C39.3101 11.428 39.4741 11.92 39.7861 12.248C40.1061 12.568 40.5341 12.728 41.0701 12.728ZM49.8938 14.12C48.7978 14.12 47.9458 13.844 47.3378 13.292C46.7298 12.74 46.4098 11.92 46.3778 10.832C46.3698 10.6 46.3658 10.26 46.3658 9.812C46.3658 9.356 46.3698 9.012 46.3778 8.78C46.4098 7.716 46.7378 6.9 47.3618 6.332C47.9858 5.764 48.8298 5.48 49.8938 5.48C50.9498 5.48 51.7898 5.764 52.4138 6.332C53.0458 6.9 53.3778 7.716 53.4098 8.78C53.4258 9.244 53.4338 9.588 53.4338 9.812C53.4338 10.028 53.4258 10.368 53.4098 10.832C53.3778 11.92 53.0538 12.74 52.4378 13.292C51.8298 13.844 50.9818 14.12 49.8938 14.12ZM49.8938 12.728C50.4298 12.728 50.8538 12.568 51.1658 12.248C51.4778 11.928 51.6458 11.436 51.6698 10.772C51.6858 10.292 51.6938 9.968 51.6938 9.8C51.6938 9.616 51.6858 9.292 51.6698 8.828C51.6458 8.172 51.4738 7.684 51.1538 7.364C50.8338 7.036 50.4138 6.872 49.8938 6.872C49.3658 6.872 48.9418 7.036 48.6218 7.364C48.3018 7.684 48.1338 8.172 48.1178 8.828C48.1098 9.06 48.1058 9.384 48.1058 9.8C48.1058 10.208 48.1098 10.532 48.1178 10.772C48.1338 11.428 48.2978 11.92 48.6098 12.248C48.9298 12.568 49.3578 12.728 49.8938 12.728ZM55.7656 14C55.6856 14 55.6176 13.972 55.5616 13.916C55.5056 13.86 55.4776 13.792 55.4776 13.712V5.9C55.4776 5.812 55.5016 5.74 55.5496 5.684C55.6056 5.628 55.6776 5.6 55.7656 5.6H58.6936C61.0536 5.6 62.2576 6.688 62.3056 8.864C62.3216 9.328 62.3296 9.64 62.3296 9.8C62.3296 9.952 62.3216 10.26 62.3056 10.724C62.2736 11.844 61.9696 12.672 61.3936 13.208C60.8256 13.736 59.9456 14 58.7536 14H55.7656ZM58.6936 12.608C59.3576 12.608 59.8376 12.46 60.1336 12.164C60.4296 11.868 60.5856 11.376 60.6016 10.688C60.6176 10.208 60.6256 9.908 60.6256 9.788C60.6256 9.66 60.6176 9.364 60.6016 8.9C60.5856 8.244 60.4216 7.764 60.1096 7.46C59.7976 7.148 59.3056 6.992 58.6336 6.992H57.1696V12.608H58.6936ZM67.8935 14C67.8135 14 67.7455 13.972 67.6895 13.916C67.6335 13.86 67.6055 13.792 67.6055 13.712V5.9C67.6055 5.812 67.6295 5.74 67.6775 5.684C67.7335 5.628 67.8055 5.6 67.8935 5.6H68.8655C69.0175 5.6 69.1375 5.676 69.2255 5.828L71.5415 10.124L73.8575 5.828C73.9455 5.676 74.0655 5.6 74.2175 5.6H75.1775C75.2655 5.6 75.3375 5.628 75.3935 5.684C75.4495 5.74 75.4775 5.812 75.4775 5.9V13.712C75.4775 13.8 75.4495 13.872 75.3935 13.928C75.3375 13.976 75.2655 14 75.1775 14H74.1455C74.0655 14 73.9975 13.972 73.9415 13.916C73.8855 13.86 73.8575 13.792 73.8575 13.712V8.552L72.1895 11.72C72.1015 11.896 71.9695 11.984 71.7935 11.984H71.2895C71.1215 11.984 70.9855 11.896 70.8815 11.72L69.2135 8.552V13.712C69.2135 13.792 69.1855 13.86 69.1295 13.916C69.0815 13.972 69.0135 14 68.9255 14H67.8935ZM81.0638 14.12C79.9678 14.12 79.1158 13.844 78.5078 13.292C77.8998 12.74 77.5798 11.92 77.5478 10.832C77.5398 10.6 77.5358 10.26 77.5358 9.812C77.5358 9.356 77.5398 9.012 77.5478 8.78C77.5798 7.716 77.9078 6.9 78.5318 6.332C79.1558 5.764 79.9998 5.48 81.0638 5.48C82.1198 5.48 82.9598 5.764 83.5838 6.332C84.2158 6.9 84.5478 7.716 84.5798 8.78C84.5958 9.244 84.6038 9.588 84.6038 9.812C84.6038 10.028 84.5958 10.368 84.5798 10.832C84.5478 11.92 84.2238 12.74 83.6078 13.292C82.9998 13.844 82.1518 14.12 81.0638 14.12ZM81.0638 12.728C81.5998 12.728 82.0238 12.568 82.3358 12.248C82.6478 11.928 82.8158 11.436 82.8398 10.772C82.8558 10.292 82.8638 9.968 82.8638 9.8C82.8638 9.616 82.8558 9.292 82.8398 8.828C82.8158 8.172 82.6438 7.684 82.3238 7.364C82.0038 7.036 81.5838 6.872 81.0638 6.872C80.5358 6.872 80.1118 7.036 79.7918 7.364C79.4718 7.684 79.3038 8.172 79.2878 8.828C79.2798 9.06 79.2758 9.384 79.2758 9.8C79.2758 10.208 79.2798 10.532 79.2878 10.772C79.3038 11.428 79.4678 11.92 79.7798 12.248C80.0998 12.568 80.5278 12.728 81.0638 12.728ZM86.9356 14C86.8556 14 86.7876 13.972 86.7316 13.916C86.6756 13.86 86.6476 13.792 86.6476 13.712V5.9C86.6476 5.812 86.6716 5.74 86.7196 5.684C86.7756 5.628 86.8476 5.6 86.9356 5.6H90.0436C91.0276 5.6 91.7956 5.828 92.3476 6.284C92.9076 6.74 93.1876 7.388 93.1876 8.228C93.1876 8.812 93.0476 9.304 92.7676 9.704C92.4876 10.096 92.0956 10.38 91.5916 10.556L93.3316 13.616C93.3556 13.664 93.3676 13.708 93.3676 13.748C93.3676 13.82 93.3396 13.88 93.2836 13.928C93.2356 13.976 93.1796 14 93.1156 14H92.0116C91.8836 14 91.7836 13.972 91.7116 13.916C91.6396 13.852 91.5756 13.772 91.5196 13.676L89.9836 10.832H88.3396V13.712C88.3396 13.792 88.3116 13.86 88.2556 13.916C88.1996 13.972 88.1276 14 88.0396 14H86.9356ZM90.0076 9.464C90.4876 9.464 90.8476 9.36 91.0876 9.152C91.3276 8.936 91.4476 8.624 91.4476 8.216C91.4476 7.808 91.3276 7.496 91.0876 7.28C90.8476 7.056 90.4876 6.944 90.0076 6.944H88.3396V9.464H90.0076ZM95.5015 14C95.4215 14 95.3535 13.972 95.2975 13.916C95.2415 13.86 95.2135 13.792 95.2135 13.712V5.9C95.2135 5.812 95.2375 5.74 95.2855 5.684C95.3415 5.628 95.4135 5.6 95.5015 5.6H96.4375C96.5895 5.6 96.7055 5.668 96.7855 5.804L100.217 11.132V5.9C100.217 5.812 100.241 5.74 100.289 5.684C100.345 5.628 100.417 5.6 100.505 5.6H101.537C101.625 5.6 101.697 5.628 101.753 5.684C101.809 5.74 101.837 5.812 101.837 5.9V13.7C101.837 13.788 101.809 13.86 101.753 13.916C101.697 13.972 101.629 14 101.549 14H100.601C100.441 14 100.321 13.932 100.241 13.796L96.8215 8.588V13.712C96.8215 13.792 96.7935 13.86 96.7375 13.916C96.6895 13.972 96.6215 14 96.5335 14H95.5015ZM104.466 14C104.386 14 104.318 13.972 104.262 13.916C104.206 13.86 104.178 13.792 104.178 13.712V5.888C104.178 5.8 104.206 5.732 104.262 5.684C104.318 5.628 104.386 5.6 104.466 5.6H105.618C105.706 5.6 105.774 5.628 105.822 5.684C105.878 5.732 105.906 5.8 105.906 5.888V13.712C105.906 13.792 105.878 13.86 105.822 13.916C105.774 13.972 105.706 14 105.618 14H104.466ZM108.544 14C108.464 14 108.396 13.972 108.34 13.916C108.284 13.86 108.256 13.792 108.256 13.712V5.9C108.256 5.812 108.28 5.74 108.328 5.684C108.384 5.628 108.456 5.6 108.544 5.6H109.48C109.632 5.6 109.748 5.668 109.828 5.804L113.26 11.132V5.9C113.26 5.812 113.284 5.74 113.332 5.684C113.388 5.628 113.46 5.6 113.548 5.6H114.58C114.668 5.6 114.74 5.628 114.796 5.684C114.852 5.74 114.88 5.812 114.88 5.9V13.7C114.88 13.788 114.852 13.86 114.796 13.916C114.74 13.972 114.672 14 114.592 14H113.644C113.484 14 113.364 13.932 113.284 13.796L109.864 8.588V13.712C109.864 13.792 109.836 13.86 109.78 13.916C109.732 13.972 109.664 14 109.576 14H108.544ZM120.496 14.12C119.392 14.12 118.532 13.836 117.916 13.268C117.308 12.7 116.984 11.908 116.944 10.892C116.936 10.66 116.932 10.288 116.932 9.776C116.932 9.264 116.936 8.892 116.944 8.66C116.976 7.668 117.304 6.892 117.928 6.332C118.552 5.764 119.408 5.48 120.496 5.48C121.232 5.48 121.864 5.608 122.392 5.864C122.928 6.112 123.332 6.424 123.604 6.8C123.876 7.168 124.02 7.532 124.036 7.892C124.036 7.964 124.012 8.024 123.964 8.072C123.916 8.12 123.852 8.144 123.772 8.144H122.512C122.432 8.144 122.372 8.128 122.332 8.096C122.292 8.064 122.256 8.012 122.224 7.94C122.112 7.644 121.916 7.392 121.636 7.184C121.356 6.976 120.976 6.872 120.496 6.872C119.936 6.872 119.496 7.024 119.176 7.328C118.864 7.624 118.7 8.088 118.684 8.72C118.676 8.952 118.672 9.304 118.672 9.776C118.672 10.24 118.676 10.592 118.684 10.832C118.7 11.48 118.868 11.96 119.188 12.272C119.508 12.576 119.948 12.728 120.508 12.728C121.076 12.728 121.532 12.576 121.876 12.272C122.22 11.968 122.392 11.512 122.392 10.904V10.532H120.928C120.848 10.532 120.78 10.504 120.724 10.448C120.668 10.392 120.64 10.324 120.64 10.244V9.584C120.64 9.504 120.668 9.436 120.724 9.38C120.78 9.324 120.848 9.296 120.928 9.296H123.808C123.896 9.296 123.968 9.324 124.024 9.38C124.08 9.436 124.108 9.504 124.108 9.584V10.856C124.108 11.52 123.96 12.1 123.664 12.596C123.368 13.084 122.948 13.46 122.404 13.724C121.86 13.988 121.224 14.12 120.496 14.12Z" fill="#FFD6DD"/>
<g clip-path="url(#clip0_302_1957)">
<path d="M9.99996 13.3334C11.8409 13.3334 13.3333 11.841 13.3333 10.0001C13.3333 8.15913 11.8409 6.66675 9.99996 6.66675C8.15901 6.66675 6.66663 8.15913 6.66663 10.0001C6.66663 11.841 8.15901 13.3334 9.99996 13.3334Z" stroke="#FFD6DD" stroke-width="1.5" stroke-linecap="round" stroke-linejoin="round"/>
<path d="M5.25 14.75L4.66667 15.3333M2.5 10H3.33333H2.5ZM10 2.5V3.33333V2.5ZM16.6667 10H17.5H16.6667ZM10 16.6667V17.5V16.6667ZM4.66667 4.66667L5.25 5.25L4.66667 4.66667ZM15.3333 4.66667L14.75 5.25L15.3333 4.66667ZM14.75 14.75L15.3333 15.3333L14.75 14.75Z" stroke="#FFD6DD" stroke-width="1.5" stroke-linecap="round" stroke-linejoin="round"/>
</g>
<defs>
<clipPath id="clip0_302_1957">
<rect width="20" height="20" fill="white"/>
</clipPath>
</defs>
</svg>
